<?xml version="1.0" encoding="us-ascii" standalone="no"?><svg xmlns="http://www.w3.org/2000/svg" xmlns:xlink="http://www.w3.org/1999/xlink" contentStyleType="text/css" height="741px" preserveAspectRatio="none" style="width:3310px;height:741px;background:#FFFFFF;" version="1.1" viewBox="0 0 3310 741" width="3310px" zoomAndPan="magnify"><defs/><g><!--class User--><g id="elem_User"><rect codeLine="20" fill="#F1F1F1" height="87.792" id="User" rx="3" ry="3" style="stroke:#181818;stroke-width:0.5;" width="108" x="1444" y="19.79"/><ellipse cx="1459" cy="55.686" fill="#ADD1B2" rx="11" ry="11" style="stroke:#181818;stroke-width:1.0;"/><path d="M1455.7813,61.686 L1455.7813,50.2641 L1462.9844,50.2641 L1462.9844,52.2641 L1458.0156,52.2641 L1458.0156,54.7641 L1462.7344,54.7641 L1462.7344,56.7641 L1458.0156,56.7641 L1458.0156,59.686 L1462.9844,59.686 L1462.9844,61.686 L1455.7813,61.686 Z " fill="#000000"/><text fill="#000000" font-family="sans-serif" font-size="16" lengthAdjust="spacing" textLength="36" x="1493" y="61.894">User</text><line style="stroke:#181818;stroke-width:0.5;" x1="1445" x2="1551" y1="91.582" y2="91.582"/><line style="stroke:#181818;stroke-width:0.5;" x1="1445" x2="1551" y1="99.582" y2="99.582"/></g><!--class Subject--><g id="elem_Subject"><rect codeLine="21" fill="#F1F1F1" height="87.792" id="Subject" rx="3" ry="3" style="stroke:#181818;stroke-width:0.5;" width="128" x="2064" y="19.79"/><ellipse cx="2079" cy="55.686" fill="#ADD1B2" rx="11" ry="11" style="stroke:#181818;stroke-width:1.0;"/><path d="M2075.7813,61.686 L2075.7813,50.2641 L2082.9844,50.2641 L2082.9844,52.2641 L2078.0156,52.2641 L2078.0156,54.7641 L2082.7344,54.7641 L2082.7344,56.7641 L2078.0156,56.7641 L2078.0156,59.686 L2082.9844,59.686 L2082.9844,61.686 L2075.7813,61.686 Z " fill="#000000"/><text fill="#000000" font-family="sans-serif" font-size="16" lengthAdjust="spacing" textLength="56" x="2113" y="61.894">Subject</text><line style="stroke:#181818;stroke-width:0.5;" x1="2065" x2="2191" y1="91.582" y2="91.582"/><line style="stroke:#181818;stroke-width:0.5;" x1="2065" x2="2191" y1="99.582" y2="99.582"/></g><!--class Topic--><g id="elem_Topic"><rect codeLine="22" fill="#F1F1F1" height="87.792" id="Topic" rx="3" ry="3" style="stroke:#181818;stroke-width:0.5;" width="113" x="1751.5" y="19.79"/><ellipse cx="1766.5" cy="55.686" fill="#ADD1B2" rx="11" ry="11" style="stroke:#181818;stroke-width:1.0;"/><path d="M1763.2813,61.686 L1763.2813,50.2641 L1770.4844,50.2641 L1770.4844,52.2641 L1765.5156,52.2641 L1765.5156,54.7641 L1770.2344,54.7641 L1770.2344,56.7641 L1765.5156,56.7641 L1765.5156,59.686 L1770.4844,59.686 L1770.4844,61.686 L1763.2813,61.686 Z " fill="#000000"/><text fill="#000000" font-family="sans-serif" font-size="16" lengthAdjust="spacing" textLength="41" x="1800.5" y="61.894">Topic</text><line style="stroke:#181818;stroke-width:0.5;" x1="1752.5" x2="1863.5" y1="91.582" y2="91.582"/><line style="stroke:#181818;stroke-width:0.5;" x1="1752.5" x2="1863.5" y1="99.582" y2="99.582"/></g><!--class ST--><g id="elem_ST"><rect codeLine="23" fill="#F1F1F1" height="87.792" id="ST" rx="3" ry="3" style="stroke:#181818;stroke-width:0.5;" width="169" x="2029.5" y="221.38"/><ellipse cx="2044.5" cy="257.276" fill="#ADD1B2" rx="11" ry="11" style="stroke:#181818;stroke-width:1.0;"/><path d="M2041.2813,263.276 L2041.2813,251.8541 L2048.4844,251.8541 L2048.4844,253.8541 L2043.5156,253.8541 L2043.5156,256.3541 L2048.2344,256.3541 L2048.2344,258.3541 L2043.5156,258.3541 L2043.5156,261.276 L2048.4844,261.276 L2048.4844,263.276 L2041.2813,263.276 Z " fill="#000000"/><text fill="#000000" font-family="sans-serif" font-size="16" lengthAdjust="spacing" textLength="97" x="2078.5" y="263.484">SubjectTopic</text><line style="stroke:#181818;stroke-width:0.5;" x1="2030.5" x2="2197.5" y1="293.172" y2="293.172"/><line style="stroke:#181818;stroke-width:0.5;" x1="2030.5" x2="2197.5" y1="301.172" y2="301.172"/></g><!--class Content--><g id="elem_Content"><rect codeLine="24" fill="#F1F1F1" height="87.792" id="Content" rx="3" ry="3" style="stroke:#181818;stroke-width:0.5;" width="133" x="2424.5" y="221.38"/><ellipse cx="2439.5" cy="257.276" fill="#ADD1B2" rx="11" ry="11" style="stroke:#181818;stroke-width:1.0;"/><path d="M2436.2813,263.276 L2436.2813,251.8541 L2443.4844,251.8541 L2443.4844,253.8541 L2438.5156,253.8541 L2438.5156,256.3541 L2443.2344,256.3541 L2443.2344,258.3541 L2438.5156,258.3541 L2438.5156,261.276 L2443.4844,261.276 L2443.4844,263.276 L2436.2813,263.276 Z " fill="#000000"/><text fill="#000000" font-family="sans-serif" font-size="16" lengthAdjust="spacing" textLength="61" x="2473.5" y="263.484">Content</text><line style="stroke:#181818;stroke-width:0.5;" x1="2425.5" x2="2556.5" y1="293.172" y2="293.172"/><line style="stroke:#181818;stroke-width:0.5;" x1="2425.5" x2="2556.5" y1="301.172" y2="301.172"/></g><!--class Class--><g id="elem_Class"><rect codeLine="25" fill="#F1F1F1" height="87.792" id="Class" rx="3" ry="3" style="stroke:#181818;stroke-width:0.5;" width="111" x="1666.5" y="221.38"/><ellipse cx="1681.5" cy="257.276" fill="#ADD1B2" rx="11" ry="11" style="stroke:#181818;stroke-width:1.0;"/><path d="M1678.2813,263.276 L1678.2813,251.8541 L1685.4844,251.8541 L1685.4844,253.8541 L1680.5156,253.8541 L1680.5156,256.3541 L1685.2344,256.3541 L1685.2344,258.3541 L1680.5156,258.3541 L1680.5156,261.276 L1685.4844,261.276 L1685.4844,263.276 L1678.2813,263.276 Z " fill="#000000"/><text fill="#000000" font-family="sans-serif" font-size="16" lengthAdjust="spacing" textLength="39" x="1715.5" y="263.484">Class</text><line style="stroke:#181818;stroke-width:0.5;" x1="1667.5" x2="1776.5" y1="293.172" y2="293.172"/><line style="stroke:#181818;stroke-width:0.5;" x1="1667.5" x2="1776.5" y1="301.172" y2="301.172"/></g><!--class QC--><g id="elem_QC"><rect codeLine="26" fill="#F1F1F1" height="87.792" id="QC" rx="3" ry="3" style="stroke:#181818;stroke-width:0.5;" width="217" x="1613.5" y="433.86"/><ellipse cx="1628.5" cy="469.756" fill="#ADD1B2" rx="11" ry="11" style="stroke:#181818;stroke-width:1.0;"/><path d="M1625.2813,475.756 L1625.2813,464.3341 L1632.4844,464.3341 L1632.4844,466.3341 L1627.5156,466.3341 L1627.5156,468.8341 L1632.2344,468.8341 L1632.2344,470.8341 L1627.5156,470.8341 L1627.5156,473.756 L1632.4844,473.756 L1632.4844,475.756 L1625.2813,475.756 Z " fill="#000000"/><text fill="#000000" font-family="sans-serif" font-size="16" lengthAdjust="spacing" textLength="145" x="1662.5" y="475.964">QuestionCollection</text><line style="stroke:#181818;stroke-width:0.5;" x1="1614.5" x2="1829.5" y1="505.652" y2="505.652"/><line style="stroke:#181818;stroke-width:0.5;" x1="1614.5" x2="1829.5" y1="513.652" y2="513.652"/></g><!--class Question--><g id="elem_Question"><rect codeLine="27" fill="#F1F1F1" height="87.792" id="Question" rx="3" ry="3" style="stroke:#181818;stroke-width:0.5;" width="142" x="350" y="19.79"/><ellipse cx="365" cy="55.686" fill="#ADD1B2" rx="11" ry="11" style="stroke:#181818;stroke-width:1.0;"/><path d="M361.7813,61.686 L361.7813,50.2641 L368.9844,50.2641 L368.9844,52.2641 L364.0156,52.2641 L364.0156,54.7641 L368.7344,54.7641 L368.7344,56.7641 L364.0156,56.7641 L364.0156,59.686 L368.9844,59.686 L368.9844,61.686 L361.7813,61.686 Z " fill="#000000"/><text fill="#000000" font-family="sans-serif" font-size="16" lengthAdjust="spacing" textLength="70" x="399" y="61.894">Question</text><line style="stroke:#181818;stroke-width:0.5;" x1="351" x2="491" y1="91.582" y2="91.582"/><line style="stroke:#181818;stroke-width:0.5;" x1="351" x2="491" y1="99.582" y2="99.582"/></g><!--class Alternative--><g id="elem_Alternative"><rect codeLine="28" fill="#F1F1F1" height="87.792" id="Alternative" rx="3" ry="3" style="stroke:#181818;stroke-width:0.5;" width="154" x="7" y="221.38"/><ellipse cx="22" cy="257.276" fill="#ADD1B2" rx="11" ry="11" style="stroke:#181818;stroke-width:1.0;"/><path d="M18.7813,263.276 L18.7813,251.8541 L25.9844,251.8541 L25.9844,253.8541 L21.0156,253.8541 L21.0156,256.3541 L25.7344,256.3541 L25.7344,258.3541 L21.0156,258.3541 L21.0156,261.276 L25.9844,261.276 L25.9844,263.276 L18.7813,263.276 Z " fill="#000000"/><text fill="#000000" font-family="sans-serif" font-size="16" lengthAdjust="spacing" textLength="82" x="56" y="263.484">Alternative</text><line style="stroke:#181818;stroke-width:0.5;" x1="8" x2="160" y1="293.172" y2="293.172"/><line style="stroke:#181818;stroke-width:0.5;" x1="8" x2="160" y1="301.172" y2="301.172"/></g><!--class QCP--><g id="elem_QCP"><rect codeLine="29" fill="#F1F1F1" height="87.792" id="QCP" rx="3" ry="3" style="stroke:#181818;stroke-width:0.5;" width="255" x="964.5" y="646.34"/><ellipse cx="979.5" cy="682.236" fill="#ADD1B2" rx="11" ry="11" style="stroke:#181818;stroke-width:1.0;"/><path d="M976.2813,688.236 L976.2813,676.8141 L983.4844,676.8141 L983.4844,678.8141 L978.5156,678.8141 L978.5156,681.3141 L983.2344,681.3141 L983.2344,683.3141 L978.5156,683.3141 L978.5156,686.236 L983.4844,686.236 L983.4844,688.236 L976.2813,688.236 Z " fill="#000000"/><text fill="#000000" font-family="sans-serif" font-size="16" lengthAdjust="spacing" textLength="183" x="1013.5" y="688.444">QuestionCollectionPivot</text><line style="stroke:#181818;stroke-width:0.5;" x1="965.5" x2="1218.5" y1="718.132" y2="718.132"/><line style="stroke:#181818;stroke-width:0.5;" x1="965.5" x2="1218.5" y1="726.132" y2="726.132"/></g><!--class QAns--><g id="elem_QAns"><rect codeLine="30" fill="#F1F1F1" height="87.792" id="QAns" rx="3" ry="3" style="stroke:#181818;stroke-width:0.5;" width="199" x="868.5" y="221.38"/><ellipse cx="883.5" cy="257.276" fill="#ADD1B2" rx="11" ry="11" style="stroke:#181818;stroke-width:1.0;"/><path d="M880.2813,263.276 L880.2813,251.8541 L887.4844,251.8541 L887.4844,253.8541 L882.5156,253.8541 L882.5156,256.3541 L887.2344,256.3541 L887.2344,258.3541 L882.5156,258.3541 L882.5156,261.276 L887.4844,261.276 L887.4844,263.276 L880.2813,263.276 Z " fill="#000000"/><text fill="#000000" font-family="sans-serif" font-size="16" lengthAdjust="spacing" textLength="127" x="917.5" y="263.484">QuestionAnswer</text><line style="stroke:#181818;stroke-width:0.5;" x1="869.5" x2="1066.5" y1="293.172" y2="293.172"/><line style="stroke:#181818;stroke-width:0.5;" x1="869.5" x2="1066.5" y1="301.172" y2="301.172"/></g><!--class CT--><g id="elem_CT"><rect codeLine="32" fill="#F1F1F1" height="87.792" id="CT" rx="3" ry="3" style="stroke:#181818;stroke-width:0.5;" width="169" x="2392.5" y="19.79"/><ellipse cx="2407.5" cy="55.686" fill="#ADD1B2" rx="11" ry="11" style="stroke:#181818;stroke-width:1.0;"/><path d="M2404.2813,61.686 L2404.2813,50.2641 L2411.4844,50.2641 L2411.4844,52.2641 L2406.5156,52.2641 L2406.5156,54.7641 L2411.2344,54.7641 L2411.2344,56.7641 L2406.5156,56.7641 L2406.5156,59.686 L2411.4844,59.686 L2411.4844,61.686 L2404.2813,61.686 Z " fill="#000000"/><text fill="#000000" font-family="sans-serif" font-size="16" lengthAdjust="spacing" textLength="97" x="2441.5" y="61.894">ContentType</text><line style="stroke:#181818;stroke-width:0.5;" x1="2393.5" x2="2560.5" y1="91.582" y2="91.582"/><line style="stroke:#181818;stroke-width:0.5;" x1="2393.5" x2="2560.5" y1="99.582" y2="99.582"/></g><!--class CI--><g id="elem_CI"><rect codeLine="33" fill="#F1F1F1" height="87.792" id="CI" rx="3" ry="3" style="stroke:#181818;stroke-width:0.5;" width="181" x="2761.5" y="19.79"/><ellipse cx="2776.5" cy="55.686" fill="#ADD1B2" rx="11" ry="11" style="stroke:#181818;stroke-width:1.0;"/><path d="M2773.2813,61.686 L2773.2813,50.2641 L2780.4844,50.2641 L2780.4844,52.2641 L2775.5156,52.2641 L2775.5156,54.7641 L2780.2344,54.7641 L2780.2344,56.7641 L2775.5156,56.7641 L2775.5156,59.686 L2780.4844,59.686 L2780.4844,61.686 L2773.2813,61.686 Z " fill="#000000"/><text fill="#000000" font-family="sans-serif" font-size="16" lengthAdjust="spacing" textLength="109" x="2810.5" y="61.894">ContentImage</text><line style="stroke:#181818;stroke-width:0.5;" x1="2762.5" x2="2941.5" y1="91.582" y2="91.582"/><line style="stroke:#181818;stroke-width:0.5;" x1="2762.5" x2="2941.5" y1="99.582" y2="99.582"/></g><!--class CTag--><g id="elem_CTag"><rect codeLine="34" fill="#F1F1F1" height="87.792" id="CTag" rx="3" ry="3" style="stroke:#181818;stroke-width:0.5;" width="161" x="3142.5" y="19.79"/><ellipse cx="3157.5" cy="55.686" fill="#ADD1B2" rx="11" ry="11" style="stroke:#181818;stroke-width:1.0;"/><path d="M3154.2813,61.686 L3154.2813,50.2641 L3161.4844,50.2641 L3161.4844,52.2641 L3156.5156,52.2641 L3156.5156,54.7641 L3161.2344,54.7641 L3161.2344,56.7641 L3156.5156,56.7641 L3156.5156,59.686 L3161.4844,59.686 L3161.4844,61.686 L3154.2813,61.686 Z " fill="#000000"/><text fill="#000000" font-family="sans-serif" font-size="16" lengthAdjust="spacing" textLength="89" x="3191.5" y="61.894">ContentTag</text><line style="stroke:#181818;stroke-width:0.5;" x1="3143.5" x2="3302.5" y1="91.582" y2="91.582"/><line style="stroke:#181818;stroke-width:0.5;" x1="3143.5" x2="3302.5" y1="99.582" y2="99.582"/></g><g id="elem_GMN22"><path d="M763,412.17 L763,543.3382 A3,3 0 0 0 766,546.3382 L1410,546.3382 A3,3 0 0 0 1413,543.3382 L1413,482.13 L1613.25,478.13 L1413,474.13 L1413,419.17 L1403,409.17 L766,409.17 A3,3 0 0 0 763,412.17 " fill="#FEFFDD" style="stroke:#181818;stroke-width:0.5;"/><path d="M1403,409.17 L1403,417.67 A1.5,1.5 0 0 0 1404.5,419.17 L1413,419.17 L1403,409.17 " fill="#FEFFDD" style="stroke:#181818;stroke-width:0.5;"/><text fill="#000000" font-family="sans-serif" font-size="16" lengthAdjust="spacing" textLength="340" x="789" y="451.274">O relacionamento com "Class" &#233; N:N porque:</text><text fill="#000000" font-family="sans-serif" font-size="16" lengthAdjust="spacing" textLength="551" x="789" y="473.0661">- Uma turma pode utilizar v&#225;rias cole&#231;&#245;es (provas, atividades, simulados)</text><text fill="#000000" font-family="sans-serif" font-size="16" lengthAdjust="spacing" textLength="372" x="789" y="494.8581">- Uma cole&#231;&#227;o pode ser atribu&#237;da a v&#225;rias turmas</text><text fill="#000000" font-family="sans-serif" font-size="16" lengthAdjust="spacing" textLength="589" x="789" y="516.6502">- Algumas cole&#231;&#245;es podem ser p&#250;blicas e reutilizadas entre diferentes turmas</text></g><g id="elem_GMN30"><path d="M692.5,9 L692.5,118.3761 A3,3 0 0 0 695.5,121.3761 L964,121.3761 L968,221.07 L972,121.3761 L1240.5,121.3761 A3,3 0 0 0 1243.5,118.3761 L1243.5,16 L1233.5,6 L695.5,6 A3,3 0 0 0 692.5,9 " fill="#FEFFDD" style="stroke:#181818;stroke-width:0.5;"/><path d="M1233.5,6 L1233.5,14.5 A1.5,1.5 0 0 0 1235,16 L1243.5,16 L1233.5,6 " fill="#FEFFDD" style="stroke:#181818;stroke-width:0.5;"/><text fill="#000000" font-family="sans-serif" font-size="16" lengthAdjust="spacing" textLength="188" x="718.5" y="48.104">Armazenado apenas em:</text><text fill="#000000" font-family="sans-serif" font-size="16" lengthAdjust="spacing" textLength="490" x="718.5" y="69.8961">- Simulados especiais da plataforma(eventos, campeonados, etc)</text><text fill="#000000" font-family="sans-serif" font-size="16" lengthAdjust="spacing" textLength="377" x="718.5" y="91.6881">- Atividades de turma para avalia&#231;&#227;o do professor</text></g><!--link Subject to Content--><g id="link_Subject_Content"><path codeLine="36" d="M2192.28,64.13 C2239.52,64.13 2295.5,64.13 2295.5,64.13 C2295.5,64.13 2295.5,265.13 2295.5,265.13 C2295.5,265.13 2367.63,265.13 2424.27,265.13 " fill="none" id="Subject-Content" style="stroke:#181818;stroke-width:1.0;"/><text fill="#000000" font-family="sans-serif" font-size="14" lengthAdjust="spacing" textLength="8" x="2219.8666" y="37.6019">1</text><text fill="#000000" font-family="sans-serif" font-size="14" lengthAdjust="spacing" textLength="11" x="2385.6322" y="238.6437">N</text></g><!--link Subject to ST--><g id="link_Subject_ST"><path codeLine="37" d="M2149.33,107.93 C2149.33,141.54 2149.33,187.55 2149.33,221.14 " fill="none" id="Subject-ST" style="stroke:#181818;stroke-width:1.0;"/><text fill="#000000" font-family="sans-serif" font-size="14" lengthAdjust="spacing" textLength="8" x="2174.0047" y="150.5043">1</text><text fill="#000000" font-family="sans-serif" font-size="14" lengthAdjust="spacing" textLength="11" x="2119.4052" y="189.0557">N</text></g><!--link Topic to ST--><g id="link_Topic_ST"><path codeLine="38" d="M1847.5,107.9 C1847.5,167.19 1847.5,265.13 1847.5,265.13 C1847.5,265.13 1951.28,265.13 2029.31,265.13 " fill="none" id="Topic-ST" style="stroke:#181818;stroke-width:1.0;"/><text fill="#000000" font-family="sans-serif" font-size="14" lengthAdjust="spacing" textLength="8" x="1821.0984" y="150.4712">1</text><text fill="#000000" font-family="sans-serif" font-size="14" lengthAdjust="spacing" textLength="11" x="1990.5623" y="239.0138">N</text></g><!--link Subject to Class--><g id="link_Subject_Class"><path codeLine="40" d="M2106.67,107.95 C2106.67,111.72 2106.67,114.13 2106.67,114.13 C2106.67,114.13 1764.5,114.13 1764.5,114.13 C1764.5,114.13 1764.5,176.54 1764.5,221.15 " fill="none" id="Subject-Class" style="stroke:#181818;stroke-width:1.0;"/><text fill="#000000" font-family="sans-serif" font-size="14" lengthAdjust="spacing" textLength="8" x="2073.9953" y="150.5263">1</text><text fill="#000000" font-family="sans-serif" font-size="14" lengthAdjust="spacing" textLength="11" x="1735.3594" y="189.0668">N</text></g><!--link User to Class--><g id="link_User_Class"><path codeLine="41" d="M1552.34,64.13 C1614.86,64.13 1709,64.13 1709,64.13 C1709,64.13 1709,161.92 1709,221.13 " fill="none" id="User-Class" style="stroke:#181818;stroke-width:1.0;"/><text fill="#000000" font-family="sans-serif" font-size="14" lengthAdjust="spacing" textLength="11" x="1579.9498" y="37.3298">N</text><text fill="#000000" font-family="sans-serif" font-size="14" lengthAdjust="spacing" textLength="11" x="1674.0297" y="189.5047">N</text></g><!--link Class to QC--><g id="link_Class_QC"><path codeLine="44" d="M1722,309.56 C1722,345.92 1722,397.18 1722,433.53 " fill="none" id="Class-QC" style="stroke:#181818;stroke-width:1.0;"/><text fill="#000000" font-family="sans-serif" font-size="14" lengthAdjust="spacing" textLength="11" x="1688.3703" y="352.1384">N</text><text fill="#000000" font-family="sans-serif" font-size="14" lengthAdjust="spacing" textLength="11" x="1688.3703" y="401.8964">N</text></g><!--link QC to QCP--><g id="link_QC_QCP"><path codeLine="53" d="M1722,522.02 C1722,584.26 1722,690.13 1722,690.13 C1722,690.13 1404.02,690.13 1219.87,690.13 " fill="none" id="QC-QCP" style="stroke:#181818;stroke-width:1.0;"/><text fill="#000000" font-family="sans-serif" font-size="14" lengthAdjust="spacing" textLength="8" x="1691.525" y="564.5963">1</text><text fill="#000000" font-family="sans-serif" font-size="14" lengthAdjust="spacing" textLength="11" x="1247.2989" y="664.6635">N</text></g><!--link Question to QCP--><g id="link_Question_QCP"><path codeLine="54" d="M421,107.74 C421,250.33 421,690.13 421,690.13 C421,690.13 769.53,690.13 964.21,690.13 " fill="none" id="Question-QCP" style="stroke:#181818;stroke-width:1.0;"/><text fill="#000000" font-family="sans-serif" font-size="14" lengthAdjust="spacing" textLength="8" x="443.625" y="150.7546">1</text><text fill="#000000" font-family="sans-serif" font-size="14" lengthAdjust="spacing" textLength="11" x="925.306" y="664.5711">N</text></g><!--link Question to Alternative--><g id="link_Question_Alternative"><path codeLine="56" d="M385.5,108.01 C385.5,171.33 385.5,280.13 385.5,280.13 C385.5,280.13 250.58,280.13 161.25,280.13 " fill="none" id="Question-Alternative" style="stroke:#181818;stroke-width:1.0;"/><text fill="#000000" font-family="sans-serif" font-size="14" lengthAdjust="spacing" textLength="8" x="351.3641" y="150.5925">1</text><text fill="#000000" font-family="sans-serif" font-size="14" lengthAdjust="spacing" textLength="11" x="189.1168" y="254.9772">N</text></g><!--link Question to QAns--><g id="link_Question_QAns"><path codeLine="58" d="M456.5,107.64 C456.5,163.04 456.5,251.13 456.5,251.13 C456.5,251.13 719.31,251.13 868.16,251.13 " fill="none" id="Question-QAns" style="stroke:#181818;stroke-width:1.0;"/><text fill="#000000" font-family="sans-serif" font-size="14" lengthAdjust="spacing" textLength="8" x="483.0078" y="150.6437">1</text><text fill="#000000" font-family="sans-serif" font-size="14" lengthAdjust="spacing" textLength="11" x="829.5221" y="224.4383">N</text></g><!--link User to QAns--><g id="link_User_QAns"><path codeLine="59" d="M1498,107.9 C1498,167.19 1498,265.13 1498,265.13 C1498,265.13 1221.22,265.13 1067.69,265.13 " fill="none" id="User-QAns" style="stroke:#181818;stroke-width:1.0;"/><text fill="#000000" font-family="sans-serif" font-size="14" lengthAdjust="spacing" textLength="8" x="1467.525" y="150.4712">1</text><text fill="#000000" font-family="sans-serif" font-size="14" lengthAdjust="spacing" textLength="11" x="1095.3188" y="239.2914">N</text></g><!--link CT to Content--><g id="link_CT_Content"><path codeLine="67" d="M2491,107.93 C2491,141.54 2491,187.55 2491,221.14 " fill="none" id="CT-Content" style="stroke:#181818;stroke-width:1.0;"/><text fill="#000000" font-family="sans-serif" font-size="14" lengthAdjust="spacing" textLength="8" x="2461.9688" y="150.5043">1</text><text fill="#000000" font-family="sans-serif" font-size="14" lengthAdjust="spacing" textLength="11" x="2513.7891" y="189.0557">N</text></g><!--link CI to Content--><g id="link_CI_Content"><path codeLine="68" d="M2852,107.64 C2852,163.04 2852,251.13 2852,251.13 C2852,251.13 2661.94,251.13 2557.63,251.13 " fill="none" id="CI-Content" style="stroke:#181818;stroke-width:1.0;"/><text fill="#000000" font-family="sans-serif" font-size="14" lengthAdjust="spacing" textLength="11" x="2818.2109" y="150.6437">N</text><text fill="#000000" font-family="sans-serif" font-size="14" lengthAdjust="spacing" textLength="11" x="2585.5474" y="223.348">N</text></g><!--link CTag to Content--><g id="link_CTag_Content"><path codeLine="69" d="M3223,108.01 C3223,171.33 3223,280.13 3223,280.13 C3223,280.13 2738.6,280.13 2557.9,280.13 " fill="none" id="CTag-Content" style="stroke:#181818;stroke-width:1.0;"/><text fill="#000000" font-family="sans-serif" font-size="14" lengthAdjust="spacing" textLength="11" x="3189.3703" y="150.5925">N</text><text fill="#000000" font-family="sans-serif" font-size="14" lengthAdjust="spacing" textLength="11" x="2585.5519" y="318.7718">N</text></g><!--SRC=[VLIzRjim4Dxr50TtIO44YDCWHRCv0W9uIMFOUO2pT79OKpoLf1maRrDqA3fqxDBLBzOZ9IkAfNQnZ_VT7x_lABTLfaAB9UHKOAtzBHk_L2y4qwl4TI0Ph_ppE3QpbfzUeSj1sWrcsutbskGfQxRmRdfpSVdXV1Z7DYVRndowlVcOVln7pEfHPLj3pi55Bq8hG-E8UyISdvJPG87QKG-9OsLi3LcuEghbdoi2jlwHUq25UHuANGpdlpz0_TQ6St9KINm_mQBP1k_qZJVJwDpCUwlMjQTvnYPIUfuadYlm36lsdaKgPIdpYasID9rXyk38JW0T1AFpBklr5ucCG6jts8ehbKKaMiSvh_1orM6fg2nsTBVsAnQ6Rv1WTVv5JIxCAhhgPkeOj4W74Os_FNJeJ7ko1htQKGpedV_JurxjsBUDxWTnC-EUMhuMOYV75ro9yirL1dUVbxXfiVaW3JTj5cwIf2KI9jC9d9t1v6xISJO22SkHyYFVQ9N8Rn0w7ljUI9AaCNh88XMtOK-WgV30HI0Vu3DOqfW97LZAK0oPhDP1nlrFkBk-Wuhjrvgk9VeC7ae4NrlvhMIdeVPAgnUqiDj_iqfkdR6c_O_zRt9mKbdUeJk589FAKPx0AJXLrbhUeNlVbMjJldDJCjm8u_RlV-K8s9MERLrCc-bDNRxj5dBBc5pj_woroWGckLmxOHwEnbkITrEG5PEwYcHo2CmaYP3KepWipM5PZlsZG7yhnpF3dZMQ7JaRQS8B3ye43yWtjSGNCi8MO2N_SeEoKM5vO178LPGfL0w4gqgZnu8bxOHsGKqXFCEo8Wv5v40-QtYVTPB89_yWg7n-07Ue5JPoI5-Hi93lADiUIUbgR9lJ-PizF7Zb4Opv_m80]--></g></svg>