<?xml version="1.0" encoding="us-ascii" standalone="no"?><svg xmlns="http://www.w3.org/2000/svg" xmlns:xlink="http://www.w3.org/1999/xlink" contentStyleType="text/css" height="409px" preserveAspectRatio="none" style="width:781px;height:409px;background:#FFFFFF;" version="1.1" viewBox="0 0 781 409" width="781px" zoomAndPan="magnify"><defs/><g><!--cluster Plataforma mesominds--><g id="cluster_Plataforma mesominds"><rect fill="none" height="396" rx="2.5" ry="2.5" style="stroke:#444444;stroke-width:1.0;" width="542.52" x="233" y="7"/><text fill="#000000" font-family="sans-serif" font-size="14" font-weight="bold" lengthAdjust="spacing" textLength="162" x="423.26" y="23.9659">Plataforma mesominds</text></g><g id="elem_UC_Main"><ellipse cx="343.711" cy="224.0022" fill="#FEFEFE" rx="94.711" ry="21.3422" style="stroke:#555555;stroke-width:0.5;"/><text fill="#000000" font-family="sans-serif" font-size="14" lengthAdjust="spacing" textLength="142" x="269.711" y="228.7352">Gerenciar Conte&#250;dos</text></g><g id="elem_UC_Create"><ellipse cx="651.4712" cy="368.9982" fill="#FEFEFE" rx="79.4912" ry="18.2982" style="stroke:#555555;stroke-width:0.5;"/><text fill="#000000" font-family="sans-serif" font-size="14" lengthAdjust="spacing" textLength="102" x="597.4712" y="373.7312">Criar Conte&#250;do</text></g><g id="elem_UC_Edit"><ellipse cx="651.471" cy="297.0002" fill="#FEFEFE" rx="82.001" ry="18.8002" style="stroke:#555555;stroke-width:0.5;"/><text fill="#000000" font-family="sans-serif" font-size="14" lengthAdjust="spacing" textLength="109" x="593.971" y="301.7332">Editar Conte&#250;do</text></g><g id="elem_UC_Delete"><ellipse cx="651.4741" cy="223.9968" fill="#FEFEFE" rx="85.3341" ry="19.4668" style="stroke:#555555;stroke-width:0.5;"/><text fill="#000000" font-family="sans-serif" font-size="14" lengthAdjust="spacing" textLength="118" x="589.4741" y="228.7298">Deletar Conte&#250;do</text></g><g id="elem_UC_View"><ellipse cx="651.475" cy="149.003" fill="#FEFEFE" rx="91.515" ry="20.703" style="stroke:#555555;stroke-width:0.5;"/><text fill="#000000" font-family="sans-serif" font-size="14" lengthAdjust="spacing" textLength="134" x="581.475" y="153.736">Visualizar Conte&#250;do</text></g><g id="elem_UC_Update_Status"><ellipse cx="651.4671" cy="68.9994" fill="#FEFEFE" rx="108.0471" ry="24.0094" style="stroke:#555555;stroke-width:0.5;"/><text fill="#000000" font-family="sans-serif" font-size="14" lengthAdjust="spacing" textLength="174" x="561.4671" y="73.7324">Atualizar status Conte&#250;do</text></g><!--entity Admin--><g id="elem_Admin"><ellipse cx="164" cy="192.97" fill="#F1F1F1" rx="8" ry="8" style="stroke:#181818;stroke-width:0.5;"/><path d="M164,200.97 L164,227.97 M151,208.97 L177,208.97 M164,227.97 L151,242.97 M164,227.97 L177,242.97 " fill="none" style="stroke:#181818;stroke-width:0.5;"/><text fill="#000000" font-family="sans-serif" font-size="14" lengthAdjust="spacing" textLength="44" x="142" y="259.4359">Admin</text></g><!--entity Mod--><g id="elem_Mod"><ellipse cx="43.5" cy="135.97" fill="#F1F1F1" rx="8" ry="8" style="stroke:#181818;stroke-width:0.5;"/><path d="M43.5,143.97 L43.5,170.97 M30.5,151.97 L56.5,151.97 M43.5,170.97 L30.5,185.97 M43.5,170.97 L56.5,185.97 " fill="none" style="stroke:#181818;stroke-width:0.5;"/><text fill="#000000" font-family="sans-serif" font-size="14" lengthAdjust="spacing" textLength="75" x="6" y="202.4359">Moderador</text></g><!--entity Op--><g id="elem_Op"><ellipse cx="43.5" cy="249.97" fill="#F1F1F1" rx="8" ry="8" style="stroke:#181818;stroke-width:0.5;"/><path d="M43.5,257.97 L43.5,284.97 M30.5,265.97 L56.5,265.97 M43.5,284.97 L30.5,299.97 M43.5,284.97 L56.5,299.97 " fill="none" style="stroke:#181818;stroke-width:0.5;"/><text fill="#000000" font-family="sans-serif" font-size="14" lengthAdjust="spacing" textLength="65" x="11" y="316.4359">Operador</text></g><!--link Mod to Admin--><g id="link_Mod_Admin"><path d="M81.34,184.72 C101.18,194.27 108.7265,197.9027 125.4965,205.9627 " fill="none" id="Mod-to-Admin" style="stroke:#181818;stroke-width:1.0;"/><polygon fill="none" points="141.72,213.76,128.0956,200.5548,122.8974,211.3705,141.72,213.76" style="stroke:#181818;stroke-width:1.0;"/></g><!--link Op to Admin--><g id="link_Op_Admin"><path d="M76.26,265.73 C96.96,255.77 107.2011,250.8468 125.4211,242.0768 " fill="none" id="Op-to-Admin" style="stroke:#181818;stroke-width:1.0;"/><polygon fill="none" points="141.64,234.27,122.8188,236.6705,128.0233,247.4831,141.64,234.27" style="stroke:#181818;stroke-width:1.0;"/></g><!--reverse link UC_Main to UC_Create--><g id="link_UC_Main_UC_Create"><path d="M382.6816,247.4892 C421.3516,270.9192 482.88,306.46 543.42,333 C561.92,341.11 582.86,348.52 601.29,354.48 " fill="none" id="UC_Main-backto-UC_Create" style="stroke:#181818;stroke-width:1.0;stroke-dasharray:7.0,7.0;"/><polygon fill="#181818" points="377.55,244.38,383.1745,252.4648,381.8263,246.971,387.3201,245.6227,377.55,244.38" style="stroke:#181818;stroke-width:1.0;"/><text fill="#000000" font-family="sans-serif" font-size="13" lengthAdjust="spacing" textLength="43" x="469.42" y="293.357">include</text></g><!--reverse link UC_Main to UC_Edit--><g id="link_UC_Main_UC_Edit"><path d="M415.766,240.9631 C470.226,253.9631 541.26,270.93 593.33,283.36 " fill="none" id="UC_Main-backto-UC_Edit" style="stroke:#181818;stroke-width:1.0;stroke-dasharray:7.0,7.0;"/><polygon fill="#181818" points="409.93,239.57,417.7553,245.5503,414.7934,240.7309,419.6128,237.769,409.93,239.57" style="stroke:#181818;stroke-width:1.0;"/><text fill="#000000" font-family="sans-serif" font-size="13" lengthAdjust="spacing" textLength="43" x="469.42" y="249.857">include</text></g><!--reverse link UC_Main to UC_Delete--><g id="link_UC_Main_UC_Delete"><path d="M444.53,224 C485.08,224 526.18,224 565.67,224 " fill="none" id="UC_Main-backto-UC_Delete" style="stroke:#181818;stroke-width:1.0;stroke-dasharray:7.0,7.0;"/><polygon fill="#181818" points="438.53,224,447.53,228,443.53,224,447.53,220,438.53,224" style="stroke:#181818;stroke-width:1.0;"/><text fill="#000000" font-family="sans-serif" font-size="13" lengthAdjust="spacing" textLength="43" x="469.42" y="219.897">include</text></g><!--reverse link UC_Main to UC_View--><g id="link_UC_Main_UC_View"><path d="M415.0072,206.7603 C467.7472,193.8203 536.04,177.07 588.18,164.28 " fill="none" id="UC_Main-backto-UC_View" style="stroke:#181818;stroke-width:1.0;stroke-dasharray:7.0,7.0;"/><polygon fill="#181818" points="409.18,208.19,418.8739,209.9302,414.036,206.9986,416.9676,202.1606,409.18,208.19" style="stroke:#181818;stroke-width:1.0;"/><text fill="#000000" font-family="sans-serif" font-size="13" lengthAdjust="spacing" textLength="43" x="469.42" y="180.147">include</text></g><!--reverse link UC_Main to UC_Update_Status--><g id="link_UC_Main_UC_Update_Status"><path d="M382.0981,200.5825 C420.7881,176.7425 482.9,139.9 543.42,111 C559.37,103.39 577.08,96.02 593.43,89.63 " fill="none" id="UC_Main-backto-UC_Update_Status" style="stroke:#181818;stroke-width:1.0;stroke-dasharray:7.0,7.0;"/><polygon fill="#181818" points="376.99,203.73,386.7506,202.4141,381.2468,201.1071,382.5538,195.6033,376.99,203.73" style="stroke:#181818;stroke-width:1.0;"/><text fill="#000000" font-family="sans-serif" font-size="13" lengthAdjust="spacing" textLength="43" x="469.42" y="123.597">include</text></g><!--link Admin to UC_Main--><g id="link_Admin_UC_Main"><path d="M186.44,224 C202.31,224 219.16,224 242.5,224 " fill="none" id="Admin-to-UC_Main" style="stroke:#181818;stroke-width:1.0;"/><polygon fill="#181818" points="248.5,224,239.5,220,243.5,224,239.5,228,248.5,224" style="stroke:#181818;stroke-width:1.0;"/></g><!--SRC=[VPBBRiCW44NtVCN8NIUhP5DLaLBtiOfIAKgsqHGcAJ862x2gldwis_vO0Tk9tLen6pFtp707Hj71WpTWvV75Wv2Mk9T6CrT8NQ754f1xOpV-JH4uBtdHasf771t11uFmtI8lZjRKMkH66GjN1ughqOmLPDluV3vdNxqoyKpKHtKgr8TdiraAFXZj6nVFHecGpv8no9QYb3e3T93-kl3AX1eeZ4rIs7N2kkh5rnLZGOF9v7FHvg-h_ewTpMLF2ZqUZ2qHId8coC9bhUVkAh97igIvH0jvS4m_tyAuTDGstwymLXpWkHsW7PbRGaz3z5v8FyR6-92y8qMZQ1B-bDr9LwEIxsFyJjBha5xw3dOUVUt-vsmh4QplDqbkkcrRXvlfzDmSN8FKNDM2nfZOr6MYwUKo4_rV9WPkUsWSi3G1OHWMfxVx1G00]--></g></svg>