<?xml version="1.0" encoding="us-ascii" standalone="no"?><svg xmlns="http://www.w3.org/2000/svg" xmlns:xlink="http://www.w3.org/1999/xlink" contentStyleType="text/css" height="593px" preserveAspectRatio="none" style="width:1243px;height:593px;background:#FFFFFF;" version="1.1" viewBox="0 0 1243 593" width="1243px" zoomAndPan="magnify"><defs/><g><rect fill="#FFFFFF" height="381.7481" style="stroke:#181818;stroke-width:1.0;" width="10" x="415" y="117.7739"/><rect fill="#FFFFFF" height="260.924" style="stroke:#181818;stroke-width:1.0;" width="10" x="892" y="239.598"/><rect fill="#FFFFFF" height="31.706" style="stroke:#181818;stroke-width:1.0;" width="10" x="1088" y="309.01"/><rect fill="#FFFFFF" height="31.706" style="stroke:#181818;stroke-width:1.0;" width="10" x="1180" y="149.4799"/><rect fill="none" height="296.336" style="stroke:#000000;stroke-width:1.5;" width="1123" x="10" y="196.186"/><line style="stroke:#181818;stroke-width:0.5;stroke-dasharray:5.0,5.0;" x1="77" x2="77" y1="84.0679" y2="509.522"/><line style="stroke:#181818;stroke-width:0.5;stroke-dasharray:5.0,5.0;" x1="420" x2="420" y1="84.0679" y2="509.522"/><line style="stroke:#181818;stroke-width:0.5;stroke-dasharray:5.0,5.0;" x1="896.5" x2="896.5" y1="84.0679" y2="509.522"/><line style="stroke:#181818;stroke-width:0.5;stroke-dasharray:5.0,5.0;" x1="1093" x2="1093" y1="84.0679" y2="509.522"/><line style="stroke:#181818;stroke-width:0.5;stroke-dasharray:5.0,5.0;" x1="1185" x2="1185" y1="84.0679" y2="509.522"/><text fill="#000000" font-family="sans-serif" font-size="14" lengthAdjust="spacing" textLength="108" x="20" y="79.9659">Usu&#225;rio (Admin)</text><ellipse cx="77" cy="13.5" fill="#E2E2F0" rx="8" ry="8" style="stroke:#181818;stroke-width:0.5;"/><path d="M77,21.5 L77,48.5 M64,29.5 L90,29.5 M77,48.5 L64,63.5 M77,48.5 L90,63.5 " fill="none" style="stroke:#181818;stroke-width:0.5;"/><text fill="#000000" font-family="sans-serif" font-size="14" lengthAdjust="spacing" textLength="108" x="20" y="523.4879">Usu&#225;rio (Admin)</text><ellipse cx="77" cy="536.0899" fill="#E2E2F0" rx="8" ry="8" style="stroke:#181818;stroke-width:0.5;"/><path d="M77,544.0899 L77,571.0899 M64,552.0899 L90,552.0899 M77,571.0899 L64,586.0899 M77,571.0899 L90,586.0899 " fill="none" style="stroke:#181818;stroke-width:0.5;"/><rect fill="#E2E2F0" height="33.0679" rx="2.5" ry="2.5" style="stroke:#181818;stroke-width:0.5;" width="148" x="346" y="50"/><text fill="#000000" font-family="sans-serif" font-size="14" lengthAdjust="spacing" textLength="134" x="353" y="71.9659">Web App (Frontend)</text><rect fill="#E2E2F0" height="33.0679" rx="2.5" ry="2.5" style="stroke:#181818;stroke-width:0.5;" width="148" x="346" y="508.522"/><text fill="#000000" font-family="sans-serif" font-size="14" lengthAdjust="spacing" textLength="134" x="353" y="530.4879">Web App (Frontend)</text><rect fill="#E2E2F0" height="33.0679" rx="2.5" ry="2.5" style="stroke:#181818;stroke-width:0.5;" width="141" x="826.5" y="50"/><text fill="#000000" font-family="sans-serif" font-size="14" lengthAdjust="spacing" textLength="127" x="833.5" y="71.9659">Auth API (Backend)</text><rect fill="#E2E2F0" height="33.0679" rx="2.5" ry="2.5" style="stroke:#181818;stroke-width:0.5;" width="141" x="826.5" y="508.522"/><text fill="#000000" font-family="sans-serif" font-size="14" lengthAdjust="spacing" textLength="127" x="833.5" y="530.4879">Auth API (Backend)</text><text fill="#000000" font-family="sans-serif" font-size="14" lengthAdjust="spacing" textLength="54" x="1063" y="79.9659">User DB</text><path d="M1075,29 C1075,19 1093,19 1093,19 C1093,19 1111,19 1111,29 L1111,55 C1111,65 1093,65 1093,65 C1093,65 1075,65 1075,55 L1075,29 " fill="#E2E2F0" style="stroke:#181818;stroke-width:1.5;"/><path d="M1075,29 C1075,39 1093,39 1093,39 C1093,39 1111,39 1111,29 " fill="none" style="stroke:#181818;stroke-width:1.5;"/><text fill="#000000" font-family="sans-serif" font-size="14" lengthAdjust="spacing" textLength="54" x="1063" y="523.4879">User DB</text><path d="M1075,537.5899 C1075,527.5899 1093,527.5899 1093,527.5899 C1093,527.5899 1111,527.5899 1111,537.5899 L1111,563.5899 C1111,573.5899 1093,573.5899 1093,573.5899 C1093,573.5899 1075,573.5899 1075,563.5899 L1075,537.5899 " fill="#E2E2F0" style="stroke:#181818;stroke-width:1.5;"/><path d="M1075,537.5899 C1075,547.5899 1093,547.5899 1093,547.5899 C1093,547.5899 1111,547.5899 1111,537.5899 " fill="none" style="stroke:#181818;stroke-width:1.5;"/><rect fill="#E2E2F0" height="33.0679" rx="2.5" ry="2.5" style="stroke:#181818;stroke-width:0.5;" width="104" x="1133" y="50"/><text fill="#000000" font-family="sans-serif" font-size="14" lengthAdjust="spacing" textLength="90" x="1140" y="71.9659">Session Store</text><rect fill="#E2E2F0" height="33.0679" rx="2.5" ry="2.5" style="stroke:#181818;stroke-width:0.5;" width="104" x="1133" y="508.522"/><text fill="#000000" font-family="sans-serif" font-size="14" lengthAdjust="spacing" textLength="90" x="1140" y="530.4879">Session Store</text><rect fill="#FFFFFF" height="381.7481" style="stroke:#181818;stroke-width:1.0;" width="10" x="415" y="117.7739"/><rect fill="#FFFFFF" height="260.924" style="stroke:#181818;stroke-width:1.0;" width="10" x="892" y="239.598"/><rect fill="#FFFFFF" height="31.706" style="stroke:#181818;stroke-width:1.0;" width="10" x="1088" y="309.01"/><rect fill="#FFFFFF" height="31.706" style="stroke:#181818;stroke-width:1.0;" width="10" x="1180" y="149.4799"/><polygon fill="#181818" points="403,113.7739,413,117.7739,403,121.7739,407,117.7739" style="stroke:#181818;stroke-width:1.0;"/><line style="stroke:#181818;stroke-width:1.0;" x1="77" x2="409" y1="117.7739" y2="117.7739"/><text fill="#000000" font-family="sans-serif" font-size="13" lengthAdjust="spacing" textLength="140" x="84" y="111.9649">Abre lista de conte&#250;dos</text><polygon fill="#181818" points="1168,145.4799,1178,149.4799,1168,153.4799,1172,149.4799" style="stroke:#181818;stroke-width:1.0;"/><line style="stroke:#181818;stroke-width:1.0;" x1="425" x2="1174" y1="149.4799" y2="149.4799"/><text fill="#000000" font-family="sans-serif" font-size="13" lengthAdjust="spacing" textLength="132" x="432" y="143.6709">Verifica sess&#227;o (token)</text><polygon fill="#181818" points="436,177.186,426,181.186,436,185.186,432,181.186" style="stroke:#181818;stroke-width:1.0;"/><line style="stroke:#181818;stroke-width:1.0;stroke-dasharray:2.0,2.0;" x1="430" x2="1184" y1="181.186" y2="181.186"/><text fill="#000000" font-family="sans-serif" font-size="13" lengthAdjust="spacing" textLength="304" x="442" y="175.377">Sess&#227;o v&#225;lida + role=[admin, moderador, operador]</text><path d="M10,196.186 L73,196.186 L73,205.892 L63,215.892 L10,215.892 L10,196.186 " fill="#EEEEEE" style="stroke:#000000;stroke-width:1.5;"/><rect fill="none" height="296.336" style="stroke:#000000;stroke-width:1.5;" width="1123" x="10" y="196.186"/><text fill="#000000" font-family="sans-serif" font-size="13" font-weight="bold" lengthAdjust="spacing" textLength="18" x="25" y="211.083">alt</text><text fill="#000000" font-family="sans-serif" font-size="11" font-weight="bold" lengthAdjust="spacing" textLength="68" x="88" y="209.9449">[autorizado]</text><polygon fill="#181818" points="880,235.598,890,239.598,880,243.598,884,239.598" style="stroke:#181818;stroke-width:1.0;"/><line style="stroke:#181818;stroke-width:1.0;" x1="425" x2="886" y1="239.598" y2="239.598"/><text fill="#000000" font-family="sans-serif" font-size="13" lengthAdjust="spacing" textLength="263" x="432" y="233.789">GET /api/conteudo?page=1&amp;size=20 {token}</text><path d="M907,252.598 L907,279.598 L1081,279.598 L1081,262.598 L1071,252.598 L907,252.598 " fill="#FEFFDD" style="stroke:#181818;stroke-width:0.5;"/><path d="M1071,252.598 L1071,262.598 L1081,262.598 L1071,252.598 " fill="#FEFFDD" style="stroke:#181818;stroke-width:0.5;"/><text fill="#000000" font-family="sans-serif" font-size="13" lengthAdjust="spacing" textLength="153" x="913" y="271.495">Backend aplica pagina&#231;&#227;o</text><polygon fill="#181818" points="1076,305.01,1086,309.01,1076,313.01,1080,309.01" style="stroke:#181818;stroke-width:1.0;"/><line style="stroke:#181818;stroke-width:1.0;" x1="902" x2="1082" y1="309.01" y2="309.01"/><text fill="#000000" font-family="sans-serif" font-size="13" lengthAdjust="spacing" textLength="167" x="909" y="303.201">SELECT ... LIMIT 20 OFFSET 0</text><polygon fill="#181818" points="913,336.716,903,340.716,913,344.716,909,340.716" style="stroke:#181818;stroke-width:1.0;"/><line style="stroke:#181818;stroke-width:1.0;stroke-dasharray:2.0,2.0;" x1="907" x2="1092" y1="340.716" y2="340.716"/><text fill="#000000" font-family="sans-serif" font-size="13" lengthAdjust="spacing" textLength="111" x="919" y="334.907">rows + total_count</text><polygon fill="#181818" points="436,368.4221,426,372.4221,436,376.4221,432,372.4221" style="stroke:#181818;stroke-width:1.0;"/><line style="stroke:#181818;stroke-width:1.0;stroke-dasharray:2.0,2.0;" x1="430" x2="891" y1="372.4221" y2="372.4221"/><text fill="#000000" font-family="sans-serif" font-size="13" lengthAdjust="spacing" textLength="443" x="442" y="366.6131">200 OK (items, meta: {page:1, size:20, total:123, next_page:2} / next_cursor)</text><polygon fill="#181818" points="88,400.1281,78,404.1281,88,408.1281,84,404.1281" style="stroke:#181818;stroke-width:1.0;"/><line style="stroke:#181818;stroke-width:1.0;stroke-dasharray:2.0,2.0;" x1="82" x2="414" y1="404.1281" y2="404.1281"/><text fill="#000000" font-family="sans-serif" font-size="13" lengthAdjust="spacing" textLength="265" x="94" y="398.3191">Lista de conte&#250;dos + controles de pagina&#231;&#227;o</text><line style="stroke:#000000;stroke-width:1.0;stroke-dasharray:2.0,2.0;" x1="10" x2="1133" y1="413.1281" y2="413.1281"/><text fill="#000000" font-family="sans-serif" font-size="11" font-weight="bold" lengthAdjust="spacing" textLength="92" x="15" y="424.887">[n&#227;o autorizado]</text><polygon fill="#181818" points="436,448.816,426,452.816,436,456.816,432,452.816" style="stroke:#181818;stroke-width:1.0;"/><line style="stroke:#181818;stroke-width:1.0;stroke-dasharray:2.0,2.0;" x1="430" x2="891" y1="452.816" y2="452.816"/><text fill="#000000" font-family="sans-serif" font-size="13" lengthAdjust="spacing" textLength="133" x="442" y="447.007">401/403 Unauthorized</text><polygon fill="#181818" points="88,480.522,78,484.522,88,488.522,84,484.522" style="stroke:#181818;stroke-width:1.0;"/><line style="stroke:#181818;stroke-width:1.0;stroke-dasharray:2.0,2.0;" x1="82" x2="414" y1="484.522" y2="484.522"/><text fill="#000000" font-family="sans-serif" font-size="13" lengthAdjust="spacing" textLength="314" x="94" y="478.713">Redireciona para /login ou mostra erro de permiss&#227;o</text><!--SRC=[RLB1RjD04BtxAqOve4IuYPFsP2aWXoGe8WX4KZWWL4syqsQ5isljhWjgrO-fEF0FlVh7EhjsseJYasTsPjwRzmPpfmrqpcrLtnkfePk9dLIz3g25y1kLQ9pCPOdAGUSRRI0hI-ZEZLQEb6WgENrSbrLk2zdd1NGdcFzyglFfIA333Lhog6HWEWbFqydnX1LPAxM25VEZKD5ceYZmWfCt7ZQ5R6C82caTWY38FQtwGMWROUxaDJeAx3nnxcXdfF2LZBoKEOBbJFs75tUQUVQUk_PmUo8dUy1Lst5TtnTI8Bm6emiQVqTFAuQT5cHGQ1E3Bfk_7v6W5tCZB1nWnUl96owAWB-MfPSfXVUpDGomb8EmKoNqsnAlQ3nyPUKDZKS9t0RATw7pQNoGs6UKviZ8gwq3VTcERCq0B0k_Ey-J2kk_l4re2Qun_dJ2MywMitThwFVxi5nyNAo10J_DvoicbHmZidC-daw2H0sGqRyi2-Eqm-8YrvLoeUP0XhQhWTnBEqeOv0DqfQETPId9OGgtVkrq68FVEnqbSJCs7OvEOr3qsrs4Wj4T39emhupLflUigAVbpKbX-V9EcAOFl8VMlnoAGWMVgV9c_sFKCUspP3WuIqxXN77PrjUH-1_w5nBIKCxkU-qDmg3G30QwugknZXDaZ0uaoEnaEBE8_OeExuTdFW80]--></g></svg>