<svg xmlns="http://www.w3.org/2000/svg" xmlns:xlink="http://www.w3.org/1999/xlink" contentStyleType="text/css" data-diagram-type="DESCRIPTION" height="889px" preserveAspectRatio="none" style="width:626px;height:889px;background:#FFFFFF;" version="1.1" viewBox="0 0 626 889" width="626px" zoomAndPan="magnify"><defs/><g><!--cluster Sistema Mesominds--><g class="cluster" data-entity="Sistema Mesominds" data-source-line="15" data-uid="ent0009" id="cluster_Sistema Mesominds"><rect fill="none" height="457" rx="2.5" ry="2.5" style="stroke:#181818;stroke-width:1;" width="207" x="319.5" y="426.5"/><text fill="#000000" font-family="sans-serif" font-size="14" font-weight="bold" lengthAdjust="spacing" textLength="157.3975" x="344.3013" y="441.4951">Sistema Mesominds</text></g><!--entity UC1--><g class="entity" data-entity="UC1" data-source-line="16" data-uid="ent0010" id="entity_UC1"><ellipse cx="422.9795" cy="481.3959" fill="#F1F1F1" rx="87.4795" ry="19.8959" style="stroke:#181818;stroke-width:0.5;"/><text fill="#000000" font-family="sans-serif" font-size="14" lengthAdjust="spacing" textLength="148.0117" x="348.9737" y="486.0443">Gerenciar Conte&#250;dos</text></g><!--entity UC2--><g class="entity" data-entity="UC2" data-source-line="17" data-uid="ent0011" id="entity_UC2"><ellipse cx="422.9917" cy="555.5983" fill="#F1F1F1" rx="83.4917" ry="19.0983" style="stroke:#181818;stroke-width:0.5;"/><text fill="#000000" font-family="sans-serif" font-size="14" lengthAdjust="spacing" textLength="138.8379" x="353.5728" y="560.2468">Gerenciar Quest&#245;es</text></g><!--entity UC3--><g class="entity" data-entity="UC3" data-source-line="18" data-uid="ent0012" id="entity_UC3"><ellipse cx="422.8037" cy="629.2607" fill="#F1F1F1" rx="86.8037" ry="19.7607" style="stroke:#181818;stroke-width:0.5;"/><text fill="#000000" font-family="sans-serif" font-size="14" lengthAdjust="spacing" textLength="146.4668" x="349.5703" y="633.9092">Gerenciar Atividades</text></g><!--entity UC4--><g class="entity" data-entity="UC4" data-source-line="19" data-uid="ent0013" id="entity_UC4"><ellipse cx="422.9157" cy="704.6831" fill="#F1F1F1" rx="86.4157" ry="19.6831" style="stroke:#181818;stroke-width:0.5;"/><text fill="#000000" font-family="sans-serif" font-size="14" lengthAdjust="spacing" textLength="145.5781" x="350.1266" y="709.3316">Gerenciar Simulados</text></g><!--entity UC5--><g class="entity" data-entity="UC5" data-source-line="20" data-uid="ent0014" id="entity_UC5"><ellipse cx="423.2333" cy="777.6467" fill="#F1F1F1" rx="81.2333" ry="18.6467" style="stroke:#181818;stroke-width:0.5;"/><text fill="#000000" font-family="sans-serif" font-size="14" lengthAdjust="spacing" textLength="133.5742" x="356.4462" y="782.2951">Gerenciar Usu&#225;rios</text></g><!--entity UC6--><g class="entity" data-entity="UC6" data-source-line="21" data-uid="ent0015" id="entity_UC6"><ellipse cx="422.9286" cy="849.4857" fill="#F1F1F1" rx="77.9286" ry="17.9857" style="stroke:#181818;stroke-width:0.5;"/><text fill="#000000" font-family="sans-serif" font-size="14" lengthAdjust="spacing" textLength="125.7676" x="360.0448" y="854.1342">Gerenciar Turmas</text></g><!--entity AdminUser--><g class="entity" data-entity="AdminUser" data-source-line="4" data-uid="ent0002" id="entity_AdminUser"><ellipse cx="85.8779" cy="489" fill="#F1F1F1" rx="8" ry="8" style="stroke:#181818;stroke-width:0.5;"/><path d="M85.8779,497 L85.8779,524 M72.8779,505 L98.8779,505 M85.8779,524 L72.8779,539 M85.8779,524 L98.8779,539" fill="none" style="stroke:#181818;stroke-width:0.5;"/><text fill="#000000" font-family="sans-serif" font-size="14" lengthAdjust="spacing" textLength="159.7559" x="6" y="553.4951">Usu&#225;rio Administrativo</text></g><!--entity Admin--><g class="entity" data-entity="Admin" data-source-line="5" data-uid="ent0003" id="entity_Admin"><ellipse cx="423.04" cy="14" fill="#F1F1F1" rx="8" ry="8" style="stroke:#181818;stroke-width:0.5;"/><path d="M423.04,22 L423.04,49 M410.04,30 L436.04,30 M423.04,49 L410.04,64 M423.04,49 L436.04,64" fill="none" style="stroke:#181818;stroke-width:0.5;"/><text fill="#000000" font-family="sans-serif" font-size="14" lengthAdjust="spacing" textLength="99.0801" x="373.5" y="78.4951">Administrador</text></g><!--entity Mod--><g class="entity" data-entity="Mod" data-source-line="6" data-uid="ent0004" id="entity_Mod"><ellipse cx="422.8438" cy="125" fill="#F1F1F1" rx="8" ry="8" style="stroke:#181818;stroke-width:0.5;"/><path d="M422.8438,133 L422.8438,160 M409.8438,141 L435.8438,141 M422.8438,160 L409.8438,175 M422.8438,160 L435.8438,175" fill="none" style="stroke:#181818;stroke-width:0.5;"/><text fill="#000000" font-family="sans-serif" font-size="14" lengthAdjust="spacing" textLength="75.6875" x="385" y="189.4951">Moderador</text></g><!--entity Op--><g class="entity" data-entity="Op" data-source-line="7" data-uid="ent0005" id="entity_Op"><ellipse cx="423.0313" cy="236" fill="#F1F1F1" rx="8" ry="8" style="stroke:#181818;stroke-width:0.5;"/><path d="M423.0313,244 L423.0313,271 M410.0313,252 L436.0313,252 M423.0313,271 L410.0313,286 M423.0313,271 L436.0313,286" fill="none" style="stroke:#181818;stroke-width:0.5;"/><text fill="#000000" font-family="sans-serif" font-size="14" lengthAdjust="spacing" textLength="66.0625" x="390" y="300.4951">Operador</text></g><g class="entity" data-entity="GMN22" data-source-line="34" data-uid="ent0023" id="entity_GMN22"><path d="M226,339 L226,409.5313 L619.8486,409.5313 L619.8486,349 L609.8486,339 L226,339" fill="#FEFFDD" style="stroke:#181818;stroke-width:0.5;"/><path d="M609.8486,339 L609.8486,349 L619.8486,349 L609.8486,339" fill="#FEFFDD" style="stroke:#181818;stroke-width:1;"/><text fill="#000000" font-family="sans-serif" font-size="13" lengthAdjust="spacing" textLength="265.8398" x="232" y="356.0669">O ator gen&#233;rico "Usu&#225;rio Administrativo"</text><text fill="#000000" font-family="sans-serif" font-size="13" lengthAdjust="spacing" textLength="353.0884" x="232" y="371.1997">representa todos os pap&#233;is com acesso &#224; &#225;rea Admin.</text><text fill="#000000" font-family="sans-serif" font-size="13" lengthAdjust="spacing" textLength="372.8486" x="232" y="386.3325">Pap&#233;is espec&#237;ficos (Administrador, Moderador, Operador)</text><text fill="#000000" font-family="sans-serif" font-size="13" lengthAdjust="spacing" textLength="349.2607" x="232" y="401.4653">herdam suas permiss&#245;es conforme o n&#237;vel de acesso.</text></g><!--reverse link AdminUser to Admin--><g class="link" data-entity-1="AdminUser" data-entity-2="Admin" data-source-line="10" data-uid="lnk6" id="link_AdminUser_Admin"><path d="M89.2291,462.4194 C93.9291,380.3494 115.74,203.8 226,98.5 C265.74,60.54 329.52,48.41 373.47,44.73" fill="none" id="AdminUser-backto-Admin" style="stroke:#181818;stroke-width:1;"/><polygon fill="none" points="88.2,480.39,95.2193,462.7625,83.239,462.0764,88.2,480.39" style="stroke:#181818;stroke-width:1;"/></g><!--reverse link AdminUser to Mod--><g class="link" data-entity-1="AdminUser" data-entity-2="Mod" data-source-line="11" data-uid="lnk7" id="link_AdminUser_Mod"><path d="M96.872,462.814 C109.822,397.524 141.97,281.85 226,209.5 C271.13,170.65 341.76,159.11 384.78,155.77" fill="none" id="AdminUser-backto-Mod" style="stroke:#181818;stroke-width:1;"/><polygon fill="none" points="93.37,480.47,102.7574,463.9813,90.9867,461.6466,93.37,480.47" style="stroke:#181818;stroke-width:1;"/></g><!--reverse link AdminUser to Op--><g class="link" data-entity-1="AdminUser" data-entity-2="Op" data-source-line="12" data-uid="lnk8" id="link_AdminUser_Op"><path d="M111.9937,464.1278 C133.8937,419.4578 168.15,362.57 226,321.5 C276.07,285.96 348.3,272.87 389.65,268.13" fill="none" id="AdminUser-backto-Op" style="stroke:#181818;stroke-width:1;"/><polygon fill="none" points="104.07,480.29,117.3811,466.7691,106.6063,461.4866,104.07,480.29" style="stroke:#181818;stroke-width:1;"/></g><!--link AdminUser to UC1--><g class="link" data-entity-1="AdminUser" data-entity-2="UC1" data-source-line="25" data-uid="lnk16" id="link_AdminUser_UC1"><path d="M166.39,509.73 C219.99,503.81 284.4462,496.6884 337.7962,490.7984" fill="none" id="AdminUser-to-UC1" style="stroke:#181818;stroke-width:1;"/><polygon fill="#181818" points="343.76,490.14,334.3754,487.1518,338.7902,490.6887,335.2533,495.1035,343.76,490.14" style="stroke:#181818;stroke-width:1;"/></g><!--link AdminUser to UC2--><g class="link" data-entity-1="AdminUser" data-entity-2="UC2" data-source-line="26" data-uid="lnk17" id="link_AdminUser_UC2"><path d="M166.39,527.27 C221.24,533.33 287.7563,540.6712 341.5263,546.6112" fill="none" id="AdminUser-to-UC2" style="stroke:#181818;stroke-width:1;"/><polygon fill="#181818" points="347.49,547.27,338.9836,542.306,342.5202,546.721,338.1052,550.2576,347.49,547.27" style="stroke:#181818;stroke-width:1;"/></g><!--link AdminUser to UC3--><g class="link" data-entity-1="AdminUser" data-entity-2="UC3" data-source-line="27" data-uid="lnk18" id="link_AdminUser_UC3"><path d="M149.94,556.54 C173.18,569.23 200.15,582.43 226,591.5 C264.59,605.05 303.3254,613.2319 340.2554,619.1419" fill="none" id="AdminUser-to-UC3" style="stroke:#181818;stroke-width:1;"/><polygon fill="#181818" points="346.18,620.09,337.9252,614.7181,341.2428,619.2999,336.661,622.6175,346.18,620.09" style="stroke:#181818;stroke-width:1;"/></g><!--link AdminUser to UC4--><g class="link" data-entity-1="AdminUser" data-entity-2="UC4" data-source-line="28" data-uid="lnk19" id="link_AdminUser_UC4"><path d="M112.26,556.78 C137.03,591.1 178.01,640.02 226,666.5 C260.29,685.42 296.5524,694.2488 333.0124,699.0988" fill="none" id="AdminUser-to-UC4" style="stroke:#181818;stroke-width:1;"/><polygon fill="#181818" points="338.96,699.89,330.566,694.7382,334.0037,699.2307,329.5111,702.6683,338.96,699.89" style="stroke:#181818;stroke-width:1;"/></g><!--link AdminUser to UC5--><g class="link" data-entity-1="AdminUser" data-entity-2="UC5" data-source-line="29" data-uid="lnk20" id="link_AdminUser_UC5"><path d="M99.63,556.55 C118.58,607.36 159.43,696.2 226,741.5 C259.75,764.47 298.0555,773.3571 335.9855,776.8671" fill="none" id="AdminUser-to-UC5" style="stroke:#181818;stroke-width:1;"/><polygon fill="#181818" points="341.96,777.42,333.3669,772.6077,336.9813,776.9593,332.6297,780.5737,341.96,777.42" style="stroke:#181818;stroke-width:1;"/></g><!--link AdminUser to UC6--><g class="link" data-entity-1="AdminUser" data-entity-2="UC6" data-source-line="30" data-uid="lnk21" id="link_AdminUser_UC6"><path d="M93.46,556.65 C106.42,620.6 141.88,748.75 226,813.5 C259.58,839.35 299.9244,848.2945 339.1044,851.0145" fill="none" id="AdminUser-to-UC6" style="stroke:#181818;stroke-width:1;"/><polygon fill="#181818" points="345.09,851.43,336.3886,846.8163,340.102,851.0837,335.8346,854.7971,345.09,851.43" style="stroke:#181818;stroke-width:1;"/></g><!--link AdminUser to GMN22--><g class="link" data-entity-1="AdminUser" data-entity-2="GMN22" data-source-line="34" data-uid="lnk24" id="link_AdminUser_GMN22"><path d="M155.02,480.41 C177.33,468.57 202.43,455.9 226,445.5 C254.64,432.86 286.3,420.66 315.68,410.04" fill="none" id="AdminUser-GMN22" style="stroke:#181818;stroke-width:1;stroke-dasharray:7.0,7.0;"/></g><!--SRC=[TPFFRXCn4CRl-nIZN6YbfXBzTo98KGzme0HKyW23FKajhJqhZxS20Uy2fwg77hbmzOjrTXDdIw9TxS7-_FFCUFovfbM2n13T-Yw1TP5CSXogwXNCPZEO9uuatR12esEOBANDVw9Zc5llWfCKCRbxdW3AHbeAnG8FZEKu86NvXYqDIpeh2ulcXRveIZNlLGtv0O52YWGu5BVB36z-JgVRB7jY5tzF6a9_SDub0iiWMYzvXAElt0QByVjndw5h38PrJJ2vtH8t9ApXh4pWHmNwjK86HObt52aOXn6kEIJA_onBVvRbzUinydDBal9VAk3P63ZNVZkBTaUUZv6tphSr3halni1ogGMy70E_jD5ZeQwgNqFxrfWVkkhthcCwVTiVUbyvEr3E3vIB0-NoGBag5NpafBxurjJET8R4lex0UgSRQ_FgXJq15hrxO4qXFqPdUDpO2aTgr6XgEjIdekq4_HjiygCJCEm13OamvD-W4GWt4KvruwSjHDAGoKyhJIHmzD-hE87TApY1uljZtNj7qQ87QRNNAdidqlVNS5Xnz0GC8J_TKmsMjXMSLXGiT8T-1W00]--></g></svg>