<?xml version="1.0" encoding="us-ascii" standalone="no"?><svg xmlns="http://www.w3.org/2000/svg" xmlns:xlink="http://www.w3.org/1999/xlink" contentStyleType="text/css" height="858px" preserveAspectRatio="none" style="width:484px;height:858px;background:#FFFFFF;" version="1.1" viewBox="0 0 484 858" width="484px" zoomAndPan="magnify"><defs/><g><!--cluster Plataforma Mesominds--><g id="cluster_Plataforma Mesominds"><rect fill="none" height="845" rx="2.5" ry="2.5" style="stroke:#444444;stroke-width:1.0;" width="213.45" x="265" y="7"/><text fill="#000000" font-family="sans-serif" font-size="14" font-weight="bold" lengthAdjust="spacing" textLength="161" x="291.225" y="23.9659">Plataforma Mesominds</text></g><g id="elem_UC3"><ellipse cx="371.7268" cy="64.9974" fill="#FEFEFE" rx="88.3868" ry="20.0774" style="stroke:#555555;stroke-width:0.5;"/><text fill="#000000" font-family="sans-serif" font-size="14" lengthAdjust="spacing" textLength="126" x="305.7268" y="69.7303">Remover conte&#250;do</text></g><g id="elem_UC4"><ellipse cx="371.7328" cy="818.0026" fill="#FEFEFE" rx="75.7128" ry="17.5426" style="stroke:#555555;stroke-width:0.5;"/><text fill="#000000" font-family="sans-serif" font-size="14" lengthAdjust="spacing" textLength="91" x="323.2328" y="822.7355">Alterar status</text></g><g id="elem_UC1"><ellipse cx="371.7285" cy="631.9977" fill="#FEFEFE" rx="78.7885" ry="18.1577" style="stroke:#555555;stroke-width:0.5;"/><text fill="#000000" font-family="sans-serif" font-size="14" lengthAdjust="spacing" textLength="100" x="318.7285" y="636.7307">Criar conte&#250;do</text></g><g id="elem_UC2"><ellipse cx="371.7261" cy="444.9952" fill="#FEFEFE" rx="81.2761" ry="18.6552" style="stroke:#555555;stroke-width:0.5;"/><text fill="#000000" font-family="sans-serif" font-size="14" lengthAdjust="spacing" textLength="107" x="315.2261" y="449.7282">Editar conte&#250;do</text></g><g id="elem_UC6"><ellipse cx="371.7263" cy="255.9953" fill="#FEFEFE" rx="90.7263" ry="20.5453" style="stroke:#555555;stroke-width:0.5;"/><text fill="#000000" font-family="sans-serif" font-size="14" lengthAdjust="spacing" textLength="132" x="302.7263" y="260.7282">Visualizar conte&#250;do</text></g><!--entity Admin--><g id="elem_Admin"><ellipse cx="43.5" cy="224.97" fill="#F1F1F1" rx="8" ry="8" style="stroke:#181818;stroke-width:0.5;"/><path d="M43.5,232.97 L43.5,259.97 M30.5,240.97 L56.5,240.97 M43.5,259.97 L30.5,274.97 M43.5,259.97 L56.5,274.97 " fill="none" style="stroke:#181818;stroke-width:0.5;"/><text fill="#000000" font-family="sans-serif" font-size="14" lengthAdjust="spacing" textLength="44" x="21.5" y="291.4359">Admin</text></g><!--entity Mod--><g id="elem_Mod"><ellipse cx="43.5" cy="453.97" fill="#F1F1F1" rx="8" ry="8" style="stroke:#181818;stroke-width:0.5;"/><path d="M43.5,461.97 L43.5,488.97 M30.5,469.97 L56.5,469.97 M43.5,488.97 L30.5,503.97 M43.5,488.97 L56.5,503.97 " fill="none" style="stroke:#181818;stroke-width:0.5;"/><text fill="#000000" font-family="sans-serif" font-size="14" lengthAdjust="spacing" textLength="75" x="6" y="520.4359">Moderador</text></g><!--entity Op--><g id="elem_Op"><ellipse cx="43.5" cy="682.97" fill="#F1F1F1" rx="8" ry="8" style="stroke:#181818;stroke-width:0.5;"/><path d="M43.5,690.97 L43.5,717.97 M30.5,698.97 L56.5,698.97 M43.5,717.97 L30.5,732.97 M43.5,717.97 L56.5,732.97 " fill="none" style="stroke:#181818;stroke-width:0.5;"/><text fill="#000000" font-family="sans-serif" font-size="14" lengthAdjust="spacing" textLength="65" x="11" y="749.4359">Operador</text></g><!--link Admin to UC3--><g id="link_Admin_UC3"><path d="M43.45,216.42 C43.45,160.48 43.45,65 43.45,65 C43.45,65 179.67,65 276.89,65 " fill="none" id="Admin-to-UC3" style="stroke:#0066CC;stroke-width:1.0;"/><polygon fill="#0066CC" points="282.89,65,273.89,61,277.89,65,273.89,69,282.89,65" style="stroke:#0066CC;stroke-width:1.0;"/></g><!--link Admin to UC4--><g id="link_Admin_UC4"><path d="M65.96,289.2 C100.19,289.2 161.45,289.2 161.45,289.2 C161.45,289.2 161.45,809.23 161.45,809.23 C161.45,809.23 237.59,809.23 299.19,809.23 " fill="none" id="Admin-to-UC4" style="stroke:#0066CC;stroke-width:1.0;"/><polygon fill="#0066CC" points="305.19,809.23,296.19,805.23,300.19,809.23,296.19,813.23,305.19,809.23" style="stroke:#0066CC;stroke-width:1.0;"/></g><!--link Admin to UC1--><g id="link_Admin_UC1"><path d="M65.8,282.87 C109.34,282.87 201.45,282.87 201.45,282.87 C201.45,282.87 201.45,622.92 201.45,622.92 C201.45,622.92 249.33,622.92 296.47,622.92 " fill="none" id="Admin-to-UC1" style="stroke:#0066CC;stroke-width:1.0;"/><polygon fill="#0066CC" points="302.47,622.92,293.47,618.92,297.47,622.92,293.47,626.92,302.47,622.92" style="stroke:#0066CC;stroke-width:1.0;"/></g><!--link Admin to UC2--><g id="link_Admin_UC2"><path d="M43.45,295.93 C43.45,348.93 43.45,435.91 43.45,435.91 C43.45,435.91 197.5,435.91 294.09,435.91 " fill="none" id="Admin-to-UC2" style="stroke:#0066CC;stroke-width:1.0;"/><polygon fill="#0066CC" points="300.09,435.91,291.09,431.91,295.09,435.91,291.09,439.91,300.09,435.91" style="stroke:#0066CC;stroke-width:1.0;"/></g><!--link Admin to UC6--><g id="link_Admin_UC6"><path d="M65.8,256 C109.23,256 201.33,256 274.81,256 " fill="none" id="Admin-to-UC6" style="stroke:#0066CC;stroke-width:1.0;"/><polygon fill="#0066CC" points="280.81,256,271.81,252,275.81,256,271.81,260,280.81,256" style="stroke:#0066CC;stroke-width:1.0;"/></g><!--link Mod to UC4--><g id="link_Mod_UC4"><path d="M81.11,494.09 C101.04,494.09 121.45,494.09 121.45,494.09 C121.45,494.09 121.45,818 121.45,818 C121.45,818 215.98,818 289.62,818 " fill="none" id="Mod-to-UC4" style="stroke:#00AA00;stroke-width:1.0;"/><polygon fill="#00AA00" points="295.62,818,286.62,814,290.62,818,286.62,822,295.62,818" style="stroke:#00AA00;stroke-width:1.0;"/></g><!--link Mod to UC1--><g id="link_Mod_UC1"><path d="M32.45,524.78 C32.45,568.31 32.45,632 32.45,632 C32.45,632 186.36,632 286.61,632 " fill="none" id="Mod-to-UC1" style="stroke:#00AA00;stroke-width:1.0;"/><polygon fill="#00AA00" points="292.61,632,283.61,628,287.61,632,283.61,636,292.61,632" style="stroke:#00AA00;stroke-width:1.0;"/></g><!--link Mod to UC2--><g id="link_Mod_UC2"><path d="M81.47,454.56 C135.05,454.56 227.79,454.56 295.09,454.56 " fill="none" id="Mod-to-UC2" style="stroke:#00AA00;stroke-width:1.0;"/><polygon fill="#00AA00" points="301.09,454.56,292.09,450.56,296.09,454.56,292.09,458.56,301.09,454.56" style="stroke:#00AA00;stroke-width:1.0;"/></g><!--link Mod to UC6--><g id="link_Mod_UC6"><path d="M81.41,450.01 C149.27,450.01 284.45,450.01 284.45,450.01 C284.45,450.01 284.45,300.77 284.45,268.02 " fill="none" id="Mod-to-UC6" style="stroke:#00AA00;stroke-width:1.0;"/><polygon fill="#00AA00" points="284.45,262.02,280.45,271.02,284.45,267.02,288.45,271.02,284.45,262.02" style="stroke:#00AA00;stroke-width:1.0;"/></g><!--link Op to UC4--><g id="link_Op_UC4"><path d="M43.45,753.76 C43.45,786.23 43.45,826.77 43.45,826.77 C43.45,826.77 203.37,826.77 299.3,826.77 " fill="none" id="Op-to-UC4" style="stroke:#FF8800;stroke-width:1.0;"/><polygon fill="#FF8800" points="305.3,826.77,296.3,822.77,300.3,826.77,296.3,830.77,305.3,826.77" style="stroke:#FF8800;stroke-width:1.0;"/></g><!--link Op to UC1--><g id="link_Op_UC1"><path d="M54.45,674.13 C54.45,657.1 54.45,641.08 54.45,641.08 C54.45,641.08 203.14,641.08 296.49,641.08 " fill="none" id="Op-to-UC1" style="stroke:#FF8800;stroke-width:1.0;"/><polygon fill="#FF8800" points="302.49,641.08,293.49,637.08,297.49,641.08,293.49,645.08,302.49,641.08" style="stroke:#FF8800;stroke-width:1.0;"/></g><!--link Op to UC2--><g id="link_Op_UC2"><path d="M76.19,700.82 C132.41,700.82 241.45,700.82 241.45,700.82 C241.45,700.82 241.45,459.11 241.45,459.11 C241.45,459.11 274.97,459.11 310.48,459.11 " fill="none" id="Op-to-UC2" style="stroke:#FF8800;stroke-width:1.0;"/><polygon fill="#FF8800" points="316.48,459.11,307.48,455.11,311.48,459.11,307.48,463.11,316.48,459.11" style="stroke:#FF8800;stroke-width:1.0;"/></g><!--link Op to UC6--><g id="link_Op_UC6"><path d="M76.4,727.18 C142.99,727.18 287.45,727.18 287.45,727.18 C287.45,727.18 287.45,331.05 287.45,269.79 " fill="none" id="Op-to-UC6" style="stroke:#FF8800;stroke-width:1.0;"/><polygon fill="#FF8800" points="287.45,263.79,283.45,272.79,287.45,268.79,291.45,272.79,287.45,263.79" style="stroke:#FF8800;stroke-width:1.0;"/></g><!--SRC=[RP71ReCm44Jl_eeLEKS22YYdIXGrjoXLg_Q-nIQnC5vacqffrH_hjJzMGnD24iJ5l1bclOCIbGD7OEHkxu1B8qedIJDRIzsYmGQmT6HUt449i4wMzKJgh2ZH2lXY00zOrZj3dUO5AJAmg4J_z0ePBioHfcdAlYSH_JpKEtKCcLgJ9F5eJThzJtydnI- -LL8BTsW5a75xcWYQkB2YXIWDfwDGrpsDmv2nOIi8Sjv87G1Q64udlF411ZcPGV9l9s7RJlYsPUny_-19eSEAJ8Em4PPy7BV1i1QCJGNFeg4FOQ3qQudV7qv3qcjn1vU-N3a_oVZAqNNsQ4gkJ8MHU1iLNRaUkNGpjlZAzYPjXqf-pbWpyBspeI5OBk-7wox2CCkAue8cipIQfV4ipKRAVElJs3ptl-tCeXaMpx1iP6pRdlFMwzNAin55joY-HTc8_W00]--></g></svg>