<?xml version="1.0" encoding="us-ascii" standalone="no"?><svg xmlns="http://www.w3.org/2000/svg" xmlns:xlink="http://www.w3.org/1999/xlink" contentStyleType="text/css" height="790px" preserveAspectRatio="none" style="width:6042px;height:790px;background:#FFFFFF;" version="1.1" viewBox="0 0 6042 790" width="6042px" zoomAndPan="magnify"><defs/><g><!--class User--><g id="elem_User"><rect codeLine="20" fill="#F1F1F1" height="87.792" id="User" rx="3" ry="3" style="stroke:#181818;stroke-width:0.5;" width="108" x="3229" y="19.79"/><ellipse cx="3244" cy="55.686" fill="#ADD1B2" rx="11" ry="11" style="stroke:#181818;stroke-width:1.0;"/><path d="M3240.7813,61.686 L3240.7813,50.2641 L3247.9844,50.2641 L3247.9844,52.2641 L3243.0156,52.2641 L3243.0156,54.7641 L3247.7344,54.7641 L3247.7344,56.7641 L3243.0156,56.7641 L3243.0156,59.686 L3247.9844,59.686 L3247.9844,61.686 L3240.7813,61.686 Z " fill="#000000"/><text fill="#000000" font-family="sans-serif" font-size="16" lengthAdjust="spacing" textLength="36" x="3278" y="61.894">User</text><line style="stroke:#181818;stroke-width:0.5;" x1="3230" x2="3336" y1="91.582" y2="91.582"/><line style="stroke:#181818;stroke-width:0.5;" x1="3230" x2="3336" y1="99.582" y2="99.582"/></g><!--class UserClass--><g id="elem_UserClass"><rect codeLine="21" fill="#F1F1F1" height="87.792" id="UserClass" rx="3" ry="3" style="stroke:#181818;stroke-width:0.5;" width="147" x="3063.5" y="695.71"/><ellipse cx="3078.5" cy="731.606" fill="#ADD1B2" rx="11" ry="11" style="stroke:#181818;stroke-width:1.0;"/><path d="M3075.2813,737.606 L3075.2813,726.1841 L3082.4844,726.1841 L3082.4844,728.1841 L3077.5156,728.1841 L3077.5156,730.6841 L3082.2344,730.6841 L3082.2344,732.6841 L3077.5156,732.6841 L3077.5156,735.606 L3082.4844,735.606 L3082.4844,737.606 L3075.2813,737.606 Z " fill="#000000"/><text fill="#000000" font-family="sans-serif" font-size="16" lengthAdjust="spacing" textLength="75" x="3112.5" y="737.814">UserClass</text><line style="stroke:#181818;stroke-width:0.5;" x1="3064.5" x2="3209.5" y1="767.502" y2="767.502"/><line style="stroke:#181818;stroke-width:0.5;" x1="3064.5" x2="3209.5" y1="775.502" y2="775.502"/></g><!--class Skill--><g id="elem_Skill"><rect codeLine="22" fill="#F1F1F1" height="87.792" id="Skill" rx="3" ry="3" style="stroke:#181818;stroke-width:0.5;" width="102" x="7" y="483.23"/><ellipse cx="22" cy="519.126" fill="#ADD1B2" rx="11" ry="11" style="stroke:#181818;stroke-width:1.0;"/><path d="M18.7813,525.126 L18.7813,513.7041 L25.9844,513.7041 L25.9844,515.7041 L21.0156,515.7041 L21.0156,518.2041 L25.7344,518.2041 L25.7344,520.2041 L21.0156,520.2041 L21.0156,523.126 L25.9844,523.126 L25.9844,525.126 L18.7813,525.126 Z " fill="#000000"/><text fill="#000000" font-family="sans-serif" font-size="16" lengthAdjust="spacing" textLength="30" x="56" y="525.334">Skill</text><line style="stroke:#181818;stroke-width:0.5;" x1="8" x2="108" y1="555.022" y2="555.022"/><line style="stroke:#181818;stroke-width:0.5;" x1="8" x2="108" y1="563.022" y2="563.022"/></g><!--class Discipline--><g id="elem_Discipline"><rect codeLine="23" fill="#F1F1F1" height="87.792" id="Discipline" rx="3" ry="3" style="stroke:#181818;stroke-width:0.5;" width="145" x="292.5" y="246.06"/><ellipse cx="307.5" cy="281.956" fill="#ADD1B2" rx="11" ry="11" style="stroke:#181818;stroke-width:1.0;"/><path d="M304.2813,287.956 L304.2813,276.5341 L311.4844,276.5341 L311.4844,278.5341 L306.5156,278.5341 L306.5156,281.0341 L311.2344,281.0341 L311.2344,283.0341 L306.5156,283.0341 L306.5156,285.956 L311.4844,285.956 L311.4844,287.956 L304.2813,287.956 Z " fill="#000000"/><text fill="#000000" font-family="sans-serif" font-size="16" lengthAdjust="spacing" textLength="73" x="341.5" y="288.164">Discipline</text><line style="stroke:#181818;stroke-width:0.5;" x1="293.5" x2="436.5" y1="317.852" y2="317.852"/><line style="stroke:#181818;stroke-width:0.5;" x1="293.5" x2="436.5" y1="325.852" y2="325.852"/></g><!--class Topic--><g id="elem_Topic"><rect codeLine="24" fill="#F1F1F1" height="87.792" id="Topic" rx="3" ry="3" style="stroke:#181818;stroke-width:0.5;" width="113" x="308.5" y="483.23"/><ellipse cx="323.5" cy="519.126" fill="#ADD1B2" rx="11" ry="11" style="stroke:#181818;stroke-width:1.0;"/><path d="M320.2813,525.126 L320.2813,513.7041 L327.4844,513.7041 L327.4844,515.7041 L322.5156,515.7041 L322.5156,518.2041 L327.2344,518.2041 L327.2344,520.2041 L322.5156,520.2041 L322.5156,523.126 L327.4844,523.126 L327.4844,525.126 L320.2813,525.126 Z " fill="#000000"/><text fill="#000000" font-family="sans-serif" font-size="16" lengthAdjust="spacing" textLength="41" x="357.5" y="525.334">Topic</text><line style="stroke:#181818;stroke-width:0.5;" x1="309.5" x2="420.5" y1="555.022" y2="555.022"/><line style="stroke:#181818;stroke-width:0.5;" x1="309.5" x2="420.5" y1="563.022" y2="563.022"/></g><!--class ST--><g id="elem_ST"><rect codeLine="25" fill="#F1F1F1" height="87.792" id="ST" rx="3" ry="3" style="stroke:#181818;stroke-width:0.5;" width="143" x="140.5" y="695.71"/><ellipse cx="155.5" cy="731.606" fill="#ADD1B2" rx="11" ry="11" style="stroke:#181818;stroke-width:1.0;"/><path d="M152.2813,737.606 L152.2813,726.1841 L159.4844,726.1841 L159.4844,728.1841 L154.5156,728.1841 L154.5156,730.6841 L159.2344,730.6841 L159.2344,732.6841 L154.5156,732.6841 L154.5156,735.606 L159.4844,735.606 L159.4844,737.606 L152.2813,737.606 Z " fill="#000000"/><text fill="#000000" font-family="sans-serif" font-size="16" lengthAdjust="spacing" textLength="71" x="189.5" y="737.814">SkillTopic</text><line style="stroke:#181818;stroke-width:0.5;" x1="141.5" x2="282.5" y1="767.502" y2="767.502"/><line style="stroke:#181818;stroke-width:0.5;" x1="141.5" x2="282.5" y1="775.502" y2="775.502"/></g><!--class Content--><g id="elem_Content"><rect codeLine="26" fill="#F1F1F1" height="87.792" id="Content" rx="3" ry="3" style="stroke:#181818;stroke-width:0.5;" width="133" x="2001.5" y="695.71"/><ellipse cx="2016.5" cy="731.606" fill="#ADD1B2" rx="11" ry="11" style="stroke:#181818;stroke-width:1.0;"/><path d="M2013.2813,737.606 L2013.2813,726.1841 L2020.4844,726.1841 L2020.4844,728.1841 L2015.5156,728.1841 L2015.5156,730.6841 L2020.2344,730.6841 L2020.2344,732.6841 L2015.5156,732.6841 L2015.5156,735.606 L2020.4844,735.606 L2020.4844,737.606 L2013.2813,737.606 Z " fill="#000000"/><text fill="#000000" font-family="sans-serif" font-size="16" lengthAdjust="spacing" textLength="61" x="2050.5" y="737.814">Content</text><line style="stroke:#181818;stroke-width:0.5;" x1="2002.5" x2="2133.5" y1="767.502" y2="767.502"/><line style="stroke:#181818;stroke-width:0.5;" x1="2002.5" x2="2133.5" y1="775.502" y2="775.502"/></g><!--class Class--><g id="elem_Class"><rect codeLine="27" fill="#F1F1F1" height="87.792" id="Class" rx="3" ry="3" style="stroke:#181818;stroke-width:0.5;" width="111" x="2903.5" y="483.23"/><ellipse cx="2918.5" cy="519.126" fill="#ADD1B2" rx="11" ry="11" style="stroke:#181818;stroke-width:1.0;"/><path d="M2915.2813,525.126 L2915.2813,513.7041 L2922.4844,513.7041 L2922.4844,515.7041 L2917.5156,515.7041 L2917.5156,518.2041 L2922.2344,518.2041 L2922.2344,520.2041 L2917.5156,520.2041 L2917.5156,523.126 L2922.4844,523.126 L2922.4844,525.126 L2915.2813,525.126 Z " fill="#000000"/><text fill="#000000" font-family="sans-serif" font-size="16" lengthAdjust="spacing" textLength="39" x="2952.5" y="525.334">Class</text><line style="stroke:#181818;stroke-width:0.5;" x1="2904.5" x2="3013.5" y1="555.022" y2="555.022"/><line style="stroke:#181818;stroke-width:0.5;" x1="2904.5" x2="3013.5" y1="563.022" y2="563.022"/></g><!--class QC--><g id="elem_QC"><rect codeLine="28" fill="#F1F1F1" height="87.792" id="QC" rx="3" ry="3" style="stroke:#181818;stroke-width:0.5;" width="217" x="4929.5" y="19.79"/><ellipse cx="4944.5" cy="55.686" fill="#ADD1B2" rx="11" ry="11" style="stroke:#181818;stroke-width:1.0;"/><path d="M4941.2813,61.686 L4941.2813,50.2641 L4948.4844,50.2641 L4948.4844,52.2641 L4943.5156,52.2641 L4943.5156,54.7641 L4948.2344,54.7641 L4948.2344,56.7641 L4943.5156,56.7641 L4943.5156,59.686 L4948.4844,59.686 L4948.4844,61.686 L4941.2813,61.686 Z " fill="#000000"/><text fill="#000000" font-family="sans-serif" font-size="16" lengthAdjust="spacing" textLength="145" x="4978.5" y="61.894">QuestionCollection</text><line style="stroke:#181818;stroke-width:0.5;" x1="4930.5" x2="5145.5" y1="91.582" y2="91.582"/><line style="stroke:#181818;stroke-width:0.5;" x1="4930.5" x2="5145.5" y1="99.582" y2="99.582"/></g><!--class QCCP--><g id="elem_QCCP"><rect codeLine="29" fill="#F1F1F1" height="87.792" id="QCCP" rx="3" ry="3" style="stroke:#181818;stroke-width:0.5;" width="294" x="4891" y="246.06"/><ellipse cx="4906" cy="281.956" fill="#ADD1B2" rx="11" ry="11" style="stroke:#181818;stroke-width:1.0;"/><path d="M4902.7813,287.956 L4902.7813,276.5341 L4909.9844,276.5341 L4909.9844,278.5341 L4905.0156,278.5341 L4905.0156,281.0341 L4909.7344,281.0341 L4909.7344,283.0341 L4905.0156,283.0341 L4905.0156,285.956 L4909.9844,285.956 L4909.9844,287.956 L4902.7813,287.956 Z " fill="#000000"/><text fill="#000000" font-family="sans-serif" font-size="16" lengthAdjust="spacing" textLength="222" x="4940" y="288.164">QuestionCollectionClassPivot</text><line style="stroke:#181818;stroke-width:0.5;" x1="4892" x2="5184" y1="317.852" y2="317.852"/><line style="stroke:#181818;stroke-width:0.5;" x1="4892" x2="5184" y1="325.852" y2="325.852"/></g><!--class Question--><g id="elem_Question"><rect codeLine="30" fill="#F1F1F1" height="87.792" id="Question" rx="3" ry="3" style="stroke:#181818;stroke-width:0.5;" width="142" x="4289" y="19.79"/><ellipse cx="4304" cy="55.686" fill="#ADD1B2" rx="11" ry="11" style="stroke:#181818;stroke-width:1.0;"/><path d="M4300.7813,61.686 L4300.7813,50.2641 L4307.9844,50.2641 L4307.9844,52.2641 L4303.0156,52.2641 L4303.0156,54.7641 L4307.7344,54.7641 L4307.7344,56.7641 L4303.0156,56.7641 L4303.0156,59.686 L4307.9844,59.686 L4307.9844,61.686 L4300.7813,61.686 Z " fill="#000000"/><text fill="#000000" font-family="sans-serif" font-size="16" lengthAdjust="spacing" textLength="70" x="4338" y="61.894">Question</text><line style="stroke:#181818;stroke-width:0.5;" x1="4290" x2="4430" y1="91.582" y2="91.582"/><line style="stroke:#181818;stroke-width:0.5;" x1="4290" x2="4430" y1="99.582" y2="99.582"/></g><!--class Alternative--><g id="elem_Alternative"><rect codeLine="31" fill="#F1F1F1" height="87.792" id="Alternative" rx="3" ry="3" style="stroke:#181818;stroke-width:0.5;" width="154" x="4081" y="246.06"/><ellipse cx="4096" cy="281.956" fill="#ADD1B2" rx="11" ry="11" style="stroke:#181818;stroke-width:1.0;"/><path d="M4092.7813,287.956 L4092.7813,276.5341 L4099.9844,276.5341 L4099.9844,278.5341 L4095.0156,278.5341 L4095.0156,281.0341 L4099.7344,281.0341 L4099.7344,283.0341 L4095.0156,283.0341 L4095.0156,285.956 L4099.9844,285.956 L4099.9844,287.956 L4092.7813,287.956 Z " fill="#000000"/><text fill="#000000" font-family="sans-serif" font-size="16" lengthAdjust="spacing" textLength="82" x="4130" y="288.164">Alternative</text><line style="stroke:#181818;stroke-width:0.5;" x1="4082" x2="4234" y1="317.852" y2="317.852"/><line style="stroke:#181818;stroke-width:0.5;" x1="4082" x2="4234" y1="325.852" y2="325.852"/></g><!--class QCP--><g id="elem_QCP"><rect codeLine="32" fill="#F1F1F1" height="87.792" id="QCP" rx="3" ry="3" style="stroke:#181818;stroke-width:0.5;" width="255" x="4435.5" y="246.06"/><ellipse cx="4450.5" cy="281.956" fill="#ADD1B2" rx="11" ry="11" style="stroke:#181818;stroke-width:1.0;"/><path d="M4447.2813,287.956 L4447.2813,276.5341 L4454.4844,276.5341 L4454.4844,278.5341 L4449.5156,278.5341 L4449.5156,281.0341 L4454.2344,281.0341 L4454.2344,283.0341 L4449.5156,283.0341 L4449.5156,285.956 L4454.4844,285.956 L4454.4844,287.956 L4447.2813,287.956 Z " fill="#000000"/><text fill="#000000" font-family="sans-serif" font-size="16" lengthAdjust="spacing" textLength="183" x="4484.5" y="288.164">QuestionCollectionPivot</text><line style="stroke:#181818;stroke-width:0.5;" x1="4436.5" x2="4689.5" y1="317.852" y2="317.852"/><line style="stroke:#181818;stroke-width:0.5;" x1="4436.5" x2="4689.5" y1="325.852" y2="325.852"/></g><!--class QAns--><g id="elem_QAns"><rect codeLine="33" fill="#F1F1F1" height="87.792" id="QAns" rx="3" ry="3" style="stroke:#181818;stroke-width:0.5;" width="199" x="3681.5" y="246.06"/><ellipse cx="3696.5" cy="281.956" fill="#ADD1B2" rx="11" ry="11" style="stroke:#181818;stroke-width:1.0;"/><path d="M3693.2813,287.956 L3693.2813,276.5341 L3700.4844,276.5341 L3700.4844,278.5341 L3695.5156,278.5341 L3695.5156,281.0341 L3700.2344,281.0341 L3700.2344,283.0341 L3695.5156,283.0341 L3695.5156,285.956 L3700.4844,285.956 L3700.4844,287.956 L3693.2813,287.956 Z " fill="#000000"/><text fill="#000000" font-family="sans-serif" font-size="16" lengthAdjust="spacing" textLength="127" x="3730.5" y="288.164">QuestionAnswer</text><line style="stroke:#181818;stroke-width:0.5;" x1="3682.5" x2="3879.5" y1="317.852" y2="317.852"/><line style="stroke:#181818;stroke-width:0.5;" x1="3682.5" x2="3879.5" y1="325.852" y2="325.852"/></g><!--class CT--><g id="elem_CT"><rect codeLine="35" fill="#F1F1F1" height="87.792" id="CT" rx="3" ry="3" style="stroke:#181818;stroke-width:0.5;" width="169" x="2534.5" y="483.23"/><ellipse cx="2549.5" cy="519.126" fill="#ADD1B2" rx="11" ry="11" style="stroke:#181818;stroke-width:1.0;"/><path d="M2546.2813,525.126 L2546.2813,513.7041 L2553.4844,513.7041 L2553.4844,515.7041 L2548.5156,515.7041 L2548.5156,518.2041 L2553.2344,518.2041 L2553.2344,520.2041 L2548.5156,520.2041 L2548.5156,523.126 L2553.4844,523.126 L2553.4844,525.126 L2546.2813,525.126 Z " fill="#000000"/><text fill="#000000" font-family="sans-serif" font-size="16" lengthAdjust="spacing" textLength="97" x="2583.5" y="525.334">ContentType</text><line style="stroke:#181818;stroke-width:0.5;" x1="2535.5" x2="2702.5" y1="555.022" y2="555.022"/><line style="stroke:#181818;stroke-width:0.5;" x1="2535.5" x2="2702.5" y1="563.022" y2="563.022"/></g><!--class CI--><g id="elem_CI"><rect codeLine="36" fill="#F1F1F1" height="87.792" id="CI" rx="3" ry="3" style="stroke:#181818;stroke-width:0.5;" width="181" x="1792.5" y="483.23"/><ellipse cx="1807.5" cy="519.126" fill="#ADD1B2" rx="11" ry="11" style="stroke:#181818;stroke-width:1.0;"/><path d="M1804.2813,525.126 L1804.2813,513.7041 L1811.4844,513.7041 L1811.4844,515.7041 L1806.5156,515.7041 L1806.5156,518.2041 L1811.2344,518.2041 L1811.2344,520.2041 L1806.5156,520.2041 L1806.5156,523.126 L1811.4844,523.126 L1811.4844,525.126 L1804.2813,525.126 Z " fill="#000000"/><text fill="#000000" font-family="sans-serif" font-size="16" lengthAdjust="spacing" textLength="109" x="1841.5" y="525.334">ContentImage</text><line style="stroke:#181818;stroke-width:0.5;" x1="1793.5" x2="1972.5" y1="555.022" y2="555.022"/><line style="stroke:#181818;stroke-width:0.5;" x1="1793.5" x2="1972.5" y1="563.022" y2="563.022"/></g><!--class CTag--><g id="elem_CTag"><rect codeLine="37" fill="#F1F1F1" height="87.792" id="CTag" rx="3" ry="3" style="stroke:#181818;stroke-width:0.5;" width="161" x="2173.5" y="483.23"/><ellipse cx="2188.5" cy="519.126" fill="#ADD1B2" rx="11" ry="11" style="stroke:#181818;stroke-width:1.0;"/><path d="M2185.2813,525.126 L2185.2813,513.7041 L2192.4844,513.7041 L2192.4844,515.7041 L2187.5156,515.7041 L2187.5156,518.2041 L2192.2344,518.2041 L2192.2344,520.2041 L2187.5156,520.2041 L2187.5156,523.126 L2192.4844,523.126 L2192.4844,525.126 L2185.2813,525.126 Z " fill="#000000"/><text fill="#000000" font-family="sans-serif" font-size="16" lengthAdjust="spacing" textLength="89" x="2222.5" y="525.334">ContentTag</text><line style="stroke:#181818;stroke-width:0.5;" x1="2174.5" x2="2333.5" y1="555.022" y2="555.022"/><line style="stroke:#181818;stroke-width:0.5;" x1="2174.5" x2="2333.5" y1="563.022" y2="563.022"/></g><g id="elem_GMN19"><path d="M621.5,461.54 L621.5,592.7082 A3,3 0 0 0 624.5,595.7082 L1589.5,595.7082 A3,3 0 0 0 1592.5,592.7082 L1592.5,468.54 L1582.5,458.54 L624.5,458.54 A3,3 0 0 0 621.5,461.54 " fill="#FEFFDD" style="stroke:#181818;stroke-width:0.5;"/><path d="M1582.5,458.54 L1582.5,467.04 A1.5,1.5 0 0 0 1584,468.54 L1592.5,468.54 L1582.5,458.54 " fill="#FEFFDD" style="stroke:#181818;stroke-width:1.0;"/><text fill="#000000" font-family="sans-serif" font-size="16" lengthAdjust="spacing" textLength="495" x="647.5" y="500.644">Representa&#231;&#227;o de uma habilidade/compet&#234;ncia ABNCC, exemplo:</text><text fill="#000000" font-family="sans-serif" font-size="16" lengthAdjust="spacing" textLength="906" x="647.5" y="522.4361">(EF01MA01) Utilizar n&#250;meros naturais como indicador de quantidade ou de ordem em diferentes situa&#231;&#245;es cotidianas e</text><text fill="#000000" font-family="sans-serif" font-size="16" lengthAdjust="spacing" textLength="841" x="647.5" y="544.2281">reconhecer situa&#231;&#245;es em que os n&#250;meros n&#227;o indicam contagem nem ordem, mas sim c&#243;digo de identifica&#231;&#227;o</text><text fill="#000000" font-family="sans-serif" font-size="16" lengthAdjust="spacing" textLength="875" x="647.5" y="566.0202">Usado para melhorar o detalhamento dos conte&#250;dos e permitir an&#225;lises mais precisas do desempenho dos alunos.</text></g><g id="elem_GMN32"><path d="M5385,224.37 L5385,355.5382 A3,3 0 0 0 5388,358.5382 L6032,358.5382 A3,3 0 0 0 6035,355.5382 L6035,231.37 L6025,221.37 L5388,221.37 A3,3 0 0 0 5385,224.37 " fill="#FEFFDD" style="stroke:#181818;stroke-width:0.5;"/><path d="M6025,221.37 L6025,229.87 A1.5,1.5 0 0 0 6026.5,231.37 L6035,231.37 L6025,221.37 " fill="#FEFFDD" style="stroke:#181818;stroke-width:1.0;"/><text fill="#000000" font-family="sans-serif" font-size="16" lengthAdjust="spacing" textLength="340" x="5411" y="263.474">O relacionamento com "Class" &#233; N:N porque:</text><text fill="#000000" font-family="sans-serif" font-size="16" lengthAdjust="spacing" textLength="551" x="5411" y="285.2661">- Uma turma pode utilizar v&#225;rias cole&#231;&#245;es (provas, atividades, simulados)</text><text fill="#000000" font-family="sans-serif" font-size="16" lengthAdjust="spacing" textLength="372" x="5411" y="307.0581">- Uma cole&#231;&#227;o pode ser atribu&#237;da a v&#225;rias turmas</text><text fill="#000000" font-family="sans-serif" font-size="16" lengthAdjust="spacing" textLength="589" x="5411" y="328.8502">- Algumas cole&#231;&#245;es podem ser p&#250;blicas e reutilizadas entre diferentes turmas</text></g><g id="elem_GMN40"><path d="M3537.5,9 L3537.5,118.3761 A3,3 0 0 0 3540.5,121.3761 L3743.83,121.3761 L3747.83,245.7 L3751.83,121.3761 L4085.5,121.3761 A3,3 0 0 0 4088.5,118.3761 L4088.5,16 L4078.5,6 L3540.5,6 A3,3 0 0 0 3537.5,9 " fill="#FEFFDD" style="stroke:#181818;stroke-width:0.5;"/><path d="M4078.5,6 L4078.5,14.5 A1.5,1.5 0 0 0 4080,16 L4088.5,16 L4078.5,6 " fill="#FEFFDD" style="stroke:#181818;stroke-width:0.5;"/><text fill="#000000" font-family="sans-serif" font-size="16" lengthAdjust="spacing" textLength="188" x="3563.5" y="48.104">Armazenado apenas em:</text><text fill="#000000" font-family="sans-serif" font-size="16" lengthAdjust="spacing" textLength="490" x="3563.5" y="69.8961">- Simulados especiais da plataforma(eventos, campeonados, etc)</text><text fill="#000000" font-family="sans-serif" font-size="16" lengthAdjust="spacing" textLength="377" x="3563.5" y="91.6881">- Atividades de turma para avalia&#231;&#227;o do professor</text></g><!--link Skill to GMN19--><g id="link_Skill_GMN19"><path d="M58,482.79 C58,475.62 58,470.5 58,470.5 C58,470.5 346.75,470.5 621.27,470.5 " fill="none" id="Skill-GMN19" style="stroke:#181818;stroke-width:1.0;stroke-dasharray:7.0,7.0;"/></g><!--link Discipline to Skill--><g id="link_Discipline_Skill"><path codeLine="46" d="M300.5,334.08 C300.5,402.78 300.5,527.5 300.5,527.5 C300.5,527.5 180.61,527.5 109.43,527.5 " fill="none" id="Discipline-Skill" style="stroke:#181818;stroke-width:1.0;"/><text fill="#000000" font-family="sans-serif" font-size="14" lengthAdjust="spacing" textLength="8" x="263.3734" y="376.6419">1</text><text fill="#000000" font-family="sans-serif" font-size="14" lengthAdjust="spacing" textLength="11" x="137.0028" y="500.6022">N</text></g><!--link Topic to Content--><g id="link_Topic_Content"><path codeLine="48" d="M383.83,571.42 C383.83,629.61 383.83,724.5 383.83,724.5 C383.83,724.5 1688.43,724.5 2001.2,724.5 " fill="none" id="Topic-Content" style="stroke:#181818;stroke-width:1.0;"/><text fill="#000000" font-family="sans-serif" font-size="14" lengthAdjust="spacing" textLength="8" x="408.2468" y="613.9994">1</text><text fill="#000000" font-family="sans-serif" font-size="14" lengthAdjust="spacing" textLength="11" x="1962.5564" y="696.7748">N</text></g><!--link Skill to ST--><g id="link_Skill_ST"><path codeLine="49" d="M58,571.39 C58,633.63 58,739.5 58,739.5 C58,739.5 100.19,739.5 140.41,739.5 " fill="none" id="Skill-ST" style="stroke:#181818;stroke-width:1.0;"/><text fill="#000000" font-family="sans-serif" font-size="14" lengthAdjust="spacing" textLength="8" x="27.525" y="613.9663">1</text><text fill="#000000" font-family="sans-serif" font-size="14" lengthAdjust="spacing" textLength="11" x="101.3697" y="713.017">N</text></g><!--link Topic to ST--><g id="link_Topic_ST"><path codeLine="50" d="M346.17,571.5 C346.17,637.67 346.17,754.5 346.17,754.5 C346.17,754.5 315.7,754.5 283.8,754.5 " fill="none" id="Topic-ST" style="stroke:#181818;stroke-width:1.0;"/><text fill="#000000" font-family="sans-serif" font-size="14" lengthAdjust="spacing" textLength="8" x="313.7532" y="614.0877">1</text><text fill="#000000" font-family="sans-serif" font-size="14" lengthAdjust="spacing" textLength="11" x="311.5536" y="729.3047">N</text></g><!--link Discipline to Class--><g id="link_Discipline_Class"><path codeLine="52" d="M437.77,275.5 C858.32,275.5 2959,275.5 2959,275.5 C2959,275.5 2959,410.84 2959,483.01 " fill="none" id="Discipline-Class" style="stroke:#181818;stroke-width:1.0;"/><text fill="#000000" font-family="sans-serif" font-size="14" lengthAdjust="spacing" textLength="8" x="465.4814" y="247.9659">1</text><text fill="#000000" font-family="sans-serif" font-size="14" lengthAdjust="spacing" textLength="11" x="2925.2109" y="450.9279">N</text></g><!--link Discipline to Topic--><g id="link_Discipline_Topic"><path codeLine="53" d="M365,334.29 C365,376.79 365,440.58 365,483.01 " fill="none" id="Discipline-Topic" style="stroke:#181818;stroke-width:1.0;"/><text fill="#000000" font-family="sans-serif" font-size="14" lengthAdjust="spacing" textLength="8" x="334.525" y="376.8736">1</text><text fill="#000000" font-family="sans-serif" font-size="14" lengthAdjust="spacing" textLength="11" x="331.2109" y="450.9279">N</text></g><!--link User to UserClass--><g id="link_User_UserClass"><path codeLine="54" d="M3265,108.03 C3265,258.38 3265,739.5 3265,739.5 C3265,739.5 3239.17,739.5 3210.72,739.5 " fill="none" id="User-UserClass" style="stroke:#181818;stroke-width:1.0;"/><text fill="#000000" font-family="sans-serif" font-size="14" lengthAdjust="spacing" textLength="8" x="3232.6688" y="150.6146">1</text><text fill="#000000" font-family="sans-serif" font-size="14" lengthAdjust="spacing" textLength="11" x="3238.6266" y="713.1094">N</text></g><!--link Class to UserClass--><g id="link_Class_UserClass"><path codeLine="55" d="M2959,571.5 C2959,637.67 2959,754.5 2959,754.5 C2959,754.5 3014.15,754.5 3063.06,754.5 " fill="none" id="Class-UserClass" style="stroke:#181818;stroke-width:1.0;"/><text fill="#000000" font-family="sans-serif" font-size="14" lengthAdjust="spacing" textLength="8" x="2928.525" y="614.0877">1</text><text fill="#000000" font-family="sans-serif" font-size="14" lengthAdjust="spacing" textLength="11" x="3024.4466" y="729.3503">N</text></g><!--link QCCP to Class--><g id="link_QCCP_Class"><path codeLine="57" d="M5038,334.08 C5038,402.78 5038,527.5 5038,527.5 C5038,527.5 3346.14,527.5 3014.88,527.5 " fill="none" id="QCCP-Class" style="stroke:#181818;stroke-width:1.0;"/><text fill="#000000" font-family="sans-serif" font-size="14" lengthAdjust="spacing" textLength="11" x="5004.3703" y="376.6419">N</text><text fill="#000000" font-family="sans-serif" font-size="14" lengthAdjust="spacing" textLength="8" x="3042.4936" y="500.6931">1</text></g><!--link QC to QCCP--><g id="link_QC_QCCP"><path codeLine="58" d="M5001.83,107.85 C5001.83,147.72 5001.83,206.07 5001.83,245.9 " fill="none" id="QC-QCCP" style="stroke:#181818;stroke-width:1.0;"/><text fill="#000000" font-family="sans-serif" font-size="14" lengthAdjust="spacing" textLength="8" x="4967.625" y="150.416">1</text><text fill="#000000" font-family="sans-serif" font-size="14" lengthAdjust="spacing" textLength="11" x="4964.0848" y="213.8245">N</text></g><!--link QC to GMN32--><g id="link_QC_GMN32"><path d="M5074.17,107.86 C5074.17,158.17 5074.17,233.5 5074.17,233.5 C5074.17,233.5 5228.2,233.5 5384.63,233.5 " fill="none" id="QC-GMN32" style="stroke:#181818;stroke-width:1.0;stroke-dasharray:7.0,7.0;"/></g><!--link QC to QCP--><g id="link_QC_QCP"><path codeLine="67" d="M4929.03,63.5 C4788.79,63.5 4563,63.5 4563,63.5 C4563,63.5 4563,179.85 4563,245.76 " fill="none" id="QC-QCP" style="stroke:#181818;stroke-width:1.0;"/><text fill="#000000" font-family="sans-serif" font-size="14" lengthAdjust="spacing" textLength="8" x="4893.3427" y="37.7517">1</text><text fill="#000000" font-family="sans-serif" font-size="14" lengthAdjust="spacing" textLength="11" x="4529.3703" y="214.1295">N</text></g><!--link Question to QCP--><g id="link_Question_QCP"><path codeLine="68" d="M4395.5,107.83 C4395.5,169.91 4395.5,275.5 4395.5,275.5 C4395.5,275.5 4412.27,275.5 4435.2,275.5 " fill="none" id="Question-QCP" style="stroke:#181818;stroke-width:1.0;"/><text fill="#000000" font-family="sans-serif" font-size="14" lengthAdjust="spacing" textLength="8" x="4421.6359" y="150.394">1</text><text fill="#000000" font-family="sans-serif" font-size="14" lengthAdjust="spacing" textLength="11" x="4396.2955" y="249.2012">N</text></g><!--link Question to Alternative--><g id="link_Question_Alternative"><path codeLine="70" d="M4360,107.85 C4360,177.37 4360,304.5 4360,304.5 C4360,304.5 4292.26,304.5 4235.23,304.5 " fill="none" id="Question-Alternative" style="stroke:#181818;stroke-width:1.0;"/><text fill="#000000" font-family="sans-serif" font-size="14" lengthAdjust="spacing" textLength="8" x="4329.525" y="150.416">1</text><text fill="#000000" font-family="sans-serif" font-size="14" lengthAdjust="spacing" textLength="11" x="4263.0953" y="279.3235">N</text></g><!--link Question to QAns--><g id="link_Question_QAns"><path codeLine="72" d="M4324.5,107.85 C4324.5,137.62 4324.5,171.5 4324.5,171.5 C4324.5,171.5 3814.17,171.5 3814.17,171.5 C3814.17,171.5 3814.17,212.17 3814.17,245.85 " fill="none" id="Question-QAns" style="stroke:#181818;stroke-width:1.0;"/><text fill="#000000" font-family="sans-serif" font-size="14" lengthAdjust="spacing" textLength="8" x="4290.3641" y="150.416">1</text><text fill="#000000" font-family="sans-serif" font-size="14" lengthAdjust="spacing" textLength="11" x="3784.0089" y="213.769">N</text></g><!--link User to QAns--><g id="link_User_QAns"><path codeLine="73" d="M3301,107.85 C3301,177.37 3301,304.5 3301,304.5 C3301,304.5 3540.62,304.5 3681.25,304.5 " fill="none" id="User-QAns" style="stroke:#181818;stroke-width:1.0;"/><text fill="#000000" font-family="sans-serif" font-size="14" lengthAdjust="spacing" textLength="8" x="3325.3313" y="150.416">1</text><text fill="#000000" font-family="sans-serif" font-size="14" lengthAdjust="spacing" textLength="11" x="3642.6176" y="279.5566">N</text></g><!--link CT to Content--><g id="link_CT_Content"><path codeLine="81" d="M2619,571.42 C2619,629.61 2619,724.5 2619,724.5 C2619,724.5 2281.43,724.5 2134.74,724.5 " fill="none" id="CT-Content" style="stroke:#181818;stroke-width:1.0;"/><text fill="#000000" font-family="sans-serif" font-size="14" lengthAdjust="spacing" textLength="8" x="2588.525" y="613.9994">1</text><text fill="#000000" font-family="sans-serif" font-size="14" lengthAdjust="spacing" textLength="11" x="2162.3786" y="696.7748">N</text></g><!--link CI to Content--><g id="link_CI_Content"><path codeLine="82" d="M1973.94,541.5 C2011.24,541.5 2045.83,541.5 2045.83,541.5 C2045.83,541.5 2045.83,637.28 2045.83,695.64 " fill="none" id="CI-Content" style="stroke:#181818;stroke-width:1.0;"/><text fill="#000000" font-family="sans-serif" font-size="14" lengthAdjust="spacing" textLength="11" x="2001.3994" y="516.4991">N</text><text fill="#000000" font-family="sans-serif" font-size="14" lengthAdjust="spacing" textLength="11" x="2066.1942" y="663.5743">N</text></g><!--link CTag to Content--><g id="link_CTag_Content"><path codeLine="83" d="M2173.04,512.5 C2131.77,512.5 2090.17,512.5 2090.17,512.5 C2090.17,512.5 2090.17,629.19 2090.17,695.28 " fill="none" id="CTag-Content" style="stroke:#181818;stroke-width:1.0;"/><text fill="#000000" font-family="sans-serif" font-size="14" lengthAdjust="spacing" textLength="11" x="2134.5545" y="485.3657">N</text><text fill="#000000" font-family="sans-serif" font-size="14" lengthAdjust="spacing" textLength="11" x="2115.086" y="663.6361">N</text></g><!--SRC=[VLRDRkCs4BxhAGRk9G7YrFPciwrFjPrDaMoITM9xxumqjebGf9Qad2Pli-YXQ86UYbvorOjrXf9b-QThm0R9R_uuCz-OxadgJ5YHGe9paIj_QRIVo5U4xddaQX2rb_xbC3QmrZnleBCzjQ68dnRMv3eP6MKi_D0TzixUTVRbZ4tGLZ8_Nmu_Z3xyZynqAUCdZSv1ho6XfCR3Y5kAn3nBlO2vK0uRI0WhDbQZXVCTM_ubGp3MBqq3o4IIiA7UVlpZDTHqhKs23ZEIRofOeP_ujBjr6YlXtC1xAnzpZrUnqI6bdIZo9WDluD5uRwXKqcBifT5HL7g6rioXRO5mm8kjqn4RhQ6mg_79arGgO65Ldrz85ykCSn30pRQMc9fCnW4CgssB6t0ohP4HTGYjmt6rtc1rZDlntUVe-9xK4wgySH2w7tr78bWOovNnbUnel2TT8jMcHWVAezN2orLvxSR-E_wQhlOz3RHxhYfpJ-jeDnrJwh7oudkPkah5eiAkzjJ4ej8IYoZInYDOkLXwCFEgb42V1ymiDP_selYZ-DqGnI5F1Ip5erGo4Gd-69iqGr_yfMCfO32y6urE07_3D5Ec3y76qSVBJlTsqEaUmyoJsgkme8kt5ArnGCd9hP0Eo8u1gHCP4z4iE_gQ2mgPdO39-O29IqpXxfsZfQ3GWPC-vzZ-HJP1ub9ekXMMhgd9ZLvYJDHi2fA9hpdPSuqu-7QbUs8HfOWoHzIZR_1w0gbWPuGL_oHo4J8X4yxfd5H2SeB7cQFmWSa8AQgbiNHP5lP2BKLAyhGnBdZ0uesN21dQL7ffGUZYcvAE8amv9PJwM3hocx05Hpb5lIprXSgrSQTKr0IuTb6qOHYqkYrejw5rrweg6GKwDS_Nz0dubi9qNvZEckPXor1Wss7d9QzvPZHFDpCa_1w68YPTE6Eek_PpFsgA1sAMhLkDDUfTOZRNuJFLNecO-5DbdVghdXB5dt3NluFCM6g3Vf1lmupwcdgHVZF3RRvkrLNnpKh19LDOzSzHPirAk1DWPeSEfJKrHwwe-EwuOR1IejuAHZaL8Wpdukz4WAYD1yUkKXoeHPvkUsJjDAXdnTkZefRZnh5OHPdmLdkBJMfKDZSjifkzSRIUCRld1u7cC0kH7jJc4LKIORlivUnY91IC_uwuMcjn_WmetbVKJ211hSvtIlirseR9EiE0BYDgC4SeYvaINimDAH_XYcjDnI0MPsZO56tGnySDCuEwQ4pYgkHCMB4IIgu77LNCcZaz0umDkfiqycuqFSIcW5pLRRkBqAGzX0Nm5xAVfqJLiQAfDxkzWHLQnydjdlOwlRFJTqVJPGwN-0ZTz_Hwwfzr-fttC7oO0iF7qT6luvjL3vp9RSnjuCet05auZgxfPl2Gqx1AiG-VARVN5v_M1_1HhwGrccaINN-vtGYSdxM7qiC4BSK2NswZY_A1HngnuNTA7sRJo_PFqOtGYvm6Pf-o58teFUJj2s6J_m00]--></g></svg>