<?xml version="1.0" encoding="us-ascii" standalone="no"?><svg xmlns="http://www.w3.org/2000/svg" xmlns:xlink="http://www.w3.org/1999/xlink" contentStyleType="text/css" height="3764px" preserveAspectRatio="none" style="width:1638px;height:3764px;background:#FFFFFF;" version="1.1" viewBox="0 0 1638 3764" width="1638px" zoomAndPan="magnify"><defs/><g><!--class User--><g id="elem_User"><rect codeLine="18" fill="#F1F1F1" height="106.4301" id="User" rx="4" ry="4" style="stroke:#181818;stroke-width:0.5;" width="124" x="124.5" y="1607"/><ellipse cx="139.5" cy="1652.2151" fill="#ADD1B2" rx="11" ry="11" style="stroke:#181818;stroke-width:1.0;"/><path d="M136.2031,1657.2151 L136.2031,1646.5119 L142.9531,1646.5119 L142.9531,1648.3869 L138.2969,1648.3869 L138.2969,1650.7151 L142.7188,1650.7151 L142.7188,1652.5901 L138.2969,1652.5901 L138.2969,1655.3401 L142.9531,1655.3401 L142.9531,1657.2151 L136.2031,1657.2151 Z " fill="#000000"/><text fill="#000000" font-family="sans-serif" font-size="15" lengthAdjust="spacing" textLength="32" x="183.5" y="1658.0351">User</text><line style="stroke:#181818;stroke-width:0.5;" x1="125.5" x2="247.5" y1="1697.4301" y2="1697.4301"/><line style="stroke:#181818;stroke-width:0.5;" x1="125.5" x2="247.5" y1="1705.4301" y2="1705.4301"/></g><!--class Discipline--><g id="elem_Discipline"><rect codeLine="20" fill="#F1F1F1" height="106.4301" id="Discipline" rx="4" ry="4" style="stroke:#181818;stroke-width:0.5;" width="159" x="107" y="1124"/><ellipse cx="122" cy="1169.2151" fill="#ADD1B2" rx="11" ry="11" style="stroke:#181818;stroke-width:1.0;"/><path d="M118.7031,1174.2151 L118.7031,1163.5119 L125.4531,1163.5119 L125.4531,1165.3869 L120.7969,1165.3869 L120.7969,1167.7151 L125.2188,1167.7151 L125.2188,1169.5901 L120.7969,1169.5901 L120.7969,1172.3401 L125.4531,1172.3401 L125.4531,1174.2151 L118.7031,1174.2151 Z " fill="#000000"/><text fill="#000000" font-family="sans-serif" font-size="15" lengthAdjust="spacing" textLength="67" x="166" y="1175.0351">Discipline</text><line style="stroke:#181818;stroke-width:0.5;" x1="108" x2="265" y1="1214.4301" y2="1214.4301"/><line style="stroke:#181818;stroke-width:0.5;" x1="108" x2="265" y1="1222.4301" y2="1222.4301"/></g><!--class Skill--><g id="elem_Skill"><rect codeLine="22" fill="#F1F1F1" height="106.4301" id="Skill" rx="4" ry="4" style="stroke:#181818;stroke-width:0.5;" width="120" x="604.5" y="1124"/><ellipse cx="619.5" cy="1169.2151" fill="#ADD1B2" rx="11" ry="11" style="stroke:#181818;stroke-width:1.0;"/><path d="M616.2031,1174.2151 L616.2031,1163.5119 L622.9531,1163.5119 L622.9531,1165.3869 L618.2969,1165.3869 L618.2969,1167.7151 L622.7188,1167.7151 L622.7188,1169.5901 L618.2969,1169.5901 L618.2969,1172.3401 L622.9531,1172.3401 L622.9531,1174.2151 L616.2031,1174.2151 Z " fill="#000000"/><text fill="#000000" font-family="sans-serif" font-size="15" lengthAdjust="spacing" textLength="28" x="663.5" y="1175.0351">Skill</text><line style="stroke:#181818;stroke-width:0.5;" x1="605.5" x2="723.5" y1="1214.4301" y2="1214.4301"/><line style="stroke:#181818;stroke-width:0.5;" x1="605.5" x2="723.5" y1="1222.4301" y2="1222.4301"/></g><!--class Topic--><g id="elem_Topic"><rect codeLine="23" fill="#F1F1F1" height="106.4301" id="Topic" rx="4" ry="4" style="stroke:#181818;stroke-width:0.5;" width="129" x="600" y="466"/><ellipse cx="615" cy="511.2151" fill="#ADD1B2" rx="11" ry="11" style="stroke:#181818;stroke-width:1.0;"/><path d="M611.7031,516.2151 L611.7031,505.5119 L618.4531,505.5119 L618.4531,507.3869 L613.7969,507.3869 L613.7969,509.7151 L618.2188,509.7151 L618.2188,511.5901 L613.7969,511.5901 L613.7969,514.3401 L618.4531,514.3401 L618.4531,516.2151 L611.7031,516.2151 Z " fill="#000000"/><text fill="#000000" font-family="sans-serif" font-size="15" lengthAdjust="spacing" textLength="37" x="659" y="517.0351">Topic</text><line style="stroke:#181818;stroke-width:0.5;" x1="601" x2="728" y1="556.4301" y2="556.4301"/><line style="stroke:#181818;stroke-width:0.5;" x1="601" x2="728" y1="564.4301" y2="564.4301"/></g><!--class ST--><g id="elem_ST"><rect codeLine="25" fill="#F1F1F1" height="106.4301" id="ST" rx="4" ry="4" style="stroke:#181818;stroke-width:0.5;" width="157" x="1030" y="795"/><ellipse cx="1045" cy="840.2151" fill="#ADD1B2" rx="11" ry="11" style="stroke:#181818;stroke-width:1.0;"/><path d="M1041.7031,845.2151 L1041.7031,834.5119 L1048.4531,834.5119 L1048.4531,836.3869 L1043.7969,836.3869 L1043.7969,838.7151 L1048.2188,838.7151 L1048.2188,840.5901 L1043.7969,840.5901 L1043.7969,843.3401 L1048.4531,843.3401 L1048.4531,845.2151 L1041.7031,845.2151 Z " fill="#000000"/><text fill="#000000" font-family="sans-serif" font-size="15" lengthAdjust="spacing" textLength="65" x="1089" y="846.0351">SkillTopic</text><line style="stroke:#181818;stroke-width:0.5;" x1="1031" x2="1186" y1="885.4301" y2="885.4301"/><line style="stroke:#181818;stroke-width:0.5;" x1="1031" x2="1186" y1="893.4301" y2="893.4301"/></g><!--class CT--><g id="elem_CT"><rect codeLine="27" fill="#F1F1F1" height="106.4301" id="CT" rx="4" ry="4" style="stroke:#181818;stroke-width:0.5;" width="179" x="575" y="160"/><ellipse cx="590" cy="205.2151" fill="#ADD1B2" rx="11" ry="11" style="stroke:#181818;stroke-width:1.0;"/><path d="M586.7031,210.2151 L586.7031,199.5119 L593.4531,199.5119 L593.4531,201.3869 L588.7969,201.3869 L588.7969,203.7151 L593.2188,203.7151 L593.2188,205.5901 L588.7969,205.5901 L588.7969,208.3401 L593.4531,208.3401 L593.4531,210.2151 L586.7031,210.2151 Z " fill="#000000"/><text fill="#000000" font-family="sans-serif" font-size="15" lengthAdjust="spacing" textLength="87" x="634" y="211.0351">ContentType</text><line style="stroke:#181818;stroke-width:0.5;" x1="576" x2="753" y1="250.4301" y2="250.4301"/><line style="stroke:#181818;stroke-width:0.5;" x1="576" x2="753" y1="258.4301" y2="258.4301"/></g><!--class Content--><g id="elem_Content"><rect codeLine="29" fill="#F1F1F1" height="106.4301" id="Content" rx="4" ry="4" style="stroke:#181818;stroke-width:0.5;" width="146" x="1035.5" y="313"/><ellipse cx="1050.5" cy="358.2151" fill="#ADD1B2" rx="11" ry="11" style="stroke:#181818;stroke-width:1.0;"/><path d="M1047.2031,363.2151 L1047.2031,352.5119 L1053.9531,352.5119 L1053.9531,354.3869 L1049.2969,354.3869 L1049.2969,356.7151 L1053.7188,356.7151 L1053.7188,358.5901 L1049.2969,358.5901 L1049.2969,361.3401 L1053.9531,361.3401 L1053.9531,363.2151 L1047.2031,363.2151 Z " fill="#000000"/><text fill="#000000" font-family="sans-serif" font-size="15" lengthAdjust="spacing" textLength="54" x="1094.5" y="364.0351">Content</text><line style="stroke:#181818;stroke-width:0.5;" x1="1036.5" x2="1180.5" y1="403.4301" y2="403.4301"/><line style="stroke:#181818;stroke-width:0.5;" x1="1036.5" x2="1180.5" y1="411.4301" y2="411.4301"/></g><!--class CA--><g id="elem_CA"><rect codeLine="31" fill="#F1F1F1" height="106.4301" id="CA" rx="4" ry="4" style="stroke:#181818;stroke-width:0.5;" width="226" x="1405" y="7"/><ellipse cx="1420" cy="52.2151" fill="#ADD1B2" rx="11" ry="11" style="stroke:#181818;stroke-width:1.0;"/><path d="M1416.7031,57.2151 L1416.7031,46.5119 L1423.4531,46.5119 L1423.4531,48.3869 L1418.7969,48.3869 L1418.7969,50.7151 L1423.2188,50.7151 L1423.2188,52.5901 L1418.7969,52.5901 L1418.7969,55.3401 L1423.4531,55.3401 L1423.4531,57.2151 L1416.7031,57.2151 Z " fill="#000000"/><text fill="#000000" font-family="sans-serif" font-size="15" lengthAdjust="spacing" textLength="134" x="1464" y="58.0351">ContentAttachment</text><line style="stroke:#181818;stroke-width:0.5;" x1="1406" x2="1630" y1="97.4301" y2="97.4301"/><line style="stroke:#181818;stroke-width:0.5;" x1="1406" x2="1630" y1="105.4301" y2="105.4301"/></g><!--class CTag--><g id="elem_CTag"><rect codeLine="32" fill="#F1F1F1" height="106.4301" id="CTag" rx="4" ry="4" style="stroke:#181818;stroke-width:0.5;" width="171" x="1432.5" y="313"/><ellipse cx="1447.5" cy="358.2151" fill="#ADD1B2" rx="11" ry="11" style="stroke:#181818;stroke-width:1.0;"/><path d="M1444.2031,363.2151 L1444.2031,352.5119 L1450.9531,352.5119 L1450.9531,354.3869 L1446.2969,354.3869 L1446.2969,356.7151 L1450.7188,356.7151 L1450.7188,358.5901 L1446.2969,358.5901 L1446.2969,361.3401 L1450.9531,361.3401 L1450.9531,363.2151 L1444.2031,363.2151 Z " fill="#000000"/><text fill="#000000" font-family="sans-serif" font-size="15" lengthAdjust="spacing" textLength="79" x="1491.5" y="364.0351">ContentTag</text><line style="stroke:#181818;stroke-width:0.5;" x1="1433.5" x2="1602.5" y1="403.4301" y2="403.4301"/><line style="stroke:#181818;stroke-width:0.5;" x1="1433.5" x2="1602.5" y1="411.4301" y2="411.4301"/></g><!--class CI--><g id="elem_CI"><rect codeLine="33" fill="#F1F1F1" height="106.4301" id="CI" rx="4" ry="4" style="stroke:#181818;stroke-width:0.5;" width="190" x="1423" y="619"/><ellipse cx="1438" cy="664.2151" fill="#ADD1B2" rx="11" ry="11" style="stroke:#181818;stroke-width:1.0;"/><path d="M1434.7031,669.2151 L1434.7031,658.5119 L1441.4531,658.5119 L1441.4531,660.3869 L1436.7969,660.3869 L1436.7969,662.7151 L1441.2188,662.7151 L1441.2188,664.5901 L1436.7969,664.5901 L1436.7969,667.3401 L1441.4531,667.3401 L1441.4531,669.2151 L1434.7031,669.2151 Z " fill="#000000"/><text fill="#000000" font-family="sans-serif" font-size="15" lengthAdjust="spacing" textLength="98" x="1482" y="670.0351">ContentImage</text><line style="stroke:#181818;stroke-width:0.5;" x1="1424" x2="1612" y1="709.4301" y2="709.4301"/><line style="stroke:#181818;stroke-width:0.5;" x1="1424" x2="1612" y1="717.4301" y2="717.4301"/></g><!--class Class--><g id="elem_Class"><rect codeLine="35" fill="#F1F1F1" height="106.4301" id="Class" rx="4" ry="4" style="stroke:#181818;stroke-width:0.5;" width="127" x="601" y="1430"/><ellipse cx="616" cy="1475.2151" fill="#ADD1B2" rx="11" ry="11" style="stroke:#181818;stroke-width:1.0;"/><path d="M612.7031,1480.2151 L612.7031,1469.5119 L619.4531,1469.5119 L619.4531,1471.3869 L614.7969,1471.3869 L614.7969,1473.7151 L619.2188,1473.7151 L619.2188,1475.5901 L614.7969,1475.5901 L614.7969,1478.3401 L619.4531,1478.3401 L619.4531,1480.2151 L612.7031,1480.2151 Z " fill="#000000"/><text fill="#000000" font-family="sans-serif" font-size="15" lengthAdjust="spacing" textLength="35" x="660" y="1481.0351">Class</text><line style="stroke:#181818;stroke-width:0.5;" x1="602" x2="727" y1="1520.4301" y2="1520.4301"/><line style="stroke:#181818;stroke-width:0.5;" x1="602" x2="727" y1="1528.4301" y2="1528.4301"/></g><!--class UserClass--><g id="elem_UserClass"><rect codeLine="37" fill="#F1F1F1" height="106.4301" id="UserClass" rx="4" ry="4" style="stroke:#181818;stroke-width:0.5;" width="159" x="1029" y="1607"/><ellipse cx="1044" cy="1652.2151" fill="#ADD1B2" rx="11" ry="11" style="stroke:#181818;stroke-width:1.0;"/><path d="M1040.7031,1657.2151 L1040.7031,1646.5119 L1047.4531,1646.5119 L1047.4531,1648.3869 L1042.7969,1648.3869 L1042.7969,1650.7151 L1047.2188,1650.7151 L1047.2188,1652.5901 L1042.7969,1652.5901 L1042.7969,1655.3401 L1047.4531,1655.3401 L1047.4531,1657.2151 L1040.7031,1657.2151 Z " fill="#000000"/><text fill="#000000" font-family="sans-serif" font-size="15" lengthAdjust="spacing" textLength="67" x="1088" y="1658.0351">UserClass</text><line style="stroke:#181818;stroke-width:0.5;" x1="1030" x2="1187" y1="1697.4301" y2="1697.4301"/><line style="stroke:#181818;stroke-width:0.5;" x1="1030" x2="1187" y1="1705.4301" y2="1705.4301"/></g><!--class QC--><g id="elem_QC"><rect codeLine="39" fill="#F1F1F1" height="106.4301" id="QC" rx="4" ry="4" style="stroke:#181818;stroke-width:0.5;" width="223" x="75" y="3279"/><ellipse cx="90" cy="3324.2151" fill="#ADD1B2" rx="11" ry="11" style="stroke:#181818;stroke-width:1.0;"/><path d="M86.7031,3329.2151 L86.7031,3318.5119 L93.4531,3318.5119 L93.4531,3320.3869 L88.7969,3320.3869 L88.7969,3322.7151 L93.2188,3322.7151 L93.2188,3324.5901 L88.7969,3324.5901 L88.7969,3327.3401 L93.4531,3327.3401 L93.4531,3329.2151 L86.7031,3329.2151 Z " fill="#000000"/><text fill="#000000" font-family="sans-serif" font-size="15" lengthAdjust="spacing" textLength="131" x="134" y="3330.0351">QuestionCollection</text><line style="stroke:#181818;stroke-width:0.5;" x1="76" x2="297" y1="3369.4301" y2="3369.4301"/><line style="stroke:#181818;stroke-width:0.5;" x1="76" x2="297" y1="3377.4301" y2="3377.4301"/></g><!--class Question--><g id="elem_Question"><rect codeLine="41" fill="#F1F1F1" height="106.4301" id="Question" rx="4" ry="4" style="stroke:#181818;stroke-width:0.5;" width="155" x="109" y="2796"/><ellipse cx="124" cy="2841.2151" fill="#ADD1B2" rx="11" ry="11" style="stroke:#181818;stroke-width:1.0;"/><path d="M120.7031,2846.2151 L120.7031,2835.5119 L127.4531,2835.5119 L127.4531,2837.3869 L122.7969,2837.3869 L122.7969,2839.7151 L127.2188,2839.7151 L127.2188,2841.5901 L122.7969,2841.5901 L122.7969,2844.3401 L127.4531,2844.3401 L127.4531,2846.2151 L120.7031,2846.2151 Z " fill="#000000"/><text fill="#000000" font-family="sans-serif" font-size="15" lengthAdjust="spacing" textLength="63" x="168" y="2847.0351">Question</text><line style="stroke:#181818;stroke-width:0.5;" x1="110" x2="263" y1="2886.4301" y2="2886.4301"/><line style="stroke:#181818;stroke-width:0.5;" x1="110" x2="263" y1="2894.4301" y2="2894.4301"/></g><!--class QCP--><g id="elem_QCP"><rect codeLine="43" fill="#F1F1F1" height="106.4301" id="QCP" rx="4" ry="4" style="stroke:#181818;stroke-width:0.5;" width="258" x="535.5" y="3102"/><ellipse cx="550.5" cy="3147.2151" fill="#ADD1B2" rx="11" ry="11" style="stroke:#181818;stroke-width:1.0;"/><path d="M547.2031,3152.2151 L547.2031,3141.5119 L553.9531,3141.5119 L553.9531,3143.3869 L549.2969,3143.3869 L549.2969,3145.7151 L553.7188,3145.7151 L553.7188,3147.5901 L549.2969,3147.5901 L549.2969,3150.3401 L553.9531,3150.3401 L553.9531,3152.2151 L547.2031,3152.2151 Z " fill="#000000"/><text fill="#000000" font-family="sans-serif" font-size="15" lengthAdjust="spacing" textLength="166" x="594.5" y="3153.0351">QuestionCollectionPivot</text><line style="stroke:#181818;stroke-width:0.5;" x1="536.5" x2="792.5" y1="3192.4301" y2="3192.4301"/><line style="stroke:#181818;stroke-width:0.5;" x1="536.5" x2="792.5" y1="3200.4301" y2="3200.4301"/></g><!--class QCCP--><g id="elem_QCCP"><rect codeLine="44" fill="#F1F1F1" height="106.4301" id="QCCP" rx="4" ry="4" style="stroke:#181818;stroke-width:0.5;" width="293" x="962" y="2596"/><ellipse cx="977" cy="2641.2151" fill="#ADD1B2" rx="11" ry="11" style="stroke:#181818;stroke-width:1.0;"/><path d="M973.7031,2646.2151 L973.7031,2635.5119 L980.4531,2635.5119 L980.4531,2637.3869 L975.7969,2637.3869 L975.7969,2639.7151 L980.2188,2639.7151 L980.2188,2641.5901 L975.7969,2641.5901 L975.7969,2644.3401 L980.4531,2644.3401 L980.4531,2646.2151 L973.7031,2646.2151 Z " fill="#000000"/><text fill="#000000" font-family="sans-serif" font-size="15" lengthAdjust="spacing" textLength="201" x="1021" y="2647.0351">QuestionCollectionClassPivot</text><line style="stroke:#181818;stroke-width:0.5;" x1="963" x2="1254" y1="2686.4301" y2="2686.4301"/><line style="stroke:#181818;stroke-width:0.5;" x1="963" x2="1254" y1="2694.4301" y2="2694.4301"/></g><!--class Alternative--><g id="elem_Alternative"><rect codeLine="46" fill="#F1F1F1" height="106.4301" id="Alternative" rx="4" ry="4" style="stroke:#181818;stroke-width:0.5;" width="167" x="581" y="2796"/><ellipse cx="596" cy="2841.2151" fill="#ADD1B2" rx="11" ry="11" style="stroke:#181818;stroke-width:1.0;"/><path d="M592.7031,2846.2151 L592.7031,2835.5119 L599.4531,2835.5119 L599.4531,2837.3869 L594.7969,2837.3869 L594.7969,2839.7151 L599.2188,2839.7151 L599.2188,2841.5901 L594.7969,2841.5901 L594.7969,2844.3401 L599.4531,2844.3401 L599.4531,2846.2151 L592.7031,2846.2151 Z " fill="#000000"/><text fill="#000000" font-family="sans-serif" font-size="15" lengthAdjust="spacing" textLength="75" x="640" y="2847.0351">Alternative</text><line style="stroke:#181818;stroke-width:0.5;" x1="582" x2="747" y1="2886.4301" y2="2886.4301"/><line style="stroke:#181818;stroke-width:0.5;" x1="582" x2="747" y1="2894.4301" y2="2894.4301"/></g><!--class QAns--><g id="elem_QAns"><rect codeLine="47" fill="#F1F1F1" height="106.4301" id="QAns" rx="4" ry="4" style="stroke:#181818;stroke-width:0.5;" width="207" x="561" y="2138"/><ellipse cx="576" cy="2183.2151" fill="#ADD1B2" rx="11" ry="11" style="stroke:#181818;stroke-width:1.0;"/><path d="M572.7031,2188.2151 L572.7031,2177.5119 L579.4531,2177.5119 L579.4531,2179.3869 L574.7969,2179.3869 L574.7969,2181.7151 L579.2188,2181.7151 L579.2188,2183.5901 L574.7969,2183.5901 L574.7969,2186.3401 L579.4531,2186.3401 L579.4531,2188.2151 L572.7031,2188.2151 Z " fill="#000000"/><text fill="#000000" font-family="sans-serif" font-size="15" lengthAdjust="spacing" textLength="115" x="620" y="2189.0351">QuestionAnswer</text><line style="stroke:#181818;stroke-width:0.5;" x1="562" x2="767" y1="2228.4301" y2="2228.4301"/><line style="stroke:#181818;stroke-width:0.5;" x1="562" x2="767" y1="2236.4301" y2="2236.4301"/></g><g id="elem_GMN41"><path d="M522.5,776.35 L522.5,920.0706 A4,4 0 0 0 526.5,924.0706 L661,924.0706 L665,1123.65 L669,924.0706 L802.5,924.0706 A4,4 0 0 0 806.5,920.0706 L806.5,782.35 L796.5,772.35 L526.5,772.35 A4,4 0 0 0 522.5,776.35 " fill="#FEFFDD" style="stroke:#181818;stroke-width:0.5;"/><path d="M796.5,772.35 L796.5,780.35 A2,2 0 0 0 798.5,782.35 L806.5,782.35 L796.5,772.35 " fill="#FEFFDD" style="stroke:#181818;stroke-width:0.5;"/><text fill="#000000" font-family="sans-serif" font-size="15" font-weight="bold" lengthAdjust="spacing" textLength="131" x="558.5" y="823.3851">Habilidades BNCC</text><text fill="#000000" font-family="sans-serif" font-size="15" lengthAdjust="spacing" textLength="154" x="558.5" y="843.8153">Exemplo: (EF01MA01)</text><text fill="#000000" font-family="sans-serif" font-size="15" lengthAdjust="spacing" textLength="203" x="558.5" y="864.2454">Usado para an&#225;lise detalhada</text><text fill="#000000" font-family="sans-serif" font-size="15" lengthAdjust="spacing" textLength="191" x="558.5" y="884.6755">do desempenho dos alunos</text></g><g id="elem_GMN44"><path d="M6,3589.14 L6,3753.2907 A4,4 0 0 0 10,3757.2907 L363,3757.2907 A4,4 0 0 0 367,3753.2907 L367,3595.14 L357,3585.14 L191,3585.14 L187,3385.56 L183,3585.14 L10,3585.14 A4,4 0 0 0 6,3589.14 " fill="#FEFFDD" style="stroke:#181818;stroke-width:0.5;"/><path d="M357,3585.14 L357,3593.14 A2,2 0 0 0 359,3595.14 L367,3595.14 L357,3585.14 " fill="#FEFFDD" style="stroke:#181818;stroke-width:0.5;"/><text fill="#000000" font-family="sans-serif" font-size="15" font-weight="bold" lengthAdjust="spacing" textLength="164" x="42" y="3636.1751">Cole&#231;&#245;es de Quest&#245;es</text><text fill="#000000" font-family="sans-serif" font-size="15" lengthAdjust="spacing" textLength="157" x="42" y="3656.6053">N:N com Class porque:</text><text fill="#000000" font-family="sans-serif" font-size="15" lengthAdjust="spacing" textLength="225" x="42" y="3677.0354">&#8226; Uma turma usa v&#225;rias cole&#231;&#245;es</text><text fill="#000000" font-family="sans-serif" font-size="15" lengthAdjust="spacing" textLength="280" x="42" y="3697.4655">&#8226; Uma cole&#231;&#227;o &#233; usada em v&#225;rias turmas</text><text fill="#000000" font-family="sans-serif" font-size="15" lengthAdjust="spacing" textLength="246" x="42" y="3717.8957">&#8226; Cole&#231;&#245;es p&#250;blicas s&#227;o reutiliz&#225;veis</text></g><g id="elem_GMN47"><path d="M517,2448.35 L517,2592.0706 A4,4 0 0 0 521,2596.0706 L808,2596.0706 A4,4 0 0 0 812,2592.0706 L812,2454.35 L802,2444.35 L669,2444.35 L665,2244.81 L661,2444.35 L521,2444.35 A4,4 0 0 0 517,2448.35 " fill="#FEFFDD" style="stroke:#181818;stroke-width:0.5;"/><path d="M802,2444.35 L802,2452.35 A2,2 0 0 0 804,2454.35 L812,2454.35 L802,2444.35 " fill="#FEFFDD" style="stroke:#181818;stroke-width:0.5;"/><text fill="#000000" font-family="sans-serif" font-size="15" font-weight="bold" lengthAdjust="spacing" textLength="214" x="553" y="2495.3851">Respostas armazenadas em:</text><text fill="#000000" font-family="sans-serif" font-size="15" lengthAdjust="spacing" textLength="148" x="553" y="2515.8153">&#8226; Simulados especiais</text><text fill="#000000" font-family="sans-serif" font-size="15" lengthAdjust="spacing" textLength="149" x="553" y="2536.2454">&#8226; Atividades de turma</text><text fill="#000000" font-family="sans-serif" font-size="15" lengthAdjust="spacing" textLength="173" x="553" y="2556.6755">&#8226; Eventos e campeonatos</text></g><!--link User to Skill--><g id="link_User_Skill"><path codeLine="52" d="M248.75,1660.21 C292.77,1660.21 344,1660.21 344,1660.21 C344,1660.21 344,1194.95 344,1194.95 C344,1194.95 511.38,1194.95 604.22,1194.95 " fill="none" id="User-Skill" style="stroke:#181818;stroke-width:1.0;stroke-dasharray:7.0,7.0;"/><text fill="#000000" font-family="sans-serif" font-size="13" lengthAdjust="spacing" textLength="7" x="286.3801" y="1624.0668">1</text><text fill="#000000" font-family="sans-serif" font-size="13" lengthAdjust="spacing" textLength="10" x="556.6274" y="1243.3564">N</text></g><!--link User to Topic--><g id="link_User_Topic"><path codeLine="53" d="M248.63,1642.48 C283.87,1642.48 321,1642.48 321,1642.48 C321,1642.48 321,536.95 321,536.95 C321,536.95 500.39,536.95 599.89,536.95 " fill="none" id="User-Topic" style="stroke:#181818;stroke-width:1.0;stroke-dasharray:7.0,7.0;"/><text fill="#000000" font-family="sans-serif" font-size="13" lengthAdjust="spacing" textLength="7" x="234.1761" y="1565.3699">1</text><text fill="#000000" font-family="sans-serif" font-size="13" lengthAdjust="spacing" textLength="10" x="551.9523" y="585.3564">N</text></g><!--link Discipline to Skill--><g id="link_Discipline_Skill"><path codeLine="56" d="M266.24,1159.48 C361.46,1159.48 518.59,1159.48 604.25,1159.48 " fill="none" id="Discipline-Skill" style="stroke:#181818;stroke-width:1.0;"/><text fill="#000000" font-family="sans-serif" font-size="13" lengthAdjust="spacing" textLength="7" x="303.8483" y="1204.7959">1</text><text fill="#000000" font-family="sans-serif" font-size="13" lengthAdjust="spacing" textLength="10" x="556.3621" y="1121.7493">N</text></g><!--link Discipline to Topic--><g id="link_Discipline_Topic"><path codeLine="57" d="M187,1123.63 C187,963.8 187,501.48 187,501.48 C187,501.48 469.05,501.48 599.61,501.48 " fill="none" id="Discipline-Topic" style="stroke:#181818;stroke-width:1.0;"/><text fill="#000000" font-family="sans-serif" font-size="13" lengthAdjust="spacing" textLength="7" x="146.9578" y="1082.0705">1</text><text fill="#000000" font-family="sans-serif" font-size="13" lengthAdjust="spacing" textLength="10" x="551.9622" y="464.0985">N</text></g><!--link Discipline to Class--><g id="link_Discipline_Class"><path codeLine="58" d="M259,1230.87 C259,1318.63 259,1483.21 259,1483.21 C259,1483.21 486.5,1483.21 600.69,1483.21 " fill="none" id="Discipline-Class" style="stroke:#181818;stroke-width:1.0;"/><text fill="#000000" font-family="sans-serif" font-size="13" lengthAdjust="spacing" textLength="7" x="225.2297" y="1282.4278">1</text><text fill="#000000" font-family="sans-serif" font-size="13" lengthAdjust="spacing" textLength="10" x="553.1249" y="1530.0813">N</text></g><!--link Skill to ST--><g id="link_Skill_ST"><path codeLine="61" d="M724.91,1177.21 C846.44,1177.21 1109,1177.21 1109,1177.21 C1109,1177.21 1109,995.03 1109,901.81 " fill="none" id="Skill-ST" style="stroke:#181818;stroke-width:1.0;"/><text fill="#000000" font-family="sans-serif" font-size="13" lengthAdjust="spacing" textLength="10" x="762.513" y="1224.2027">N</text><text fill="#000000" font-family="sans-serif" font-size="13" lengthAdjust="spacing" textLength="7" x="1069.2672" y="953.3629">1</text></g><!--link Topic to ST--><g id="link_Topic_ST"><path codeLine="62" d="M729.13,519.21 C852.42,519.21 1109,519.21 1109,519.21 C1109,519.21 1109,701.4 1109,794.62 " fill="none" id="Topic-ST" style="stroke:#181818;stroke-width:1.0;"/><text fill="#000000" font-family="sans-serif" font-size="13" lengthAdjust="spacing" textLength="10" x="767.0693" y="566.2027">N</text><text fill="#000000" font-family="sans-serif" font-size="13" lengthAdjust="spacing" textLength="7" x="1068.9578" y="753.0595">1</text></g><!--link Topic to Content--><g id="link_Topic_Content"><path codeLine="65" d="M665,465.76 C665,427.95 665,383.95 665,383.95 C665,383.95 909.3,383.95 1035.26,383.95 " fill="none" id="Topic-Content" style="stroke:#181818;stroke-width:1.0;"/><text fill="#000000" font-family="sans-serif" font-size="13" lengthAdjust="spacing" textLength="7" x="698.1344" y="424.2124">1</text><text fill="#000000" font-family="sans-serif" font-size="13" lengthAdjust="spacing" textLength="10" x="987.6494" y="431.8259">N</text></g><!--link CT to Content--><g id="link_CT_Content"><path codeLine="68" d="M742,266.67 C742,304.48 742,348.48 742,348.48 C742,348.48 928.26,348.48 1035.21,348.48 " fill="none" id="CT-Content" style="stroke:#181818;stroke-width:1.0;"/><text fill="#000000" font-family="sans-serif" font-size="13" lengthAdjust="spacing" textLength="7" x="708.6438" y="318.2113">1</text><text fill="#000000" font-family="sans-serif" font-size="13" lengthAdjust="spacing" textLength="10" x="987.5959" y="311.4478">N</text></g><!--link Content to CA--><g id="link_Content_CA"><path codeLine="71" d="M1181.67,339.61 C1272.05,339.61 1414,339.61 1414,339.61 C1414,339.61 1414,194.88 1414,113.75 " fill="none" id="Content-CA" style="stroke:#181818;stroke-width:1.0;"/><text fill="#000000" font-family="sans-serif" font-size="13" lengthAdjust="spacing" textLength="7" x="1219.5036" y="301.7518">1</text><text fill="#000000" font-family="sans-serif" font-size="13" lengthAdjust="spacing" textLength="10" x="1362.4891" y="165.2979">N</text></g><!--link Content to CTag--><g id="link_Content_CTag"><path codeLine="72" d="M1181.71,366.21 C1251.99,366.21 1358.13,366.21 1432.31,366.21 " fill="none" id="Content-CTag" style="stroke:#181818;stroke-width:1.0;"/><text fill="#000000" font-family="sans-serif" font-size="13" lengthAdjust="spacing" textLength="10" x="1219.6567" y="412.9599">N</text><text fill="#000000" font-family="sans-serif" font-size="13" lengthAdjust="spacing" textLength="10" x="1384.5783" y="412.5957">N</text></g><!--link Content to CI--><g id="link_Content_CI"><path codeLine="73" d="M1181.8,392.82 C1276.13,392.82 1428,392.82 1428,392.82 C1428,392.82 1428,537.55 1428,618.68 " fill="none" id="Content-CI" style="stroke:#181818;stroke-width:1.0;"/><text fill="#000000" font-family="sans-serif" font-size="13" lengthAdjust="spacing" textLength="10" x="1162.3863" y="471.9007">N</text><text fill="#000000" font-family="sans-serif" font-size="13" lengthAdjust="spacing" textLength="10" x="1376.4766" y="577.1251">N</text></g><!--link User to UserClass--><g id="link_User_UserClass"><path codeLine="76" d="M248.79,1677.95 C411.31,1677.95 848.11,1677.95 1028.69,1677.95 " fill="none" id="User-UserClass" style="stroke:#181818;stroke-width:1.0;"/><text fill="#000000" font-family="sans-serif" font-size="13" lengthAdjust="spacing" textLength="7" x="233.7424" y="1764.9953">1</text><text fill="#000000" font-family="sans-serif" font-size="13" lengthAdjust="spacing" textLength="10" x="980.9762" y="1725.649">N</text></g><!--link Class to UserClass--><g id="link_Class_UserClass"><path codeLine="77" d="M665,1536.72 C665,1576.8 665,1624.74 665,1624.74 C665,1624.74 901.01,1624.74 1028.7,1624.74 " fill="none" id="Class-UserClass" style="stroke:#181818;stroke-width:1.0;"/><text fill="#000000" font-family="sans-serif" font-size="13" lengthAdjust="spacing" textLength="7" x="697.8156" y="1588.2654">1</text><text fill="#000000" font-family="sans-serif" font-size="13" lengthAdjust="spacing" textLength="10" x="980.9869" y="1586.6905">N</text></g><!--link QC to QCP--><g id="link_QC_QCP"><path codeLine="80" d="M287,3278.63 C287,3226.53 287,3155.21 287,3155.21 C287,3155.21 425.84,3155.21 535.11,3155.21 " fill="none" id="QC-QCP" style="stroke:#181818;stroke-width:1.0;"/><text fill="#000000" font-family="sans-serif" font-size="13" lengthAdjust="spacing" textLength="7" x="329.3531" y="3237.0705">1</text><text fill="#000000" font-family="sans-serif" font-size="13" lengthAdjust="spacing" textLength="10" x="487.6611" y="3200.8673">N</text></g><!--link QC to QCCP--><g id="link_QC_QCCP"><path codeLine="81" d="M277,3278.62 C277,3117.62 277,2649.25 277,2649.25 C277,2649.25 723.05,2649.25 961.76,2649.25 " fill="none" id="QC-QCCP" style="stroke:#181818;stroke-width:1.0;"/><text fill="#000000" font-family="sans-serif" font-size="13" lengthAdjust="spacing" textLength="7" x="245.2547" y="3237.0595">1</text><text fill="#000000" font-family="sans-serif" font-size="13" lengthAdjust="spacing" textLength="10" x="914.0928" y="2694.7876">N</text></g><!--link Question to QCP--><g id="link_Question_QCP"><path codeLine="84" d="M264.38,2866.95 C373.31,2866.95 558,2866.95 558,2866.95 C558,2866.95 558,3018.31 558,3101.67 " fill="none" id="Question-QCP" style="stroke:#181818;stroke-width:1.0;"/><text fill="#000000" font-family="sans-serif" font-size="13" lengthAdjust="spacing" textLength="7" x="301.8633" y="2914.649">1</text><text fill="#000000" font-family="sans-serif" font-size="13" lengthAdjust="spacing" textLength="10" x="504.9555" y="3060.1142">N</text></g><!--link Question to Alternative--><g id="link_Question_Alternative"><path codeLine="85" d="M264.36,2831.48 C351.27,2831.48 491.37,2831.48 580.64,2831.48 " fill="none" id="Question-Alternative" style="stroke:#181818;stroke-width:1.0;"/><text fill="#000000" font-family="sans-serif" font-size="13" lengthAdjust="spacing" textLength="7" x="301.842" y="2794.6224">1</text><text fill="#000000" font-family="sans-serif" font-size="13" lengthAdjust="spacing" textLength="10" x="533.0255" y="2876.7299">N</text></g><!--link Question to QAns--><g id="link_Question_QAns"><path codeLine="86" d="M254,2795.65 C254,2638.75 254,2191.21 254,2191.21 C254,2191.21 439.04,2191.21 560.65,2191.21 " fill="none" id="Question-QAns" style="stroke:#181818;stroke-width:1.0;"/><text fill="#000000" font-family="sans-serif" font-size="13" lengthAdjust="spacing" textLength="7" x="220.1344" y="2754.0923">1</text><text fill="#000000" font-family="sans-serif" font-size="13" lengthAdjust="spacing" textLength="10" x="513.0566" y="2237.2315">N</text></g><!--link Class to QCCP--><g id="link_Class_QCCP"><path codeLine="89" d="M728.42,1483.21 C824.75,1483.21 996,1483.21 996,1483.21 C996,1483.21 996,2366.99 996,2595.7 " fill="none" id="Class-QCCP" style="stroke:#181818;stroke-width:1.0;"/><text fill="#000000" font-family="sans-serif" font-size="13" lengthAdjust="spacing" textLength="7" x="765.8787" y="1447.186">1</text><text fill="#000000" font-family="sans-serif" font-size="13" lengthAdjust="spacing" textLength="10" x="942.4023" y="2554.1469">N</text></g><!--link User to QAns--><g id="link_User_QAns"><path codeLine="92" d="M248.57,1695.69 C359.67,1695.69 581,1695.69 581,1695.69 C581,1695.69 581,2009.58 581,2137.71 " fill="none" id="User-QAns" style="stroke:#181818;stroke-width:1.0;"/><text fill="#000000" font-family="sans-serif" font-size="13" lengthAdjust="spacing" textLength="7" x="286.4844" y="1745.7423">1</text><text fill="#000000" font-family="sans-serif" font-size="13" lengthAdjust="spacing" textLength="10" x="530.0758" y="2096.1578">N</text></g><!--SRC=[VLLDRkCs5Dxh50_k8WcGfFOCKXH16a2ZEcY0YJCUEmUW9SOcJ94gIJcJhEOgQHT53z1Djxv9JzB77qkCfLW63Efzt_lu-7uelMQY8egKKD17KdDp8uMPiHSAeuj4Do0LXfddVYnLIZwrqCUEsoUIhvTArgB899SAVhYviBykJwg2gi3voJtlSEOhbgy5rHe-H0pE1Er7z8eKyec99JmIhcc4kB1ogGHLyFEUbdckA4XbLZ82Ab8KLkZZC38AML1DA_WmZAsAYBMrZYw6ISBfem4ZGR7boa315CqDao99_BbWyA2f6W3HO1Uj-LUcSrRPS1pOlhQKsPfnxb2tQknpMR7SsTrgpw55P_CMoh2Ek9xZqHsMTJ5lz-iEc1f3ybNPqDAECba6ORBSnsvBiWpRtaRAd6ZjhNRrDcCjsBorX6bDjKqojXJtwNRCQTQbU22y75BumZRI19al1tWkb9YCx8QUSaEL88Pj_76ZzuvaAlHJw8mfhfFa27xfUU3h-7EQtTvFqhlnP7u_woLPPvido6Kf8LSCnqB1CRRJ2kKhh0BZE2f4doIEDXWDuFmS1fD1QArzQsYiewWluUpQaqyzUXhA5Z6imDbP9DkFUV5-B5Jwo0l05Mxgw70ykPp0XX7iwfF4WvPltT0RMztJtjfGnvjHPjVPWHTjkMlv8uYc97R9veVvbjiEYCO4aIN-kxRNoOuKIwIjTT9QxUZqsM-R-jfyk1Ir-MZc8wfjS6n7n_lqGYZTxN9Gb1Exq2jMwMIQnRvsGFOjTWfQeNttdNbVfCSUZqolNvWLVo9CXzkxSxvTH2ubjZnksdGdHGT7Rt8_JzyRE24DnNk_0laOcXtmkLfS_qOMZBE2u9S3FasoxEh7nRN3njzeMN5v2SVZc-7eBXsEJfpzGUEqWlsq017RLyuqnO-s8MvY7GDX-nqgAofMk9GQ2A-5r7Yd56032U4if36oj17XLHZ2mPhIxL_RVp2QWle2sPScAjj6U6k4V5PI_LxJIuVyz_qFU2W9c5hXVwq9RBQlUBLevEyqtn23-Ky9sxyjlo10oyR9oRGEKLpLzjy5Ppboj7LMjCRhYhriNpUK7JgZBLquvLUgAwaDIX3SvOKAUzdXxfVDEUsUCrRMdDZy8PtcZB0sdXGxBbGDy-I2RR3n1YVIUa5Ei0WIspDE_ly0]--></g></svg>