<?xml version="1.0" encoding="us-ascii" standalone="no"?><svg xmlns="http://www.w3.org/2000/svg" xmlns:xlink="http://www.w3.org/1999/xlink" contentStyleType="text/css" height="631px" preserveAspectRatio="none" style="width:1064px;height:631px;background:#FFFFFF;" version="1.1" viewBox="0 0 1064 631" width="1064px" zoomAndPan="magnify"><defs/><g><rect fill="#FFFFFF" height="388.7481" style="stroke:#181818;stroke-width:1.0;" width="10" x="459" y="149.4799"/><rect fill="#FFFFFF" height="357.0421" style="stroke:#181818;stroke-width:1.0;" width="10" x="690" y="181.186"/><rect fill="#FFFFFF" height="31.706" style="stroke:#181818;stroke-width:1.0;" width="10" x="898" y="212.892"/><rect fill="#FFFFFF" height="31.706" style="stroke:#181818;stroke-width:1.0;" width="10" x="990" y="347.716"/><rect fill="none" height="226.924" style="stroke:#000000;stroke-width:1.5;" width="1047" x="10" y="304.304"/><line style="stroke:#181818;stroke-width:0.5;stroke-dasharray:5.0,5.0;" x1="49" x2="49" y1="84.0679" y2="548.228"/><line style="stroke:#181818;stroke-width:0.5;stroke-dasharray:5.0,5.0;" x1="463.5" x2="463.5" y1="84.0679" y2="548.228"/><line style="stroke:#181818;stroke-width:0.5;stroke-dasharray:5.0,5.0;" x1="694.5" x2="694.5" y1="84.0679" y2="548.228"/><line style="stroke:#181818;stroke-width:0.5;stroke-dasharray:5.0,5.0;" x1="903" x2="903" y1="84.0679" y2="548.228"/><line style="stroke:#181818;stroke-width:0.5;stroke-dasharray:5.0,5.0;" x1="995" x2="995" y1="84.0679" y2="548.228"/><text fill="#000000" font-family="sans-serif" font-size="14" lengthAdjust="spacing" textLength="52" x="20" y="79.9659">Usu&#225;rio</text><ellipse cx="49" cy="13.5" fill="#E2E2F0" rx="8" ry="8" style="stroke:#181818;stroke-width:0.5;"/><path d="M49,21.5 L49,48.5 M36,29.5 L62,29.5 M49,48.5 L36,63.5 M49,48.5 L62,63.5 " fill="none" style="stroke:#181818;stroke-width:0.5;"/><text fill="#000000" font-family="sans-serif" font-size="14" lengthAdjust="spacing" textLength="52" x="20" y="562.194">Usu&#225;rio</text><ellipse cx="49" cy="574.7959" fill="#E2E2F0" rx="8" ry="8" style="stroke:#181818;stroke-width:0.5;"/><path d="M49,582.7959 L49,609.7959 M36,590.7959 L62,590.7959 M49,609.7959 L36,624.7959 M49,609.7959 L62,624.7959 " fill="none" style="stroke:#181818;stroke-width:0.5;"/><rect fill="#E2E2F0" height="52.1358" rx="2.5" ry="2.5" style="stroke:#181818;stroke-width:0.5;" width="83" x="422.5" y="30.9321"/><text fill="#000000" font-family="sans-serif" font-size="14" lengthAdjust="spacing" textLength="61" x="433.5" y="52.898">Web App</text><text fill="#000000" font-family="sans-serif" font-size="14" lengthAdjust="spacing" textLength="69" x="429.5" y="71.9659">(Frontend)</text><rect fill="#E2E2F0" height="52.1358" rx="2.5" ry="2.5" style="stroke:#181818;stroke-width:0.5;" width="83" x="422.5" y="547.228"/><text fill="#000000" font-family="sans-serif" font-size="14" lengthAdjust="spacing" textLength="61" x="433.5" y="569.194">Web App</text><text fill="#000000" font-family="sans-serif" font-size="14" lengthAdjust="spacing" textLength="69" x="429.5" y="588.2619">(Frontend)</text><rect fill="#E2E2F0" height="52.1358" rx="2.5" ry="2.5" style="stroke:#181818;stroke-width:0.5;" width="79" x="655.5" y="30.9321"/><text fill="#000000" font-family="sans-serif" font-size="14" lengthAdjust="spacing" textLength="58" x="666" y="52.898">Auth API</text><text fill="#000000" font-family="sans-serif" font-size="14" lengthAdjust="spacing" textLength="65" x="662.5" y="71.9659">(Backend)</text><rect fill="#E2E2F0" height="52.1358" rx="2.5" ry="2.5" style="stroke:#181818;stroke-width:0.5;" width="79" x="655.5" y="547.228"/><text fill="#000000" font-family="sans-serif" font-size="14" lengthAdjust="spacing" textLength="58" x="666" y="569.194">Auth API</text><text fill="#000000" font-family="sans-serif" font-size="14" lengthAdjust="spacing" textLength="65" x="662.5" y="588.2619">(Backend)</text><text fill="#000000" font-family="sans-serif" font-size="14" lengthAdjust="spacing" textLength="54" x="873" y="79.9659">User DB</text><path d="M885,29 C885,19 903,19 903,19 C903,19 921,19 921,29 L921,55 C921,65 903,65 903,65 C903,65 885,65 885,55 L885,29 " fill="#E2E2F0" style="stroke:#181818;stroke-width:1.5;"/><path d="M885,29 C885,39 903,39 903,39 C903,39 921,39 921,29 " fill="none" style="stroke:#181818;stroke-width:1.5;"/><text fill="#000000" font-family="sans-serif" font-size="14" lengthAdjust="spacing" textLength="54" x="873" y="562.194">User DB</text><path d="M885,576.2959 C885,566.2959 903,566.2959 903,566.2959 C903,566.2959 921,566.2959 921,576.2959 L921,602.2959 C921,612.2959 903,612.2959 903,612.2959 C903,612.2959 885,612.2959 885,602.2959 L885,576.2959 " fill="#E2E2F0" style="stroke:#181818;stroke-width:1.5;"/><path d="M885,576.2959 C885,586.2959 903,586.2959 903,586.2959 C903,586.2959 921,586.2959 921,576.2959 " fill="none" style="stroke:#181818;stroke-width:1.5;"/><rect fill="#E2E2F0" height="33.0679" rx="2.5" ry="2.5" style="stroke:#181818;stroke-width:0.5;" width="104" x="943" y="50"/><text fill="#000000" font-family="sans-serif" font-size="14" lengthAdjust="spacing" textLength="90" x="950" y="71.9659">Session Store</text><rect fill="#E2E2F0" height="33.0679" rx="2.5" ry="2.5" style="stroke:#181818;stroke-width:0.5;" width="104" x="943" y="547.228"/><text fill="#000000" font-family="sans-serif" font-size="14" lengthAdjust="spacing" textLength="90" x="950" y="569.194">Session Store</text><rect fill="#FFFFFF" height="388.7481" style="stroke:#181818;stroke-width:1.0;" width="10" x="459" y="149.4799"/><rect fill="#FFFFFF" height="357.0421" style="stroke:#181818;stroke-width:1.0;" width="10" x="690" y="181.186"/><rect fill="#FFFFFF" height="31.706" style="stroke:#181818;stroke-width:1.0;" width="10" x="898" y="212.892"/><rect fill="#FFFFFF" height="31.706" style="stroke:#181818;stroke-width:1.0;" width="10" x="990" y="347.716"/><polygon fill="#181818" points="452,113.7739,462,117.7739,452,121.7739,456,117.7739" style="stroke:#181818;stroke-width:1.0;"/><line style="stroke:#181818;stroke-width:1.0;" x1="49" x2="458" y1="117.7739" y2="117.7739"/><text fill="#000000" font-family="sans-serif" font-size="13" lengthAdjust="spacing" textLength="123" x="56" y="111.9649">Abre p&#225;gina de login</text><polygon fill="#181818" points="447,145.4799,457,149.4799,447,153.4799,451,149.4799" style="stroke:#181818;stroke-width:1.0;"/><line style="stroke:#181818;stroke-width:1.0;" x1="49" x2="453" y1="149.4799" y2="149.4799"/><text fill="#000000" font-family="sans-serif" font-size="13" lengthAdjust="spacing" textLength="186" x="56" y="143.6709">Envia credenciais (email, senha)</text><polygon fill="#181818" points="678,177.186,688,181.186,678,185.186,682,181.186" style="stroke:#181818;stroke-width:1.0;"/><line style="stroke:#181818;stroke-width:1.0;" x1="469" x2="684" y1="181.186" y2="181.186"/><text fill="#000000" font-family="sans-serif" font-size="13" lengthAdjust="spacing" textLength="202" x="476" y="175.377">POST /api/login {email, password}</text><polygon fill="#181818" points="886,208.892,896,212.892,886,216.892,890,212.892" style="stroke:#181818;stroke-width:1.0;"/><line style="stroke:#181818;stroke-width:1.0;" x1="700" x2="892" y1="212.892" y2="212.892"/><text fill="#000000" font-family="sans-serif" font-size="13" lengthAdjust="spacing" textLength="155" x="707" y="207.083">Procura no DB credenciais</text><polygon fill="#181818" points="711,240.598,701,244.598,711,248.598,707,244.598" style="stroke:#181818;stroke-width:1.0;"/><line style="stroke:#181818;stroke-width:1.0;stroke-dasharray:2.0,2.0;" x1="705" x2="902" y1="244.598" y2="244.598"/><text fill="#000000" font-family="sans-serif" font-size="13" lengthAdjust="spacing" textLength="174" x="717" y="238.789">user record + password_hash</text><line style="stroke:#181818;stroke-width:1.0;" x1="700" x2="742" y1="276.304" y2="276.304"/><line style="stroke:#181818;stroke-width:1.0;" x1="742" x2="742" y1="276.304" y2="289.304"/><line style="stroke:#181818;stroke-width:1.0;" x1="701" x2="742" y1="289.304" y2="289.304"/><polygon fill="#181818" points="711,285.304,701,289.304,711,293.304,707,289.304" style="stroke:#181818;stroke-width:1.0;"/><text fill="#000000" font-family="sans-serif" font-size="13" lengthAdjust="spacing" textLength="143" x="707" y="270.495">verificar password_hash</text><path d="M10,304.304 L73,304.304 L73,314.01 L63,324.01 L10,324.01 L10,304.304 " fill="#EEEEEE" style="stroke:#000000;stroke-width:1.5;"/><rect fill="none" height="226.924" style="stroke:#000000;stroke-width:1.5;" width="1047" x="10" y="304.304"/><text fill="#000000" font-family="sans-serif" font-size="13" font-weight="bold" lengthAdjust="spacing" textLength="18" x="25" y="319.201">alt</text><text fill="#000000" font-family="sans-serif" font-size="11" font-weight="bold" lengthAdjust="spacing" textLength="78" x="88" y="318.0629">[senha v&#225;lida]</text><polygon fill="#181818" points="978,343.716,988,347.716,978,351.716,982,347.716" style="stroke:#181818;stroke-width:1.0;"/><line style="stroke:#181818;stroke-width:1.0;" x1="700" x2="984" y1="347.716" y2="347.716"/><text fill="#000000" font-family="sans-serif" font-size="13" lengthAdjust="spacing" textLength="149" x="707" y="341.907">criar sess&#227;o / token (JWT)</text><polygon fill="#181818" points="711,375.4221,701,379.4221,711,383.4221,707,379.4221" style="stroke:#181818;stroke-width:1.0;"/><line style="stroke:#181818;stroke-width:1.0;stroke-dasharray:2.0,2.0;" x1="705" x2="994" y1="379.4221" y2="379.4221"/><text fill="#000000" font-family="sans-serif" font-size="13" lengthAdjust="spacing" textLength="104" x="717" y="373.6131">token / session id</text><polygon fill="#181818" points="480,407.1281,470,411.1281,480,415.1281,476,411.1281" style="stroke:#181818;stroke-width:1.0;"/><line style="stroke:#181818;stroke-width:1.0;" x1="474" x2="689" y1="411.1281" y2="411.1281"/><text fill="#000000" font-family="sans-serif" font-size="13" lengthAdjust="spacing" textLength="148" x="486" y="405.3191">200 OK {token, user info}</text><polygon fill="#181818" points="60,438.8341,50,442.8341,60,446.8341,56,442.8341" style="stroke:#181818;stroke-width:1.0;"/><line style="stroke:#181818;stroke-width:1.0;" x1="54" x2="458" y1="442.8341" y2="442.8341"/><text fill="#000000" font-family="sans-serif" font-size="13" lengthAdjust="spacing" textLength="386" x="66" y="437.0251">Redirecionar para dashboard / salvar token (cookie/localStorage)</text><line style="stroke:#000000;stroke-width:1.0;stroke-dasharray:2.0,2.0;" x1="10" x2="1057" y1="451.8341" y2="451.8341"/><text fill="#000000" font-family="sans-serif" font-size="11" font-weight="bold" lengthAdjust="spacing" textLength="88" x="15" y="463.593">[senha inv&#225;lida]</text><polygon fill="#181818" points="480,487.522,470,491.522,480,495.522,476,491.522" style="stroke:#181818;stroke-width:1.0;"/><line style="stroke:#181818;stroke-width:1.0;" x1="474" x2="689" y1="491.522" y2="491.522"/><text fill="#000000" font-family="sans-serif" font-size="13" lengthAdjust="spacing" textLength="145" x="486" y="485.713">401 Unauthorized {erro}</text><polygon fill="#181818" points="60,519.228,50,523.228,60,527.228,56,523.228" style="stroke:#181818;stroke-width:1.0;"/><line style="stroke:#181818;stroke-width:1.0;" x1="54" x2="458" y1="523.228" y2="523.228"/><text fill="#000000" font-family="sans-serif" font-size="13" lengthAdjust="spacing" textLength="164" x="66" y="517.419">Mostrar mensagem de erro</text><!--SRC=[RLF1QXin4BthAmQVR9fWj_JaGy76BRIb9DGnkGJAM9h4GzRICf9TQCZ7c7wAVwmZxNgzBjdJxkYzcVVcQT6c831OnTtn81m6W15MaSJKA8ajr-WJ3Evf3REwVl33Bn9y8kz61QdrI-1ibpOmk_sgo3dQvmwOwyPXmZL6okD8O34lHulvPOibnSZ1mrA5KK6q5MCAxVfJ7Zk5sLe8wkFXYJs28wY2lbr2Fliz8rWXHzuoSeGXRP6hAuZaDpWoQ1FlCL4nOh9BfMQjKxYzMTx166iUbyRmqZ9hZF5t4FTw9XTpfbXN-cAkP0bs9mW-w6TVm9cajlNekfktoyA5hBQ6TzsKNnkCkZZgqxf93N5FmeziKVuZOPKQcx0_7YfsQ42V4xVTwLJ5iLAZVXx_1XX32feQ3B_TtuqAePjyIY4NJncTvJUqSMcKJzWLO4zvbs9VHedfmsG2Dz_XfVIuQZR1_Z6y5cYRIWvs2Z_9iIv9-nI_kcAdNjS1TMiw7AkzrbiBDeHd9etFOfKl4pxHo52bzwzP2_kt5bCKVPoyXvL7BGNXF-GqVP6tzFm8COcEt9AFsd-RBsA66htvffzRymDG_yBz0m00]--></g></svg>