<?xml version="1.0" encoding="us-ascii" standalone="no"?><svg xmlns="http://www.w3.org/2000/svg" xmlns:xlink="http://www.w3.org/1999/xlink" contentStyleType="text/css" height="682px" preserveAspectRatio="none" style="width:1035px;height:682px;background:#FFFFFF;" version="1.1" viewBox="0 0 1035 682" width="1035px" zoomAndPan="magnify"><defs/><g><rect fill="#FFFFFF" height="472.142" style="stroke:#181818;stroke-width:1.0;" width="10" x="425" y="117.7739"/><rect fill="#FFFFFF" height="278.9059" style="stroke:#181818;stroke-width:1.0;" width="10" x="679" y="311.01"/><rect fill="#FFFFFF" height="31.706" style="stroke:#181818;stroke-width:1.0;" width="10" x="869" y="342.716"/><rect fill="#FFFFFF" height="31.706" style="stroke:#181818;stroke-width:1.0;" width="10" x="961" y="220.892"/><rect fill="none" height="404.436" style="stroke:#000000;stroke-width:1.5;" width="1018" x="10" y="177.4799"/><rect fill="none" height="258.63" style="stroke:#000000;stroke-width:1.5;" width="894" x="20" y="267.598"/><line style="stroke:#181818;stroke-width:0.5;stroke-dasharray:5.0,5.0;" x1="87" x2="87" y1="84.0679" y2="598.9159"/><line style="stroke:#181818;stroke-width:0.5;stroke-dasharray:5.0,5.0;" x1="430" x2="430" y1="84.0679" y2="598.9159"/><line style="stroke:#181818;stroke-width:0.5;stroke-dasharray:5.0,5.0;" x1="683.5" x2="683.5" y1="84.0679" y2="598.9159"/><line style="stroke:#181818;stroke-width:0.5;stroke-dasharray:5.0,5.0;" x1="874" x2="874" y1="84.0679" y2="598.9159"/><line style="stroke:#181818;stroke-width:0.5;stroke-dasharray:5.0,5.0;" x1="966" x2="966" y1="84.0679" y2="598.9159"/><text fill="#000000" font-family="sans-serif" font-size="14" lengthAdjust="spacing" textLength="108" x="30" y="79.9659">Usu&#225;rio (Admin)</text><ellipse cx="87" cy="13.5" fill="#E2E2F0" rx="8" ry="8" style="stroke:#181818;stroke-width:0.5;"/><path d="M87,21.5 L87,48.5 M74,29.5 L100,29.5 M87,48.5 L74,63.5 M87,48.5 L100,63.5 " fill="none" style="stroke:#181818;stroke-width:0.5;"/><text fill="#000000" font-family="sans-serif" font-size="14" lengthAdjust="spacing" textLength="108" x="30" y="612.8819">Usu&#225;rio (Admin)</text><ellipse cx="87" cy="625.4838" fill="#E2E2F0" rx="8" ry="8" style="stroke:#181818;stroke-width:0.5;"/><path d="M87,633.4838 L87,660.4838 M74,641.4838 L100,641.4838 M87,660.4838 L74,675.4838 M87,660.4838 L100,675.4838 " fill="none" style="stroke:#181818;stroke-width:0.5;"/><rect fill="#E2E2F0" height="33.0679" rx="2.5" ry="2.5" style="stroke:#181818;stroke-width:0.5;" width="148" x="356" y="50"/><text fill="#000000" font-family="sans-serif" font-size="14" lengthAdjust="spacing" textLength="134" x="363" y="71.9659">Web App (Frontend)</text><rect fill="#E2E2F0" height="33.0679" rx="2.5" ry="2.5" style="stroke:#181818;stroke-width:0.5;" width="148" x="356" y="597.9159"/><text fill="#000000" font-family="sans-serif" font-size="14" lengthAdjust="spacing" textLength="134" x="363" y="619.8819">Web App (Frontend)</text><rect fill="#E2E2F0" height="33.0679" rx="2.5" ry="2.5" style="stroke:#181818;stroke-width:0.5;" width="141" x="613.5" y="50"/><text fill="#000000" font-family="sans-serif" font-size="14" lengthAdjust="spacing" textLength="127" x="620.5" y="71.9659">Auth API (Backend)</text><rect fill="#E2E2F0" height="33.0679" rx="2.5" ry="2.5" style="stroke:#181818;stroke-width:0.5;" width="141" x="613.5" y="597.9159"/><text fill="#000000" font-family="sans-serif" font-size="14" lengthAdjust="spacing" textLength="127" x="620.5" y="619.8819">Auth API (Backend)</text><text fill="#000000" font-family="sans-serif" font-size="14" lengthAdjust="spacing" textLength="54" x="844" y="79.9659">User DB</text><path d="M856,29 C856,19 874,19 874,19 C874,19 892,19 892,29 L892,55 C892,65 874,65 874,65 C874,65 856,65 856,55 L856,29 " fill="#E2E2F0" style="stroke:#181818;stroke-width:1.5;"/><path d="M856,29 C856,39 874,39 874,39 C874,39 892,39 892,29 " fill="none" style="stroke:#181818;stroke-width:1.5;"/><text fill="#000000" font-family="sans-serif" font-size="14" lengthAdjust="spacing" textLength="54" x="844" y="612.8819">User DB</text><path d="M856,626.9838 C856,616.9838 874,616.9838 874,616.9838 C874,616.9838 892,616.9838 892,626.9838 L892,652.9838 C892,662.9838 874,662.9838 874,662.9838 C874,662.9838 856,662.9838 856,652.9838 L856,626.9838 " fill="#E2E2F0" style="stroke:#181818;stroke-width:1.5;"/><path d="M856,626.9838 C856,636.9838 874,636.9838 874,636.9838 C874,636.9838 892,636.9838 892,626.9838 " fill="none" style="stroke:#181818;stroke-width:1.5;"/><rect fill="#E2E2F0" height="33.0679" rx="2.5" ry="2.5" style="stroke:#181818;stroke-width:0.5;" width="104" x="914" y="50"/><text fill="#000000" font-family="sans-serif" font-size="14" lengthAdjust="spacing" textLength="90" x="921" y="71.9659">Session Store</text><rect fill="#E2E2F0" height="33.0679" rx="2.5" ry="2.5" style="stroke:#181818;stroke-width:0.5;" width="104" x="914" y="597.9159"/><text fill="#000000" font-family="sans-serif" font-size="14" lengthAdjust="spacing" textLength="90" x="921" y="619.8819">Session Store</text><rect fill="#FFFFFF" height="472.142" style="stroke:#181818;stroke-width:1.0;" width="10" x="425" y="117.7739"/><rect fill="#FFFFFF" height="278.9059" style="stroke:#181818;stroke-width:1.0;" width="10" x="679" y="311.01"/><rect fill="#FFFFFF" height="31.706" style="stroke:#181818;stroke-width:1.0;" width="10" x="869" y="342.716"/><rect fill="#FFFFFF" height="31.706" style="stroke:#181818;stroke-width:1.0;" width="10" x="961" y="220.892"/><polygon fill="#181818" points="413,113.7739,423,117.7739,413,121.7739,417,117.7739" style="stroke:#181818;stroke-width:1.0;"/><line style="stroke:#181818;stroke-width:1.0;" x1="87" x2="419" y1="117.7739" y2="117.7739"/><text fill="#000000" font-family="sans-serif" font-size="13" lengthAdjust="spacing" textLength="220" x="94" y="111.9649">Clica no bot&#227;o de editar editar Status</text><line style="stroke:#181818;stroke-width:1.0;" x1="435" x2="477" y1="149.4799" y2="149.4799"/><line style="stroke:#181818;stroke-width:1.0;" x1="477" x2="477" y1="149.4799" y2="162.4799"/><line style="stroke:#181818;stroke-width:1.0;" x1="436" x2="477" y1="162.4799" y2="162.4799"/><polygon fill="#181818" points="446,158.4799,436,162.4799,446,166.4799,442,162.4799" style="stroke:#181818;stroke-width:1.0;"/><text fill="#000000" font-family="sans-serif" font-size="13" lengthAdjust="spacing" textLength="230" x="442" y="143.6709">Mostra modal para altera&#231;&#227;o de status</text><path d="M10,177.4799 L73,177.4799 L73,187.186 L63,197.186 L10,197.186 L10,177.4799 " fill="#EEEEEE" style="stroke:#000000;stroke-width:1.5;"/><rect fill="none" height="404.436" style="stroke:#000000;stroke-width:1.5;" width="1018" x="10" y="177.4799"/><text fill="#000000" font-family="sans-serif" font-size="13" font-weight="bold" lengthAdjust="spacing" textLength="18" x="25" y="192.377">alt</text><text fill="#000000" font-family="sans-serif" font-size="11" font-weight="bold" lengthAdjust="spacing" textLength="58" x="88" y="191.2389">[confirma]</text><polygon fill="#181818" points="949,216.892,959,220.892,949,224.892,953,220.892" style="stroke:#181818;stroke-width:1.0;"/><line style="stroke:#181818;stroke-width:1.0;" x1="435" x2="955" y1="220.892" y2="220.892"/><text fill="#000000" font-family="sans-serif" font-size="13" lengthAdjust="spacing" textLength="132" x="442" y="215.083">Verifica sess&#227;o (token)</text><polygon fill="#181818" points="446,248.598,436,252.598,446,256.598,442,252.598" style="stroke:#181818;stroke-width:1.0;"/><line style="stroke:#181818;stroke-width:1.0;stroke-dasharray:2.0,2.0;" x1="440" x2="965" y1="252.598" y2="252.598"/><text fill="#000000" font-family="sans-serif" font-size="13" lengthAdjust="spacing" textLength="303" x="452" y="246.789">sess&#227;o v&#225;lida + role=[admin, moderador, operador]</text><path d="M20,267.598 L83,267.598 L83,277.304 L73,287.304 L20,287.304 L20,267.598 " fill="#EEEEEE" style="stroke:#000000;stroke-width:1.5;"/><rect fill="none" height="258.63" style="stroke:#000000;stroke-width:1.5;" width="894" x="20" y="267.598"/><text fill="#000000" font-family="sans-serif" font-size="13" font-weight="bold" lengthAdjust="spacing" textLength="18" x="35" y="282.495">alt</text><text fill="#000000" font-family="sans-serif" font-size="11" font-weight="bold" lengthAdjust="spacing" textLength="68" x="98" y="281.3569">[autorizado]</text><polygon fill="#181818" points="667,307.01,677,311.01,667,315.01,671,311.01" style="stroke:#181818;stroke-width:1.0;"/><line style="stroke:#181818;stroke-width:1.0;" x1="435" x2="673" y1="311.01" y2="311.01"/><text fill="#000000" font-family="sans-serif" font-size="13" lengthAdjust="spacing" textLength="190" x="442" y="305.201">PATH /api/conteudo/status/{id}</text><polygon fill="#181818" points="857,338.716,867,342.716,857,346.716,861,342.716" style="stroke:#181818;stroke-width:1.0;"/><line style="stroke:#181818;stroke-width:1.0;" x1="689" x2="863" y1="342.716" y2="342.716"/><text fill="#000000" font-family="sans-serif" font-size="13" lengthAdjust="spacing" textLength="161" x="696" y="336.907">UPDATE STATUS Conteudo</text><polygon fill="#181818" points="700,370.4221,690,374.4221,700,378.4221,696,374.4221" style="stroke:#181818;stroke-width:1.0;"/><line style="stroke:#181818;stroke-width:1.0;stroke-dasharray:2.0,2.0;" x1="694" x2="873" y1="374.4221" y2="374.4221"/><text fill="#000000" font-family="sans-serif" font-size="13" lengthAdjust="spacing" textLength="125" x="706" y="368.6131">Conte&#250;do atualizado</text><polygon fill="#181818" points="446,402.1281,436,406.1281,446,410.1281,442,406.1281" style="stroke:#181818;stroke-width:1.0;"/><line style="stroke:#181818;stroke-width:1.0;stroke-dasharray:2.0,2.0;" x1="440" x2="678" y1="406.1281" y2="406.1281"/><text fill="#000000" font-family="sans-serif" font-size="13" lengthAdjust="spacing" textLength="155" x="452" y="400.3191">200 OK (status atualizado)</text><polygon fill="#181818" points="98,433.8341,88,437.8341,98,441.8341,94,437.8341" style="stroke:#181818;stroke-width:1.0;"/><line style="stroke:#181818;stroke-width:1.0;stroke-dasharray:2.0,2.0;" x1="92" x2="424" y1="437.8341" y2="437.8341"/><text fill="#000000" font-family="sans-serif" font-size="13" lengthAdjust="spacing" textLength="204" x="104" y="432.0251">Confirma&#231;&#227;o atualiza&#231;&#227;o de status</text><line style="stroke:#000000;stroke-width:1.0;stroke-dasharray:2.0,2.0;" x1="20" x2="914" y1="446.8341" y2="446.8341"/><text fill="#000000" font-family="sans-serif" font-size="11" font-weight="bold" lengthAdjust="spacing" textLength="92" x="25" y="458.593">[n&#227;o autorizado]</text><polygon fill="#181818" points="446,482.522,436,486.522,446,490.522,442,486.522" style="stroke:#181818;stroke-width:1.0;"/><line style="stroke:#181818;stroke-width:1.0;stroke-dasharray:2.0,2.0;" x1="440" x2="678" y1="486.522" y2="486.522"/><text fill="#000000" font-family="sans-serif" font-size="13" lengthAdjust="spacing" textLength="133" x="452" y="480.713">401/403 Unauthorized</text><polygon fill="#181818" points="98,514.228,88,518.228,98,522.228,94,518.228" style="stroke:#181818;stroke-width:1.0;"/><line style="stroke:#181818;stroke-width:1.0;stroke-dasharray:2.0,2.0;" x1="92" x2="424" y1="518.228" y2="518.228"/><text fill="#000000" font-family="sans-serif" font-size="13" lengthAdjust="spacing" textLength="314" x="104" y="512.419">Redireciona para /login ou mostra erro de permiss&#227;o</text><line style="stroke:#000000;stroke-width:1.0;stroke-dasharray:2.0,2.0;" x1="10" x2="1028" y1="534.228" y2="534.228"/><text fill="#000000" font-family="sans-serif" font-size="11" font-weight="bold" lengthAdjust="spacing" textLength="58" x="15" y="545.9869">[cancelou]</text><polygon fill="#181818" points="98,569.9159,88,573.9159,98,577.9159,94,573.9159" style="stroke:#181818;stroke-width:1.0;"/><line style="stroke:#181818;stroke-width:1.0;stroke-dasharray:2.0,2.0;" x1="92" x2="424" y1="573.9159" y2="573.9159"/><text fill="#000000" font-family="sans-serif" font-size="13" lengthAdjust="spacing" textLength="91" x="104" y="568.1069">A&#231;&#227;o cancelada</text><!--SRC=[TPAnRjim48PtFSN1aumcaDjcCj00KfIYHL7KgEns23gSIIOXGfC2HMLeqOS9ElGTikh5UYH5GseIBpRE__tt7Vz3veo5nQxhXmSh3UGbFqYzN01s47vcBLedcMnHErXy5tiesnRozzPe9pIFIYhFTMNlRg7SV8IyGdPtrFbonj7X7ZlXfmeBTHN-ggkvGoEwJXeD3V69e1WhMHQuuFJSZrt3XP8CGHlO6pVyCS0522uTslJLE7Hzbo5pyXwT2B107xzBClbiEcSH3eQZ0k90GEM4nU7lQDcD9ie1C_fQsWDEJKQsDNmJLbvxe8uglZTtXlPV1l4H8QtYYsdHqyIIEk-71oKvmYkmHebtL-ZNFl6C1CQDFG7Jnby_WX4Np_fxPEpf5ULFqeRI1DmdiePDkVq01RQoO3xMdfiYBbpyalptiUVe7t9CrP0rMTNL6dQRkjnUGhCjjxi6BaQpfmQKTghLLLWzWeIEuP4ReEceviYJ1IVzSNnwl3Uh5Npv17d4dxWivvlxYVuzmyWGPumwDVmVl6yKYevM1zNJzvnZdArU5sUhjx3J9BtrMi5V0lXATse5exmmdbwXp0qTkEafwt2Mmjh0Gd4VP3YEoADv5fWOQYQKwRDdtCkuIPGWnynt_GC0]--></g></svg>