<?xml version="1.0" encoding="us-ascii" standalone="no"?><svg xmlns="http://www.w3.org/2000/svg" xmlns:xlink="http://www.w3.org/1999/xlink" contentStyleType="text/css" height="796px" preserveAspectRatio="none" style="width:1100px;height:796px;background:#FFFFFF;" version="1.1" viewBox="0 0 1100 796" width="1100px" zoomAndPan="magnify"><defs/><g><rect fill="#FFFFFF" height="585.2419" style="stroke:#181818;stroke-width:1.0;" width="10" x="435" y="117.7739"/><rect fill="#FFFFFF" height="393.0058" style="stroke:#181818;stroke-width:1.0;" width="10" x="671" y="311.01"/><rect fill="#FFFFFF" height="31.706" style="stroke:#181818;stroke-width:1.0;" width="10" x="934" y="342.716"/><rect fill="#FFFFFF" height="31.706" style="stroke:#181818;stroke-width:1.0;" width="10" x="1026" y="220.892"/><rect fill="none" height="518.5359" style="stroke:#000000;stroke-width:1.5;" width="1083" x="10" y="177.4799"/><rect fill="none" height="372.73" style="stroke:#000000;stroke-width:1.5;" width="959" x="20" y="267.598"/><rect fill="none" height="163.512" style="stroke:#000000;stroke-width:1.5;" width="726.5" x="30" y="389.4221"/><line style="stroke:#181818;stroke-width:0.5;stroke-dasharray:5.0,5.0;" x1="97" x2="97" y1="84.0679" y2="713.0159"/><line style="stroke:#181818;stroke-width:0.5;stroke-dasharray:5.0,5.0;" x1="440" x2="440" y1="84.0679" y2="713.0159"/><line style="stroke:#181818;stroke-width:0.5;stroke-dasharray:5.0,5.0;" x1="675.5" x2="675.5" y1="84.0679" y2="713.0159"/><line style="stroke:#181818;stroke-width:0.5;stroke-dasharray:5.0,5.0;" x1="939" x2="939" y1="84.0679" y2="713.0159"/><line style="stroke:#181818;stroke-width:0.5;stroke-dasharray:5.0,5.0;" x1="1031" x2="1031" y1="84.0679" y2="713.0159"/><text fill="#000000" font-family="sans-serif" font-size="14" lengthAdjust="spacing" textLength="108" x="40" y="79.9659">Usu&#225;rio (Admin)</text><ellipse cx="97" cy="13.5" fill="#E2E2F0" rx="8" ry="8" style="stroke:#181818;stroke-width:0.5;"/><path d="M97,21.5 L97,48.5 M84,29.5 L110,29.5 M97,48.5 L84,63.5 M97,48.5 L110,63.5 " fill="none" style="stroke:#181818;stroke-width:0.5;"/><text fill="#000000" font-family="sans-serif" font-size="14" lengthAdjust="spacing" textLength="108" x="40" y="726.9818">Usu&#225;rio (Admin)</text><ellipse cx="97" cy="739.5838" fill="#E2E2F0" rx="8" ry="8" style="stroke:#181818;stroke-width:0.5;"/><path d="M97,747.5838 L97,774.5838 M84,755.5838 L110,755.5838 M97,774.5838 L84,789.5838 M97,774.5838 L110,789.5838 " fill="none" style="stroke:#181818;stroke-width:0.5;"/><rect fill="#E2E2F0" height="33.0679" rx="2.5" ry="2.5" style="stroke:#181818;stroke-width:0.5;" width="148" x="366" y="50"/><text fill="#000000" font-family="sans-serif" font-size="14" lengthAdjust="spacing" textLength="134" x="373" y="71.9659">Web App (Frontend)</text><rect fill="#E2E2F0" height="33.0679" rx="2.5" ry="2.5" style="stroke:#181818;stroke-width:0.5;" width="148" x="366" y="712.0159"/><text fill="#000000" font-family="sans-serif" font-size="14" lengthAdjust="spacing" textLength="134" x="373" y="733.9818">Web App (Frontend)</text><rect fill="#E2E2F0" height="33.0679" rx="2.5" ry="2.5" style="stroke:#181818;stroke-width:0.5;" width="141" x="605.5" y="50"/><text fill="#000000" font-family="sans-serif" font-size="14" lengthAdjust="spacing" textLength="127" x="612.5" y="71.9659">Auth API (Backend)</text><rect fill="#E2E2F0" height="33.0679" rx="2.5" ry="2.5" style="stroke:#181818;stroke-width:0.5;" width="141" x="605.5" y="712.0159"/><text fill="#000000" font-family="sans-serif" font-size="14" lengthAdjust="spacing" textLength="127" x="612.5" y="733.9818">Auth API (Backend)</text><text fill="#000000" font-family="sans-serif" font-size="14" lengthAdjust="spacing" textLength="54" x="909" y="79.9659">User DB</text><path d="M921,29 C921,19 939,19 939,19 C939,19 957,19 957,29 L957,55 C957,65 939,65 939,65 C939,65 921,65 921,55 L921,29 " fill="#E2E2F0" style="stroke:#181818;stroke-width:1.5;"/><path d="M921,29 C921,39 939,39 939,39 C939,39 957,39 957,29 " fill="none" style="stroke:#181818;stroke-width:1.5;"/><text fill="#000000" font-family="sans-serif" font-size="14" lengthAdjust="spacing" textLength="54" x="909" y="726.9818">User DB</text><path d="M921,741.0838 C921,731.0838 939,731.0838 939,731.0838 C939,731.0838 957,731.0838 957,741.0838 L957,767.0838 C957,777.0838 939,777.0838 939,777.0838 C939,777.0838 921,777.0838 921,767.0838 L921,741.0838 " fill="#E2E2F0" style="stroke:#181818;stroke-width:1.5;"/><path d="M921,741.0838 C921,751.0838 939,751.0838 939,751.0838 C939,751.0838 957,751.0838 957,741.0838 " fill="none" style="stroke:#181818;stroke-width:1.5;"/><rect fill="#E2E2F0" height="33.0679" rx="2.5" ry="2.5" style="stroke:#181818;stroke-width:0.5;" width="104" x="979" y="50"/><text fill="#000000" font-family="sans-serif" font-size="14" lengthAdjust="spacing" textLength="90" x="986" y="71.9659">Session Store</text><rect fill="#E2E2F0" height="33.0679" rx="2.5" ry="2.5" style="stroke:#181818;stroke-width:0.5;" width="104" x="979" y="712.0159"/><text fill="#000000" font-family="sans-serif" font-size="14" lengthAdjust="spacing" textLength="90" x="986" y="733.9818">Session Store</text><rect fill="#FFFFFF" height="585.2419" style="stroke:#181818;stroke-width:1.0;" width="10" x="435" y="117.7739"/><rect fill="#FFFFFF" height="393.0058" style="stroke:#181818;stroke-width:1.0;" width="10" x="671" y="311.01"/><rect fill="#FFFFFF" height="31.706" style="stroke:#181818;stroke-width:1.0;" width="10" x="934" y="342.716"/><rect fill="#FFFFFF" height="31.706" style="stroke:#181818;stroke-width:1.0;" width="10" x="1026" y="220.892"/><polygon fill="#181818" points="423,113.7739,433,117.7739,423,121.7739,427,117.7739" style="stroke:#181818;stroke-width:1.0;"/><line style="stroke:#181818;stroke-width:1.0;" x1="97" x2="429" y1="117.7739" y2="117.7739"/><text fill="#000000" font-family="sans-serif" font-size="13" lengthAdjust="spacing" textLength="144" x="104" y="111.9649">Clica em bot&#227;o "Deletar"</text><line style="stroke:#181818;stroke-width:1.0;" x1="445" x2="487" y1="149.4799" y2="149.4799"/><line style="stroke:#181818;stroke-width:1.0;" x1="487" x2="487" y1="149.4799" y2="162.4799"/><line style="stroke:#181818;stroke-width:1.0;" x1="446" x2="487" y1="162.4799" y2="162.4799"/><polygon fill="#181818" points="456,158.4799,446,162.4799,456,166.4799,452,162.4799" style="stroke:#181818;stroke-width:1.0;"/><text fill="#000000" font-family="sans-serif" font-size="13" lengthAdjust="spacing" textLength="191" x="452" y="143.6709">Mostrar confirma&#231;&#227;o ao usu&#225;rio</text><path d="M10,177.4799 L73,177.4799 L73,187.186 L63,197.186 L10,197.186 L10,177.4799 " fill="#EEEEEE" style="stroke:#000000;stroke-width:1.5;"/><rect fill="none" height="518.5359" style="stroke:#000000;stroke-width:1.5;" width="1083" x="10" y="177.4799"/><text fill="#000000" font-family="sans-serif" font-size="13" font-weight="bold" lengthAdjust="spacing" textLength="18" x="25" y="192.377">alt</text><text fill="#000000" font-family="sans-serif" font-size="11" font-weight="bold" lengthAdjust="spacing" textLength="58" x="88" y="191.2389">[confirma]</text><polygon fill="#181818" points="1014,216.892,1024,220.892,1014,224.892,1018,220.892" style="stroke:#181818;stroke-width:1.0;"/><line style="stroke:#181818;stroke-width:1.0;" x1="445" x2="1020" y1="220.892" y2="220.892"/><text fill="#000000" font-family="sans-serif" font-size="13" lengthAdjust="spacing" textLength="176" x="452" y="215.083">Verifica sess&#227;o (token/cookie)</text><polygon fill="#181818" points="456,248.598,446,252.598,456,256.598,452,252.598" style="stroke:#181818;stroke-width:1.0;"/><line style="stroke:#181818;stroke-width:1.0;stroke-dasharray:2.0,2.0;" x1="450" x2="1030" y1="252.598" y2="252.598"/><text fill="#000000" font-family="sans-serif" font-size="13" lengthAdjust="spacing" textLength="167" x="462" y="246.789">sess&#227;o v&#225;lida + role=[admin]</text><path d="M20,267.598 L83,267.598 L83,277.304 L73,287.304 L20,287.304 L20,267.598 " fill="#EEEEEE" style="stroke:#000000;stroke-width:1.5;"/><rect fill="none" height="372.73" style="stroke:#000000;stroke-width:1.5;" width="959" x="20" y="267.598"/><text fill="#000000" font-family="sans-serif" font-size="13" font-weight="bold" lengthAdjust="spacing" textLength="18" x="35" y="282.495">alt</text><text fill="#000000" font-family="sans-serif" font-size="11" font-weight="bold" lengthAdjust="spacing" textLength="68" x="98" y="281.3569">[autorizado]</text><polygon fill="#181818" points="659,307.01,669,311.01,659,315.01,663,311.01" style="stroke:#181818;stroke-width:1.0;"/><line style="stroke:#181818;stroke-width:1.0;" x1="445" x2="665" y1="311.01" y2="311.01"/><text fill="#000000" font-family="sans-serif" font-size="13" lengthAdjust="spacing" textLength="207" x="452" y="305.201">DELETE /api/conteudo/{id} {token}</text><polygon fill="#181818" points="922,338.716,932,342.716,922,346.716,926,342.716" style="stroke:#181818;stroke-width:1.0;"/><line style="stroke:#181818;stroke-width:1.0;" x1="681" x2="928" y1="342.716" y2="342.716"/><text fill="#000000" font-family="sans-serif" font-size="13" lengthAdjust="spacing" textLength="234" x="688" y="336.907">DELETE FROM conteudo WHERE id={id}</text><polygon fill="#181818" points="692,370.4221,682,374.4221,692,378.4221,688,374.4221" style="stroke:#181818;stroke-width:1.0;"/><line style="stroke:#181818;stroke-width:1.0;stroke-dasharray:2.0,2.0;" x1="686" x2="938" y1="374.4221" y2="374.4221"/><text fill="#000000" font-family="sans-serif" font-size="13" lengthAdjust="spacing" textLength="187" x="698" y="368.6131">Conte&#250;do deletado / not found</text><path d="M30,389.4221 L93,389.4221 L93,399.1281 L83,409.1281 L30,409.1281 L30,389.4221 " fill="#EEEEEE" style="stroke:#000000;stroke-width:1.5;"/><rect fill="none" height="163.512" style="stroke:#000000;stroke-width:1.5;" width="726.5" x="30" y="389.4221"/><text fill="#000000" font-family="sans-serif" font-size="13" font-weight="bold" lengthAdjust="spacing" textLength="18" x="45" y="404.3191">alt</text><text fill="#000000" font-family="sans-serif" font-size="11" font-weight="bold" lengthAdjust="spacing" textLength="58" x="108" y="403.181">[deletado]</text><polygon fill="#181818" points="456,428.8341,446,432.8341,456,436.8341,452,432.8341" style="stroke:#181818;stroke-width:1.0;"/><line style="stroke:#181818;stroke-width:1.0;stroke-dasharray:2.0,2.0;" x1="450" x2="670" y1="432.8341" y2="432.8341"/><text fill="#000000" font-family="sans-serif" font-size="13" lengthAdjust="spacing" textLength="99" x="462" y="427.0251">200 OK (confirm)</text><polygon fill="#181818" points="108,460.5401,98,464.5401,108,468.5401,104,464.5401" style="stroke:#181818;stroke-width:1.0;"/><line style="stroke:#181818;stroke-width:1.0;stroke-dasharray:2.0,2.0;" x1="102" x2="434" y1="464.5401" y2="464.5401"/><text fill="#000000" font-family="sans-serif" font-size="13" lengthAdjust="spacing" textLength="201" x="114" y="458.7311">Confirma&#231;&#227;o (conte&#250;do deletado)</text><line style="stroke:#000000;stroke-width:1.0;stroke-dasharray:2.0,2.0;" x1="30" x2="756.5" y1="473.5401" y2="473.5401"/><text fill="#000000" font-family="sans-serif" font-size="11" font-weight="bold" lengthAdjust="spacing" textLength="97" x="35" y="485.299">[n&#227;o encontrado]</text><polygon fill="#181818" points="456,509.228,446,513.228,456,517.228,452,513.228" style="stroke:#181818;stroke-width:1.0;"/><line style="stroke:#181818;stroke-width:1.0;stroke-dasharray:2.0,2.0;" x1="450" x2="670" y1="513.228" y2="513.228"/><text fill="#000000" font-family="sans-serif" font-size="13" lengthAdjust="spacing" textLength="89" x="462" y="507.419">404 Not Found</text><polygon fill="#181818" points="108,540.934,98,544.934,108,548.934,104,544.934" style="stroke:#181818;stroke-width:1.0;"/><line style="stroke:#181818;stroke-width:1.0;stroke-dasharray:2.0,2.0;" x1="102" x2="434" y1="544.934" y2="544.934"/><text fill="#000000" font-family="sans-serif" font-size="13" lengthAdjust="spacing" textLength="193" x="114" y="539.125">Erro (conte&#250;do n&#227;o encontrado)</text><line style="stroke:#000000;stroke-width:1.0;stroke-dasharray:2.0,2.0;" x1="20" x2="979" y1="560.934" y2="560.934"/><text fill="#000000" font-family="sans-serif" font-size="11" font-weight="bold" lengthAdjust="spacing" textLength="92" x="25" y="572.6929">[n&#227;o autorizado]</text><polygon fill="#181818" points="456,596.6219,446,600.6219,456,604.6219,452,600.6219" style="stroke:#181818;stroke-width:1.0;"/><line style="stroke:#181818;stroke-width:1.0;stroke-dasharray:2.0,2.0;" x1="450" x2="670" y1="600.6219" y2="600.6219"/><text fill="#000000" font-family="sans-serif" font-size="13" lengthAdjust="spacing" textLength="133" x="462" y="594.8129">401/403 Unauthorized</text><polygon fill="#181818" points="108,628.328,98,632.328,108,636.328,104,632.328" style="stroke:#181818;stroke-width:1.0;"/><line style="stroke:#181818;stroke-width:1.0;stroke-dasharray:2.0,2.0;" x1="102" x2="434" y1="632.328" y2="632.328"/><text fill="#000000" font-family="sans-serif" font-size="13" lengthAdjust="spacing" textLength="314" x="114" y="626.519">Redireciona para /login ou mostra erro de permiss&#227;o</text><line style="stroke:#000000;stroke-width:1.0;stroke-dasharray:2.0,2.0;" x1="10" x2="1093" y1="648.328" y2="648.328"/><text fill="#000000" font-family="sans-serif" font-size="11" font-weight="bold" lengthAdjust="spacing" textLength="58" x="15" y="660.0869">[cancelou]</text><polygon fill="#181818" points="108,684.0159,98,688.0159,108,692.0159,104,688.0159" style="stroke:#181818;stroke-width:1.0;"/><line style="stroke:#181818;stroke-width:1.0;stroke-dasharray:2.0,2.0;" x1="102" x2="434" y1="688.0159" y2="688.0159"/><text fill="#000000" font-family="sans-serif" font-size="13" lengthAdjust="spacing" textLength="91" x="114" y="682.2069">A&#231;&#227;o cancelada</text><!--SRC=[VPF1Rjim38RlUWh29mT3uMpBAK079BM33LlN8LtRGx438p6hK5ioPBc75NsOOeU-mwvviKcAvJXDDfyCYl_FZwI4t6e3oLNJRfwDr93EH2NLA05i8Foo6esLNDQeB2Gtj89PNKEwC5fPKcARwSBxURFMti7isoT8vyZl-pmVPW8jhh0XNvKCvFDmbC_t7IwfQQHMSEduA6Hq4SO25vnyy6MdS5PAZa0LhBJT_DQGv5IIHPCmv5O-eAM0vycZv5mtrg01hjLQcWetBrw86jfk30nBsvyoS5ydxnYcS4r6hdtXnaMyEhNQzPbnhUybZOAchn_9VJ3sTH9Xei73vhcK0k4D65tIwItwBdy4ZQ03gsq1Hucj6v3yXKA7q83L3tiAUV6b-5v0XhLqS6vdhT3PenHFy1Y8dtfPNoDiAKR39frRFk-z5ikBSuXUSFEnM1OWnQatFJHpUusnV1wwtdATUVtcZpCGOL_k9mEbBQnrgqIl6RG-SFADHraVtD76qRuRZ-7YCwJT9aTxgM5A7iVFEV0CxaBA3_1sQYhTvLK-ZPJFC_-dc8mdyDKrjjXhx0X2OSnUvLSb1W2Tpmxao2ru3V4scupVmvLogNS-bmJx1yUIX3J4tJL3S6yI8IlrJ_VYT0jLU3b0dbGGr6Gg6QulYro1YQFYLEgM7N6VRIUyJK61pAi6Q_QFzIy0]--></g></svg>