<?xml version="1.0" encoding="us-ascii" standalone="no"?><svg xmlns="http://www.w3.org/2000/svg" xmlns:xlink="http://www.w3.org/1999/xlink" contentStyleType="text/css" height="857px" preserveAspectRatio="none" style="width:992px;height:857px;background:#FFFFFF;" version="1.1" viewBox="0 0 992 857" width="992px" zoomAndPan="magnify"><defs/><g><!--cluster Plataforma Mesominds--><g id="cluster_Plataforma Mesominds"><rect fill="none" height="844" rx="2.5" ry="2.5" style="stroke:#444444;stroke-width:1.0;" width="212.67" x="774" y="7"/><text fill="#000000" font-family="sans-serif" font-size="14" font-weight="bold" lengthAdjust="spacing" textLength="161" x="799.835" y="23.9659">Plataforma Mesominds</text></g><g id="elem_UC1"><ellipse cx="880.3297" cy="62.9979" fill="#FEFEFE" rx="78.4397" ry="18.0879" style="stroke:#555555;stroke-width:0.5;"/><text fill="#000000" font-family="sans-serif" font-size="14" lengthAdjust="spacing" textLength="99" x="827.8297" y="67.7309">Criar atividade</text></g><g id="elem_UC2"><ellipse cx="880.326" cy="626.0032" fill="#FEFEFE" rx="80.916" ry="18.5832" style="stroke:#555555;stroke-width:0.5;"/><text fill="#000000" font-family="sans-serif" font-size="14" lengthAdjust="spacing" textLength="106" x="824.326" y="630.7362">Editar atividade</text></g><g id="elem_UC6"><ellipse cx="880.3336" cy="436.9967" fill="#FEFEFE" rx="90.3336" ry="20.4667" style="stroke:#555555;stroke-width:0.5;"/><text fill="#000000" font-family="sans-serif" font-size="14" lengthAdjust="spacing" textLength="131" x="811.8336" y="441.7297">Visualizar atividade</text></g><g id="elem_UC4"><ellipse cx="880.3328" cy="249.0026" fill="#FEFEFE" rx="75.7128" ry="17.5426" style="stroke:#555555;stroke-width:0.5;"/><text fill="#000000" font-family="sans-serif" font-size="14" lengthAdjust="spacing" textLength="91" x="831.8328" y="253.7355">Alterar status</text></g><g id="elem_UC3"><ellipse cx="880.3309" cy="815.0002" fill="#FEFEFE" rx="88.0009" ry="20.0002" style="stroke:#555555;stroke-width:0.5;"/><text fill="#000000" font-family="sans-serif" font-size="14" lengthAdjust="spacing" textLength="125" x="814.8309" y="819.7331">Remover atividade</text></g><!--entity Op--><g id="elem_Op"><ellipse cx="557.5" cy="405.97" fill="#F1F1F1" rx="8" ry="8" style="stroke:#181818;stroke-width:0.5;"/><path d="M557.5,413.97 L557.5,440.97 M544.5,421.97 L570.5,421.97 M557.5,440.97 L544.5,455.97 M557.5,440.97 L570.5,455.97 " fill="none" style="stroke:#181818;stroke-width:0.5;"/><text fill="#000000" font-family="sans-serif" font-size="14" lengthAdjust="spacing" textLength="65" x="525" y="472.4359">Operador</text></g><!--entity Mod--><g id="elem_Mod"><ellipse cx="287.5" cy="433.97" fill="#F1F1F1" rx="8" ry="8" style="stroke:#181818;stroke-width:0.5;"/><path d="M287.5,441.97 L287.5,468.97 M274.5,449.97 L300.5,449.97 M287.5,468.97 L274.5,483.97 M287.5,468.97 L300.5,483.97 " fill="none" style="stroke:#181818;stroke-width:0.5;"/><text fill="#000000" font-family="sans-serif" font-size="14" lengthAdjust="spacing" textLength="75" x="250" y="500.4359">Moderador</text></g><!--entity Admin--><g id="elem_Admin"><ellipse cx="28" cy="594.97" fill="#F1F1F1" rx="8" ry="8" style="stroke:#181818;stroke-width:0.5;"/><path d="M28,602.97 L28,629.97 M15,610.97 L41,610.97 M28,629.97 L15,644.97 M28,629.97 L41,644.97 " fill="none" style="stroke:#181818;stroke-width:0.5;"/><text fill="#000000" font-family="sans-serif" font-size="14" lengthAdjust="spacing" textLength="44" x="6" y="661.4359">Admin</text></g><!--link Mod to Op--><g id="link_Mod_Op"><path d="M325.33,451 C378.45,451 456.26,451 506.59,451 " fill="none" id="Mod-to-Op" style="stroke:#181818;stroke-width:1.0;"/><polygon fill="none" points="524.59,451,506.59,445,506.59,457,524.59,451" style="stroke:#181818;stroke-width:1.0;"/></g><!--link Admin to Mod--><g id="link_Admin_Mod"><path d="M50.14,596.94 C112.93,596.94 287.67,596.94 287.67,596.94 C287.67,596.94 287.67,561.78 287.67,522.94 " fill="none" id="Admin-to-Mod" style="stroke:#181818;stroke-width:1.0;"/><polygon fill="none" points="287.67,504.94,281.67,522.94,293.67,522.94,287.67,504.94" style="stroke:#181818;stroke-width:1.0;"/></g><!--link Op to UC1--><g id="link_Op_UC1"><path d="M546.67,396.98 C546.67,300.49 546.67,63 546.67,63 C546.67,63 697.04,63 795.68,63 " fill="none" id="Op-to-UC1" style="stroke:#FF8800;stroke-width:1.0;"/><polygon fill="#FF8800" points="801.68,63,792.68,59,796.68,63,792.68,67,801.68,63" style="stroke:#FF8800;stroke-width:1.0;"/></g><!--link Op to UC2--><g id="link_Op_UC2"><path d="M557.67,476.62 C557.67,532.04 557.67,626 557.67,626 C557.67,626 697.75,626 793.33,626 " fill="none" id="Op-to-UC2" style="stroke:#FF8800;stroke-width:1.0;"/><polygon fill="#FF8800" points="799.33,626,790.33,622,794.33,626,790.33,630,799.33,626" style="stroke:#FF8800;stroke-width:1.0;"/></g><!--link Op to UC6--><g id="link_Op_UC6"><path d="M590.23,437 C636.56,437 717.02,437 783.54,437 " fill="none" id="Op-to-UC6" style="stroke:#FF8800;stroke-width:1.0;"/><polygon fill="#FF8800" points="789.54,437,780.54,433,784.54,437,780.54,441,789.54,437" style="stroke:#FF8800;stroke-width:1.0;"/></g><!--link Op to UC4--><g id="link_Op_UC4"><path d="M568.67,397.13 C568.67,341.94 568.67,249 568.67,249 C568.67,249 706.24,249 798.49,249 " fill="none" id="Op-to-UC4" style="stroke:#FF8800;stroke-width:1.0;"/><polygon fill="#FF8800" points="804.49,249,795.49,245,799.49,249,795.49,253,804.49,249" style="stroke:#FF8800;stroke-width:1.0;"/></g><!--link Admin to UC3--><g id="link_Admin_UC3"><path d="M50.15,655.06 C176.01,655.06 795.67,655.06 795.67,655.06 C795.67,655.06 795.67,774.82 795.67,803.31 " fill="none" id="Admin-to-UC3" style="stroke:#0066CC;stroke-width:1.0;"/><polygon fill="#0066CC" points="795.67,809.31,799.67,800.31,795.67,804.31,791.67,800.31,795.67,809.31" style="stroke:#0066CC;stroke-width:1.0;"/></g><!--SRC=[RP5FRy8m3CNl-HHMEICLQ2jEI5irReXfqtRt6WDHqxXAKYJsvxilBL1QWNffVk_PpdCqxJnu1gls1mzIMIgyOYDSgKoD5Yl0mhDzzoTDuBmgoe7KE2hG4Vm8W6SiohtbniYSDLkOxAZzMeMj97kXQPgAlq6BTXwQlRuq6LgJ90bepSQVft-nbgDQhGpvKqt0rXzu81YMvAY6MHeFHw4fMpgFOo6wL11jQx8esKQ03hRr5Mz2WniFfwlm92jbEjZz2H4qc4v_LsrnXywdjaJSiaMl6Ztks5O86t8SVD95NMJejnZbLg45zEge94hgndpaix7fHIh_m3KVkpwLQr2hxmVEREnyqZv4jU5jqJVkuad6dZUg-4ZthHRXESIs3f5NxKLXibulbs6xFPhVe-mU9JtgLzZY1KpYECloNFm3]--></g></svg>