<svg xmlns="http://www.w3.org/2000/svg" xmlns:xlink="http://www.w3.org/1999/xlink" contentStyleType="text/css" data-diagram-type="SEQUENCE" height="678px" preserveAspectRatio="none" style="width:1456px;height:678px;background:#FFFFFF;" version="1.1" viewBox="0 0 1456 678" width="1456px" zoomAndPan="magnify"><defs/><g><g><title>Web App.Frontend.</title><rect fill="#FFFFFF" height="474.7969" style="stroke:#181818;stroke-width:1;" width="10" x="454.3535" y="112.4297"/></g><g><title>Auth API.Backend.</title><rect fill="#FFFFFF" height="387.3984" style="stroke:#181818;stroke-width:1;" width="10" x="837.6924" y="199.8281"/></g><g><title>User DB</title><rect fill="#FFFFFF" height="29.1328" style="stroke:#181818;stroke-width:1;" width="10" x="1283.6509" y="228.9609"/></g><g><title>User DB</title><rect fill="#FFFFFF" height="29.1328" style="stroke:#181818;stroke-width:1;" width="10" x="1283.6509" y="426.5625"/></g><g><title>Session Store</title><rect fill="#FFFFFF" height="29.1328" style="stroke:#181818;stroke-width:1;" width="10" x="1379.6118" y="484.8281"/></g><rect fill="none" height="307.1328" style="stroke:#000000;stroke-width:1.5;" width="1439.2002" x="10" y="273.0938"/><g><title>Usu.rio</title><rect fill="#000000" fill-opacity="0.00000" height="515.9297" width="8" x="45.6021" y="81.2969"/><line style="stroke:#181818;stroke-width:0.5;stroke-dasharray:5,5;" x1="49" x2="49" y1="81.2969" y2="597.2266"/></g><g><title>Web App.Frontend.</title><rect fill="#000000" fill-opacity="0.00000" height="515.9297" width="8" x="455.3535" y="81.2969"/><line style="stroke:#181818;stroke-width:0.5;stroke-dasharray:5,5;" x1="458.7651" x2="458.7651" y1="81.2969" y2="597.2266"/></g><g><title>Auth API.Backend.</title><rect fill="#000000" fill-opacity="0.00000" height="515.9297" width="8" x="838.6924" y="81.2969"/><line style="stroke:#181818;stroke-width:0.5;stroke-dasharray:5,5;" x1="842.3442" x2="842.3442" y1="81.2969" y2="597.2266"/></g><g><title>User DB</title><rect fill="#000000" fill-opacity="0.00000" height="515.9297" width="8" x="1284.6509" y="81.2969"/><line style="stroke:#181818;stroke-width:0.5;stroke-dasharray:5,5;" x1="1288.2783" x2="1288.2783" y1="81.2969" y2="597.2266"/></g><g><title>Session Store</title><rect fill="#000000" fill-opacity="0.00000" height="515.9297" width="8" x="1380.6118" y="81.2969"/><line style="stroke:#181818;stroke-width:0.5;stroke-dasharray:5,5;" x1="1384.0234" x2="1384.0234" y1="81.2969" y2="597.2266"/></g><g class="participant participant-head" data-participant="User"><text fill="#000000" font-family="sans-serif" font-size="14" lengthAdjust="spacing" textLength="53.2041" x="20" y="77.9951">Usu&#225;rio</text><ellipse cx="49.6021" cy="13.5" fill="#E2E2F0" rx="8" ry="8" style="stroke:#181818;stroke-width:0.5;"/><path d="M49.6021,21.5 L49.6021,48.5 M36.6021,29.5 L62.6021,29.5 M49.6021,48.5 L36.6021,63.5 M49.6021,48.5 L62.6021,63.5" fill="none" style="stroke:#181818;stroke-width:0.5;"/></g><g class="participant participant-tail" data-participant="User"><text fill="#000000" font-family="sans-serif" font-size="14" lengthAdjust="spacing" textLength="53.2041" x="20" y="609.2217">Usu&#225;rio</text><ellipse cx="49.6021" cy="621.0234" fill="#E2E2F0" rx="8" ry="8" style="stroke:#181818;stroke-width:0.5;"/><path d="M49.6021,629.0234 L49.6021,656.0234 M36.6021,637.0234 L62.6021,637.0234 M49.6021,656.0234 L36.6021,671.0234 M49.6021,656.0234 L62.6021,671.0234" fill="none" style="stroke:#181818;stroke-width:0.5;"/></g><g class="participant participant-head" data-participant="Web"><rect fill="#E2E2F0" height="30.2969" rx="2.5" ry="2.5" style="stroke:#181818;stroke-width:0.5;" width="151.1768" x="383.7651" y="50"/><text fill="#000000" font-family="sans-serif" font-size="14" lengthAdjust="spacing" textLength="137.1768" x="390.7651" y="69.9951">Web App(Frontend)</text></g><g class="participant participant-tail" data-participant="Web"><rect fill="#E2E2F0" height="30.2969" rx="2.5" ry="2.5" style="stroke:#181818;stroke-width:0.5;" width="151.1768" x="383.7651" y="596.2266"/><text fill="#000000" font-family="sans-serif" font-size="14" lengthAdjust="spacing" textLength="137.1768" x="390.7651" y="616.2217">Web App(Frontend)</text></g><g class="participant participant-head" data-participant="Auth"><rect fill="#E2E2F0" height="30.2969" rx="2.5" ry="2.5" style="stroke:#181818;stroke-width:0.5;" width="144.6963" x="770.3442" y="50"/><text fill="#000000" font-family="sans-serif" font-size="14" lengthAdjust="spacing" textLength="130.6963" x="777.3442" y="69.9951">Auth API(Backend)</text></g><g class="participant participant-tail" data-participant="Auth"><rect fill="#E2E2F0" height="30.2969" rx="2.5" ry="2.5" style="stroke:#181818;stroke-width:0.5;" width="144.6963" x="770.3442" y="596.2266"/><text fill="#000000" font-family="sans-serif" font-size="14" lengthAdjust="spacing" textLength="130.6963" x="777.3442" y="616.2217">Auth API(Backend)</text></g><g class="participant participant-head" data-participant="DB"><text fill="#000000" font-family="sans-serif" font-size="14" lengthAdjust="spacing" textLength="56.7451" x="1257.2783" y="77.9951">User DB</text><path d="M1270.6509,29 C1270.6509,19 1288.6509,19 1288.6509,19 C1288.6509,19 1306.6509,19 1306.6509,29 L1306.6509,55 C1306.6509,65 1288.6509,65 1288.6509,65 C1288.6509,65 1270.6509,65 1270.6509,55 L1270.6509,29" fill="#E2E2F0" style="stroke:#181818;stroke-width:0.5;"/><path d="M1270.6509,29 C1270.6509,39 1288.6509,39 1288.6509,39 C1288.6509,39 1306.6509,39 1306.6509,29" fill="none" style="stroke:#181818;stroke-width:0.5;"/></g><g class="participant participant-tail" data-participant="DB"><text fill="#000000" font-family="sans-serif" font-size="14" lengthAdjust="spacing" textLength="56.7451" x="1257.2783" y="609.2217">User DB</text><path d="M1270.6509,622.5234 C1270.6509,612.5234 1288.6509,612.5234 1288.6509,612.5234 C1288.6509,612.5234 1306.6509,612.5234 1306.6509,622.5234 L1306.6509,648.5234 C1306.6509,658.5234 1288.6509,658.5234 1288.6509,658.5234 C1288.6509,658.5234 1270.6509,658.5234 1270.6509,648.5234 L1270.6509,622.5234" fill="#E2E2F0" style="stroke:#181818;stroke-width:0.5;"/><path d="M1270.6509,622.5234 C1270.6509,632.5234 1288.6509,632.5234 1288.6509,632.5234 C1288.6509,632.5234 1306.6509,632.5234 1306.6509,622.5234" fill="none" style="stroke:#181818;stroke-width:0.5;"/></g><g class="participant participant-head" data-participant="Session"><rect fill="#E2E2F0" height="30.2969" rx="2.5" ry="2.5" style="stroke:#181818;stroke-width:0.5;" width="109.1768" x="1330.0234" y="50"/><text fill="#000000" font-family="sans-serif" font-size="14" lengthAdjust="spacing" textLength="95.1768" x="1337.0234" y="69.9951">Session Store</text></g><g class="participant participant-tail" data-participant="Session"><rect fill="#E2E2F0" height="30.2969" rx="2.5" ry="2.5" style="stroke:#181818;stroke-width:0.5;" width="109.1768" x="1330.0234" y="596.2266"/><text fill="#000000" font-family="sans-serif" font-size="14" lengthAdjust="spacing" textLength="95.1768" x="1337.0234" y="616.2217">Session Store</text></g><g><title>Web App.Frontend.</title><rect fill="#FFFFFF" height="474.7969" style="stroke:#181818;stroke-width:1;" width="10" x="454.3535" y="112.4297"/></g><g><title>Auth API.Backend.</title><rect fill="#FFFFFF" height="387.3984" style="stroke:#181818;stroke-width:1;" width="10" x="837.6924" y="199.8281"/></g><g><title>User DB</title><rect fill="#FFFFFF" height="29.1328" style="stroke:#181818;stroke-width:1;" width="10" x="1283.6509" y="228.9609"/></g><g><title>User DB</title><rect fill="#FFFFFF" height="29.1328" style="stroke:#181818;stroke-width:1;" width="10" x="1283.6509" y="426.5625"/></g><g><title>Session Store</title><rect fill="#FFFFFF" height="29.1328" style="stroke:#181818;stroke-width:1;" width="10" x="1379.6118" y="484.8281"/></g><g class="message" data-participant-1="User" data-participant-2="Web"><polygon fill="#181818" points="442.3535,108.4297,452.3535,112.4297,442.3535,116.4297,446.3535,112.4297" style="stroke:#181818;stroke-width:1;"/><line style="stroke:#181818;stroke-width:1;" x1="49.6021" x2="448.3535" y1="112.4297" y2="112.4297"/><text fill="#000000" font-family="sans-serif" font-size="13" lengthAdjust="spacing" textLength="153.7974" x="56.6021" y="107.3638">Abre p&#225;gina de registro</text></g><g class="message" data-participant-1="User" data-participant-2="Web"><polygon fill="#181818" points="442.3535,137.5625,452.3535,141.5625,442.3535,145.5625,446.3535,141.5625" style="stroke:#181818;stroke-width:1;"/><line style="stroke:#181818;stroke-width:1;" x1="49.6021" x2="448.3535" y1="141.5625" y2="141.5625"/><text fill="#000000" font-family="sans-serif" font-size="13" lengthAdjust="spacing" textLength="380.7515" x="56.6021" y="136.4966">Preenche formul&#225;rio (nome, email, senha, tipo de usu&#225;rio)</text></g><g class="message" data-participant-1="User" data-participant-2="Web"><polygon fill="#181818" points="442.3535,166.6953,452.3535,170.6953,442.3535,174.6953,446.3535,170.6953" style="stroke:#181818;stroke-width:1;"/><line style="stroke:#181818;stroke-width:1;" x1="49.6021" x2="448.3535" y1="170.6953" y2="170.6953"/><text fill="#000000" font-family="sans-serif" font-size="13" lengthAdjust="spacing" textLength="131.7202" x="56.6021" y="165.6294">Clica em "Registrar"</text></g><g class="message" data-participant-1="Web" data-participant-2="Auth"><polygon fill="#181818" points="825.6924,195.8281,835.6924,199.8281,825.6924,203.8281,829.6924,199.8281" style="stroke:#181818;stroke-width:1;"/><line style="stroke:#181818;stroke-width:1;" x1="464.3535" x2="831.6924" y1="199.8281" y2="199.8281"/><text fill="#000000" font-family="sans-serif" font-size="13" lengthAdjust="spacing" textLength="354.3389" x="471.3535" y="194.7622">POST /api/register {nome, email, senha, tipo_usuario}</text></g><g class="message" data-participant-1="Auth" data-participant-2="DB"><polygon fill="#181818" points="1271.6509,224.9609,1281.6509,228.9609,1271.6509,232.9609,1275.6509,228.9609" style="stroke:#181818;stroke-width:1;"/><line style="stroke:#181818;stroke-width:1;" x1="847.6924" x2="1277.6509" y1="228.9609" y2="228.9609"/><text fill="#000000" font-family="sans-serif" font-size="13" lengthAdjust="spacing" textLength="167.0513" x="854.6924" y="223.895">Verifica se email j&#225; existe</text></g><g class="message" data-participant-1="DB" data-participant-2="Auth"><polygon fill="#181818" points="858.6924,254.0938,848.6924,258.0938,858.6924,262.0938,854.6924,258.0938" style="stroke:#181818;stroke-width:1;"/><line style="stroke:#181818;stroke-width:1;stroke-dasharray:2,2;" x1="852.6924" x2="1287.6509" y1="258.0938" y2="258.0938"/><text fill="#000000" font-family="sans-serif" font-size="13" lengthAdjust="spacing" textLength="140.7466" x="864.6924" y="253.0278">resultado da consulta</text></g><path d="M10,273.0938 L74.4429,273.0938 L74.4429,280.2266 L64.4429,290.2266 L10,290.2266 L10,273.0938" fill="#EEEEEE" style="stroke:#000000;stroke-width:1.5;"/><rect fill="none" height="307.1328" style="stroke:#000000;stroke-width:1.5;" width="1439.2002" x="10" y="273.0938"/><text fill="#000000" font-family="sans-serif" font-size="13" font-weight="bold" lengthAdjust="spacing" textLength="19.4429" x="25" y="286.1606">alt</text><text fill="#000000" font-family="sans-serif" font-size="11" font-weight="bold" lengthAdjust="spacing" textLength="100.3857" x="89.4429" y="285.3042">[email j&#225; existe]</text><g class="message" data-participant-1="Auth" data-participant-2="Web"><polygon fill="#181818" points="475.3535,307.3594,465.3535,311.3594,475.3535,315.3594,471.3535,311.3594" style="stroke:#181818;stroke-width:1;"/><line style="stroke:#181818;stroke-width:1;" x1="469.3535" x2="836.6924" y1="311.3594" y2="311.3594"/><text fill="#000000" font-family="sans-serif" font-size="13" lengthAdjust="spacing" textLength="274.6758" x="481.3535" y="306.2935">409 Conflict {erro: "Email j&#225; cadastrado"}</text></g><g class="message" data-participant-1="Web" data-participant-2="User"><polygon fill="#181818" points="60.6021,336.4922,50.6021,340.4922,60.6021,344.4922,56.6021,340.4922" style="stroke:#181818;stroke-width:1;"/><line style="stroke:#181818;stroke-width:1;" x1="54.6021" x2="453.3535" y1="340.4922" y2="340.4922"/><text fill="#000000" font-family="sans-serif" font-size="13" lengthAdjust="spacing" textLength="177.5376" x="66.6021" y="335.4263">Mostrar mensagem de erro</text></g><line style="stroke:#000000;stroke-width:1;stroke-dasharray:2,2;" x1="10" x2="1449.2002" y1="349.4922" y2="349.4922"/><text fill="#000000" font-family="sans-serif" font-size="11" font-weight="bold" lengthAdjust="spacing" textLength="111.3965" x="15" y="359.7026">[email dispon&#237;vel]</text><g class="message" data-participant-1="Auth" data-participant-2="Auth"><line style="stroke:#181818;stroke-width:1;" x1="847.6924" x2="889.6924" y1="384.4297" y2="384.4297"/><line style="stroke:#181818;stroke-width:1;" x1="889.6924" x2="889.6924" y1="384.4297" y2="397.4297"/><line style="stroke:#181818;stroke-width:1;" x1="848.6924" x2="889.6924" y1="397.4297" y2="397.4297"/><polygon fill="#181818" points="858.6924,393.4297,848.6924,397.4297,858.6924,401.4297,854.6924,397.4297" style="stroke:#181818;stroke-width:1;"/><text fill="#000000" font-family="sans-serif" font-size="13" lengthAdjust="spacing" textLength="96.4526" x="854.6924" y="379.3638">Hash da senha</text></g><g class="message" data-participant-1="Auth" data-participant-2="DB"><polygon fill="#181818" points="1271.6509,422.5625,1281.6509,426.5625,1271.6509,430.5625,1275.6509,426.5625" style="stroke:#181818;stroke-width:1;"/><line style="stroke:#181818;stroke-width:1;" x1="847.6924" x2="1277.6509" y1="426.5625" y2="426.5625"/><text fill="#000000" font-family="sans-serif" font-size="13" lengthAdjust="spacing" textLength="416.9585" x="854.6924" y="421.4966">Criar novo usu&#225;rio {nome, email, password_hash, tipo_usuario}</text></g><g class="message" data-participant-1="DB" data-participant-2="Auth"><polygon fill="#181818" points="858.6924,451.6953,848.6924,455.6953,858.6924,459.6953,854.6924,455.6953" style="stroke:#181818;stroke-width:1;"/><line style="stroke:#181818;stroke-width:1;stroke-dasharray:2,2;" x1="852.6924" x2="1287.6509" y1="455.6953" y2="455.6953"/><text fill="#000000" font-family="sans-serif" font-size="13" lengthAdjust="spacing" textLength="142.4097" x="864.6924" y="450.6294">usu&#225;rio criado com ID</text></g><g class="message" data-participant-1="Auth" data-participant-2="Session"><polygon fill="#181818" points="1367.6118,480.8281,1377.6118,484.8281,1367.6118,488.8281,1371.6118,484.8281" style="stroke:#181818;stroke-width:1;"/><line style="stroke:#181818;stroke-width:1;" x1="847.6924" x2="1373.6118" y1="484.8281" y2="484.8281"/><text fill="#000000" font-family="sans-serif" font-size="13" lengthAdjust="spacing" textLength="166.1499" x="854.6924" y="479.7622">criar sess&#227;o / token (JWT)</text></g><g class="message" data-participant-1="Session" data-participant-2="Auth"><polygon fill="#181818" points="858.6924,509.9609,848.6924,513.9609,858.6924,517.9609,854.6924,513.9609" style="stroke:#181818;stroke-width:1;"/><line style="stroke:#181818;stroke-width:1;stroke-dasharray:2,2;" x1="852.6924" x2="1383.6118" y1="513.9609" y2="513.9609"/><text fill="#000000" font-family="sans-serif" font-size="13" lengthAdjust="spacing" textLength="113.5786" x="864.6924" y="508.895">token / session id</text></g><g class="message" data-participant-1="Auth" data-participant-2="Web"><polygon fill="#181818" points="475.3535,539.0938,465.3535,543.0938,475.3535,547.0938,471.3535,543.0938" style="stroke:#181818;stroke-width:1;"/><line style="stroke:#181818;stroke-width:1;" x1="469.3535" x2="836.6924" y1="543.0938" y2="543.0938"/><text fill="#000000" font-family="sans-serif" font-size="13" lengthAdjust="spacing" textLength="205.6704" x="481.3535" y="538.0278">201 Created {token, user_info}</text></g><g class="message" data-participant-1="Web" data-participant-2="User"><polygon fill="#181818" points="60.6021,568.2266,50.6021,572.2266,60.6021,576.2266,56.6021,572.2266" style="stroke:#181818;stroke-width:1;"/><line style="stroke:#181818;stroke-width:1;" x1="54.6021" x2="453.3535" y1="572.2266" y2="572.2266"/><text fill="#000000" font-family="sans-serif" font-size="13" lengthAdjust="spacing" textLength="282.2422" x="66.6021" y="567.1606">Redirecionar para dashboard / salvar token</text></g><!--SRC=[TLFDRXen4BxxAKPx0ec8jEgb72hnawgfL3KAIND4Wps0syMpiWsjXF8mgES-1I-MiO659StUTZpVptpse8xieNWCgztMMou00pm6ygf27wss5Re8nHDDeLzLhS-UNIHdshbFgiss_Yeke7ztsngW_bMtfQeo676AWP8KUHWDyj5eq2GOKmYM7Op55EMEGqMf3Blwb4Hxq9zwWcgtdLk7O0WypMs8dXNgQDSOANjhOkuyaTCBWXdxvQhCuqBByP8wG4kqPGS2kGLs8DgA4-lg44gxIJGihKQ1G76_bqLVA9KYaeuqh6Xz7pz05olRtJiJzEOjfOd8eAWydypdn5HEKoX7Wnxy86zdILOIp1JmSxS5-fEuJpY9SpI0gzg6fx0g8ngP1a6pot_Aq3b0OHbVKu9yH_qyz8VhZp1aDvFP8sp8U-v1SLF3D1fCIHWkdZFu44SAhWVVEAS4It81vvASX9ie59NrFCQ6YjtktvhAXlf-aYyO5cc8d5lZFAKpz5RO7Q-vlhEBl2iCuJTxCra8qMNkYUuyalJVoB4crI8aQMfUmkqezpN3J9M6kyFpxMMa5_iXxFuoT26oB0YqlZuzj9lwnmUVYiTrE3dPmxgPA9rOS-dY7F_w6jzVlvEqI1eDR39PHwOZFx5knl-vkNiorfCMGd4lgohR9W5E6Rr9Bh1SIptpADbtTVwszcjFvnlv0W00]--></g></svg>