<?xml version="1.0" encoding="us-ascii" standalone="no"?><svg xmlns="http://www.w3.org/2000/svg" xmlns:xlink="http://www.w3.org/1999/xlink" contentStyleType="text/css" height="555px" preserveAspectRatio="none" style="width:979px;height:555px;background:#FFFFFF;" version="1.1" viewBox="0 0 979 555" width="979px" zoomAndPan="magnify"><defs/><g><rect fill="#FFFFFF" height="344.0421" style="stroke:#181818;stroke-width:1.0;" width="10" x="404" y="117.7739"/><rect fill="#FFFFFF" height="95.118" style="stroke:#181818;stroke-width:1.0;" width="10" x="631" y="271.304"/><rect fill="#FFFFFF" height="31.706" style="stroke:#181818;stroke-width:1.0;" width="10" x="916" y="149.4799"/><rect fill="none" height="258.63" style="stroke:#000000;stroke-width:1.5;" width="859" x="10" y="196.186"/><line style="stroke:#181818;stroke-width:0.5;stroke-dasharray:5.0,5.0;" x1="77" x2="77" y1="84.0679" y2="471.816"/><line style="stroke:#181818;stroke-width:0.5;stroke-dasharray:5.0,5.0;" x1="409" x2="409" y1="84.0679" y2="471.816"/><line style="stroke:#181818;stroke-width:0.5;stroke-dasharray:5.0,5.0;" x1="635.5" x2="635.5" y1="84.0679" y2="471.816"/><line style="stroke:#181818;stroke-width:0.5;stroke-dasharray:5.0,5.0;" x1="829" x2="829" y1="84.0679" y2="471.816"/><line style="stroke:#181818;stroke-width:0.5;stroke-dasharray:5.0,5.0;" x1="921" x2="921" y1="84.0679" y2="471.816"/><text fill="#000000" font-family="sans-serif" font-size="14" lengthAdjust="spacing" textLength="108" x="20" y="79.9659">Usu&#225;rio (Admin)</text><ellipse cx="77" cy="13.5" fill="#E2E2F0" rx="8" ry="8" style="stroke:#181818;stroke-width:0.5;"/><path d="M77,21.5 L77,48.5 M64,29.5 L90,29.5 M77,48.5 L64,63.5 M77,48.5 L90,63.5 " fill="none" style="stroke:#181818;stroke-width:0.5;"/><text fill="#000000" font-family="sans-serif" font-size="14" lengthAdjust="spacing" textLength="108" x="20" y="485.7819">Usu&#225;rio (Admin)</text><ellipse cx="77" cy="498.3839" fill="#E2E2F0" rx="8" ry="8" style="stroke:#181818;stroke-width:0.5;"/><path d="M77,506.3839 L77,533.3839 M64,514.3839 L90,514.3839 M77,533.3839 L64,548.3839 M77,533.3839 L90,548.3839 " fill="none" style="stroke:#181818;stroke-width:0.5;"/><rect fill="#E2E2F0" height="33.0679" rx="2.5" ry="2.5" style="stroke:#181818;stroke-width:0.5;" width="148" x="335" y="50"/><text fill="#000000" font-family="sans-serif" font-size="14" lengthAdjust="spacing" textLength="134" x="342" y="71.9659">Web App (Frontend)</text><rect fill="#E2E2F0" height="33.0679" rx="2.5" ry="2.5" style="stroke:#181818;stroke-width:0.5;" width="148" x="335" y="470.816"/><text fill="#000000" font-family="sans-serif" font-size="14" lengthAdjust="spacing" textLength="134" x="342" y="492.7819">Web App (Frontend)</text><rect fill="#E2E2F0" height="33.0679" rx="2.5" ry="2.5" style="stroke:#181818;stroke-width:0.5;" width="141" x="565.5" y="50"/><text fill="#000000" font-family="sans-serif" font-size="14" lengthAdjust="spacing" textLength="127" x="572.5" y="71.9659">Auth API (Backend)</text><rect fill="#E2E2F0" height="33.0679" rx="2.5" ry="2.5" style="stroke:#181818;stroke-width:0.5;" width="141" x="565.5" y="470.816"/><text fill="#000000" font-family="sans-serif" font-size="14" lengthAdjust="spacing" textLength="127" x="572.5" y="492.7819">Auth API (Backend)</text><text fill="#000000" font-family="sans-serif" font-size="14" lengthAdjust="spacing" textLength="54" x="799" y="79.9659">User DB</text><path d="M811,29 C811,19 829,19 829,19 C829,19 847,19 847,29 L847,55 C847,65 829,65 829,65 C829,65 811,65 811,55 L811,29 " fill="#E2E2F0" style="stroke:#181818;stroke-width:1.5;"/><path d="M811,29 C811,39 829,39 829,39 C829,39 847,39 847,29 " fill="none" style="stroke:#181818;stroke-width:1.5;"/><text fill="#000000" font-family="sans-serif" font-size="14" lengthAdjust="spacing" textLength="54" x="799" y="485.7819">User DB</text><path d="M811,499.8839 C811,489.8839 829,489.8839 829,489.8839 C829,489.8839 847,489.8839 847,499.8839 L847,525.8839 C847,535.8839 829,535.8839 829,535.8839 C829,535.8839 811,535.8839 811,525.8839 L811,499.8839 " fill="#E2E2F0" style="stroke:#181818;stroke-width:1.5;"/><path d="M811,499.8839 C811,509.8839 829,509.8839 829,509.8839 C829,509.8839 847,509.8839 847,499.8839 " fill="none" style="stroke:#181818;stroke-width:1.5;"/><rect fill="#E2E2F0" height="33.0679" rx="2.5" ry="2.5" style="stroke:#181818;stroke-width:0.5;" width="104" x="869" y="50"/><text fill="#000000" font-family="sans-serif" font-size="14" lengthAdjust="spacing" textLength="90" x="876" y="71.9659">Session Store</text><rect fill="#E2E2F0" height="33.0679" rx="2.5" ry="2.5" style="stroke:#181818;stroke-width:0.5;" width="104" x="869" y="470.816"/><text fill="#000000" font-family="sans-serif" font-size="14" lengthAdjust="spacing" textLength="90" x="876" y="492.7819">Session Store</text><rect fill="#FFFFFF" height="344.0421" style="stroke:#181818;stroke-width:1.0;" width="10" x="404" y="117.7739"/><rect fill="#FFFFFF" height="95.118" style="stroke:#181818;stroke-width:1.0;" width="10" x="631" y="271.304"/><rect fill="#FFFFFF" height="31.706" style="stroke:#181818;stroke-width:1.0;" width="10" x="916" y="149.4799"/><polygon fill="#181818" points="392,113.7739,402,117.7739,392,121.7739,396,117.7739" style="stroke:#181818;stroke-width:1.0;"/><line style="stroke:#181818;stroke-width:1.0;" x1="77" x2="398" y1="117.7739" y2="117.7739"/><text fill="#000000" font-family="sans-serif" font-size="13" lengthAdjust="spacing" textLength="214" x="84" y="111.9649">Abre p&#225;gina de cria&#231;&#227;o de conte&#250;do</text><polygon fill="#181818" points="904,145.4799,914,149.4799,904,153.4799,908,149.4799" style="stroke:#181818;stroke-width:1.0;"/><line style="stroke:#181818;stroke-width:1.0;" x1="414" x2="910" y1="149.4799" y2="149.4799"/><text fill="#000000" font-family="sans-serif" font-size="13" lengthAdjust="spacing" textLength="132" x="421" y="143.6709">Verifica sess&#227;o (token)</text><polygon fill="#181818" points="425,177.186,415,181.186,425,185.186,421,181.186" style="stroke:#181818;stroke-width:1.0;"/><line style="stroke:#181818;stroke-width:1.0;stroke-dasharray:2.0,2.0;" x1="419" x2="920" y1="181.186" y2="181.186"/><text fill="#000000" font-family="sans-serif" font-size="13" lengthAdjust="spacing" textLength="303" x="431" y="175.377">sess&#227;o v&#225;lida + role=[admin, moderador, operador]</text><path d="M10,196.186 L73,196.186 L73,205.892 L63,215.892 L10,215.892 L10,196.186 " fill="#EEEEEE" style="stroke:#000000;stroke-width:1.5;"/><rect fill="none" height="258.63" style="stroke:#000000;stroke-width:1.5;" width="859" x="10" y="196.186"/><text fill="#000000" font-family="sans-serif" font-size="13" font-weight="bold" lengthAdjust="spacing" textLength="18" x="25" y="211.083">alt</text><text fill="#000000" font-family="sans-serif" font-size="11" font-weight="bold" lengthAdjust="spacing" textLength="76" x="88" y="209.9449">[autenticado]</text><polygon fill="#181818" points="392,235.598,402,239.598,392,243.598,396,239.598" style="stroke:#181818;stroke-width:1.0;"/><line style="stroke:#181818;stroke-width:1.0;" x1="77" x2="398" y1="239.598" y2="239.598"/><text fill="#000000" font-family="sans-serif" font-size="13" lengthAdjust="spacing" textLength="191" x="84" y="233.789">Preenche formul&#225;rio e clica Criar</text><polygon fill="#181818" points="619,267.304,629,271.304,619,275.304,623,271.304" style="stroke:#181818;stroke-width:1.0;"/><line style="stroke:#181818;stroke-width:1.0;" x1="414" x2="625" y1="271.304" y2="271.304"/><text fill="#000000" font-family="sans-serif" font-size="13" lengthAdjust="spacing" textLength="198" x="421" y="265.495">POST /conteudo (token, payload)</text><polygon fill="#181818" points="817,299.01,827,303.01,817,307.01,821,303.01" style="stroke:#181818;stroke-width:1.0;"/><line style="stroke:#181818;stroke-width:1.0;" x1="641" x2="823" y1="303.01" y2="303.01"/><text fill="#000000" font-family="sans-serif" font-size="13" lengthAdjust="spacing" textLength="158" x="648" y="297.201">INSERT INTO conteudo (...)</text><polygon fill="#181818" points="652,330.716,642,334.716,652,338.716,648,334.716" style="stroke:#181818;stroke-width:1.0;"/><line style="stroke:#181818;stroke-width:1.0;stroke-dasharray:2.0,2.0;" x1="646" x2="828" y1="334.716" y2="334.716"/><text fill="#000000" font-family="sans-serif" font-size="13" lengthAdjust="spacing" textLength="164" x="658" y="328.907">201 Created (conte&#250;do + id)</text><polygon fill="#181818" points="425,362.4221,415,366.4221,425,370.4221,421,366.4221" style="stroke:#181818;stroke-width:1.0;"/><line style="stroke:#181818;stroke-width:1.0;stroke-dasharray:2.0,2.0;" x1="419" x2="635" y1="366.4221" y2="366.4221"/><text fill="#000000" font-family="sans-serif" font-size="13" lengthAdjust="spacing" textLength="136" x="431" y="360.6131">201 Created (id, dados)</text><polygon fill="#181818" points="88,394.1281,78,398.1281,88,402.1281,84,398.1281" style="stroke:#181818;stroke-width:1.0;"/><line style="stroke:#181818;stroke-width:1.0;stroke-dasharray:2.0,2.0;" x1="82" x2="403" y1="398.1281" y2="398.1281"/><text fill="#000000" font-family="sans-serif" font-size="13" lengthAdjust="spacing" textLength="202" x="94" y="392.3191">Confirma&#231;&#227;o (conte&#250;do criado, id)</text><line style="stroke:#000000;stroke-width:1.0;stroke-dasharray:2.0,2.0;" x1="10" x2="869" y1="407.1281" y2="407.1281"/><text fill="#000000" font-family="sans-serif" font-size="11" font-weight="bold" lengthAdjust="spacing" textLength="100" x="15" y="418.887">[n&#227;o autenticado]</text><polygon fill="#181818" points="88,442.816,78,446.816,88,450.816,84,446.816" style="stroke:#181818;stroke-width:1.0;"/><line style="stroke:#181818;stroke-width:1.0;stroke-dasharray:2.0,2.0;" x1="82" x2="403" y1="446.816" y2="446.816"/><text fill="#000000" font-family="sans-serif" font-size="13" lengthAdjust="spacing" textLength="303" x="94" y="441.007">Redireciona para /login (ou mostra modal de login)</text><!--SRC=[PLAzRjj03Dxr58Gd6L6SfgE15f3Y5iYI1B7R3aK7MaStXvwF0dKAqCSnClGTkkh5oZj9ZfrwiKIHtn-9TM21sPUswmzY6VBIxAsVpm1RI8zPWn9iRHlq0MRVQ0jbqq3-MTW7ycRerF9vNzc59oWVRY6liFvrx8lbp630BROKMKbWLQLFg-eSOKrjQzd3MlLHwXWhMPPqmUN7IBk4SYi4JN_uQJs28QZ5Ol-dV-7q4bNsVmrdM0VxZ86IrcX3vqV49NmbiJjR8xHQYQDvO5KzVvsQo2TPbnFzDF7S7vmr21SWxEZ3TumY2zYp8K73KW0tmzEFpD1_k1cw0DXff1g1TcMWltEZ3qBawoU27Sk-SyE-rAABmc_KjQIXqLkCMcVkrnkuIYbqPh9LG8E_7QEPfu6ZbhITn1ktfnYhQWctT-jFZnlzszp3AyvYiHY6LrMAOc1x_-vQXP1Y6SYFqMiaTgGQW2T3P-tM563KU3jqdaHqb9MSHR8Oon9ksE-ixCTbd_352p1S95PoUcW-DhmDzmtQ8nahLEikKECHX2l7UbAGSwTBR8DMT9VeubMbBuhjpUagus7z0m00]--></g></svg>