<?xml version="1.0" encoding="us-ascii" standalone="no"?><svg xmlns="http://www.w3.org/2000/svg" xmlns:xlink="http://www.w3.org/1999/xlink" contentStyleType="text/css" height="682px" preserveAspectRatio="none" style="width:920px;height:682px;background:#FFFFFF;" version="1.1" viewBox="0 0 920 682" width="920px" zoomAndPan="magnify"><defs/><g><rect fill="#FFFFFF" height="470.8661" style="stroke:#181818;stroke-width:1.0;" width="10" x="404" y="117.7739"/><rect fill="#FFFFFF" height="95.118" style="stroke:#181818;stroke-width:1.0;" width="10" x="619" y="239.598"/><rect fill="#FFFFFF" height="191.512" style="stroke:#181818;stroke-width:1.0;" width="10" x="619" y="398.1281"/><rect fill="#FFFFFF" height="31.706" style="stroke:#181818;stroke-width:1.0;" width="10" x="857" y="149.4799"/><rect fill="none" height="385.4541" style="stroke:#000000;stroke-width:1.5;" width="800" x="10" y="196.186"/><line style="stroke:#181818;stroke-width:0.5;stroke-dasharray:5.0,5.0;" x1="77" x2="77" y1="84.0679" y2="598.6401"/><line style="stroke:#181818;stroke-width:0.5;stroke-dasharray:5.0,5.0;" x1="409" x2="409" y1="84.0679" y2="598.6401"/><line style="stroke:#181818;stroke-width:0.5;stroke-dasharray:5.0,5.0;" x1="623.5" x2="623.5" y1="84.0679" y2="598.6401"/><line style="stroke:#181818;stroke-width:0.5;stroke-dasharray:5.0,5.0;" x1="770" x2="770" y1="84.0679" y2="598.6401"/><line style="stroke:#181818;stroke-width:0.5;stroke-dasharray:5.0,5.0;" x1="862" x2="862" y1="84.0679" y2="598.6401"/><text fill="#000000" font-family="sans-serif" font-size="14" lengthAdjust="spacing" textLength="108" x="20" y="79.9659">Usu&#225;rio (Admin)</text><ellipse cx="77" cy="13.5" fill="#E2E2F0" rx="8" ry="8" style="stroke:#181818;stroke-width:0.5;"/><path d="M77,21.5 L77,48.5 M64,29.5 L90,29.5 M77,48.5 L64,63.5 M77,48.5 L90,63.5 " fill="none" style="stroke:#181818;stroke-width:0.5;"/><text fill="#000000" font-family="sans-serif" font-size="14" lengthAdjust="spacing" textLength="108" x="20" y="612.606">Usu&#225;rio (Admin)</text><ellipse cx="77" cy="625.208" fill="#E2E2F0" rx="8" ry="8" style="stroke:#181818;stroke-width:0.5;"/><path d="M77,633.208 L77,660.208 M64,641.208 L90,641.208 M77,660.208 L64,675.208 M77,660.208 L90,675.208 " fill="none" style="stroke:#181818;stroke-width:0.5;"/><rect fill="#E2E2F0" height="33.0679" rx="2.5" ry="2.5" style="stroke:#181818;stroke-width:0.5;" width="148" x="335" y="50"/><text fill="#000000" font-family="sans-serif" font-size="14" lengthAdjust="spacing" textLength="134" x="342" y="71.9659">Web App (Frontend)</text><rect fill="#E2E2F0" height="33.0679" rx="2.5" ry="2.5" style="stroke:#181818;stroke-width:0.5;" width="148" x="335" y="597.6401"/><text fill="#000000" font-family="sans-serif" font-size="14" lengthAdjust="spacing" textLength="134" x="342" y="619.606">Web App (Frontend)</text><rect fill="#E2E2F0" height="33.0679" rx="2.5" ry="2.5" style="stroke:#181818;stroke-width:0.5;" width="141" x="553.5" y="50"/><text fill="#000000" font-family="sans-serif" font-size="14" lengthAdjust="spacing" textLength="127" x="560.5" y="71.9659">Auth API (Backend)</text><rect fill="#E2E2F0" height="33.0679" rx="2.5" ry="2.5" style="stroke:#181818;stroke-width:0.5;" width="141" x="553.5" y="597.6401"/><text fill="#000000" font-family="sans-serif" font-size="14" lengthAdjust="spacing" textLength="127" x="560.5" y="619.606">Auth API (Backend)</text><text fill="#000000" font-family="sans-serif" font-size="14" lengthAdjust="spacing" textLength="54" x="740" y="79.9659">User DB</text><path d="M752,29 C752,19 770,19 770,19 C770,19 788,19 788,29 L788,55 C788,65 770,65 770,65 C770,65 752,65 752,55 L752,29 " fill="#E2E2F0" style="stroke:#181818;stroke-width:1.5;"/><path d="M752,29 C752,39 770,39 770,39 C770,39 788,39 788,29 " fill="none" style="stroke:#181818;stroke-width:1.5;"/><text fill="#000000" font-family="sans-serif" font-size="14" lengthAdjust="spacing" textLength="54" x="740" y="612.606">User DB</text><path d="M752,626.708 C752,616.708 770,616.708 770,616.708 C770,616.708 788,616.708 788,626.708 L788,652.708 C788,662.708 770,662.708 770,662.708 C770,662.708 752,662.708 752,652.708 L752,626.708 " fill="#E2E2F0" style="stroke:#181818;stroke-width:1.5;"/><path d="M752,626.708 C752,636.708 770,636.708 770,636.708 C770,636.708 788,636.708 788,626.708 " fill="none" style="stroke:#181818;stroke-width:1.5;"/><rect fill="#E2E2F0" height="33.0679" rx="2.5" ry="2.5" style="stroke:#181818;stroke-width:0.5;" width="104" x="810" y="50"/><text fill="#000000" font-family="sans-serif" font-size="14" lengthAdjust="spacing" textLength="90" x="817" y="71.9659">Session Store</text><rect fill="#E2E2F0" height="33.0679" rx="2.5" ry="2.5" style="stroke:#181818;stroke-width:0.5;" width="104" x="810" y="597.6401"/><text fill="#000000" font-family="sans-serif" font-size="14" lengthAdjust="spacing" textLength="90" x="817" y="619.606">Session Store</text><rect fill="#FFFFFF" height="470.8661" style="stroke:#181818;stroke-width:1.0;" width="10" x="404" y="117.7739"/><rect fill="#FFFFFF" height="95.118" style="stroke:#181818;stroke-width:1.0;" width="10" x="619" y="239.598"/><rect fill="#FFFFFF" height="191.512" style="stroke:#181818;stroke-width:1.0;" width="10" x="619" y="398.1281"/><rect fill="#FFFFFF" height="31.706" style="stroke:#181818;stroke-width:1.0;" width="10" x="857" y="149.4799"/><polygon fill="#181818" points="392,113.7739,402,117.7739,392,121.7739,396,117.7739" style="stroke:#181818;stroke-width:1.0;"/><line style="stroke:#181818;stroke-width:1.0;" x1="77" x2="398" y1="117.7739" y2="117.7739"/><text fill="#000000" font-family="sans-serif" font-size="13" lengthAdjust="spacing" textLength="211" x="84" y="111.9649">Abre p&#225;gina de edi&#231;ao de conte&#250;do</text><polygon fill="#181818" points="845,145.4799,855,149.4799,845,153.4799,849,149.4799" style="stroke:#181818;stroke-width:1.0;"/><line style="stroke:#181818;stroke-width:1.0;" x1="414" x2="851" y1="149.4799" y2="149.4799"/><text fill="#000000" font-family="sans-serif" font-size="13" lengthAdjust="spacing" textLength="126" x="421" y="143.6709">Verifica se&#231;&#227;o (token)</text><polygon fill="#181818" points="425,177.186,415,181.186,425,185.186,421,181.186" style="stroke:#181818;stroke-width:1.0;"/><line style="stroke:#181818;stroke-width:1.0;stroke-dasharray:2.0,2.0;" x1="419" x2="861" y1="181.186" y2="181.186"/><text fill="#000000" font-family="sans-serif" font-size="13" lengthAdjust="spacing" textLength="303" x="431" y="175.377">sess&#227;o v&#225;lida + role=[admin, moderador, operador]</text><path d="M10,196.186 L73,196.186 L73,205.892 L63,215.892 L10,215.892 L10,196.186 " fill="#EEEEEE" style="stroke:#000000;stroke-width:1.5;"/><rect fill="none" height="385.4541" style="stroke:#000000;stroke-width:1.5;" width="800" x="10" y="196.186"/><text fill="#000000" font-family="sans-serif" font-size="13" font-weight="bold" lengthAdjust="spacing" textLength="18" x="25" y="211.083">alt</text><text fill="#000000" font-family="sans-serif" font-size="11" font-weight="bold" lengthAdjust="spacing" textLength="76" x="88" y="209.9449">[autenticado]</text><polygon fill="#181818" points="607,235.598,617,239.598,607,243.598,611,239.598" style="stroke:#181818;stroke-width:1.0;"/><line style="stroke:#181818;stroke-width:1.0;" x1="414" x2="613" y1="239.598" y2="239.598"/><text fill="#000000" font-family="sans-serif" font-size="13" lengthAdjust="spacing" textLength="186" x="421" y="233.789">GET /api/conteudo/{id} {token}</text><polygon fill="#181818" points="758,267.304,768,271.304,758,275.304,762,271.304" style="stroke:#181818;stroke-width:1.0;"/><line style="stroke:#181818;stroke-width:1.0;" x1="629" x2="764" y1="271.304" y2="271.304"/><text fill="#000000" font-family="sans-serif" font-size="13" lengthAdjust="spacing" textLength="104" x="636" y="265.495">SELECT conteudo</text><polygon fill="#181818" points="640,299.01,630,303.01,640,307.01,636,303.01" style="stroke:#181818;stroke-width:1.0;"/><line style="stroke:#181818;stroke-width:1.0;stroke-dasharray:2.0,2.0;" x1="634" x2="769" y1="303.01" y2="303.01"/><text fill="#000000" font-family="sans-serif" font-size="13" lengthAdjust="spacing" textLength="117" x="646" y="297.201">dados do conte&#250;do</text><polygon fill="#181818" points="425,330.716,415,334.716,425,338.716,421,334.716" style="stroke:#181818;stroke-width:1.0;"/><line style="stroke:#181818;stroke-width:1.0;stroke-dasharray:2.0,2.0;" x1="419" x2="623" y1="334.716" y2="334.716"/><text fill="#000000" font-family="sans-serif" font-size="13" lengthAdjust="spacing" textLength="113" x="431" y="328.907">200 OK {conte&#250;do}</text><polygon fill="#181818" points="392,362.4221,402,366.4221,392,370.4221,396,366.4221" style="stroke:#181818;stroke-width:1.0;"/><line style="stroke:#181818;stroke-width:1.0;" x1="77" x2="398" y1="366.4221" y2="366.4221"/><text fill="#000000" font-family="sans-serif" font-size="13" lengthAdjust="spacing" textLength="186" x="84" y="360.6131">edita conte&#250;do e cica em salvar</text><polygon fill="#181818" points="607,394.1281,617,398.1281,607,402.1281,611,398.1281" style="stroke:#181818;stroke-width:1.0;"/><line style="stroke:#181818;stroke-width:1.0;" x1="414" x2="613" y1="398.1281" y2="398.1281"/><text fill="#000000" font-family="sans-serif" font-size="13" lengthAdjust="spacing" textLength="172" x="421" y="392.3191">POST /conteudo/{id} {token}</text><polygon fill="#181818" points="758,425.8341,768,429.8341,758,433.8341,762,429.8341" style="stroke:#181818;stroke-width:1.0;"/><line style="stroke:#181818;stroke-width:1.0;" x1="629" x2="764" y1="429.8341" y2="429.8341"/><text fill="#000000" font-family="sans-serif" font-size="13" lengthAdjust="spacing" textLength="110" x="636" y="424.0251">UPDATE conteudo</text><polygon fill="#181818" points="640,457.5401,630,461.5401,640,465.5401,636,461.5401" style="stroke:#181818;stroke-width:1.0;"/><line style="stroke:#181818;stroke-width:1.0;stroke-dasharray:2.0,2.0;" x1="634" x2="769" y1="461.5401" y2="461.5401"/><text fill="#000000" font-family="sans-serif" font-size="13" lengthAdjust="spacing" textLength="18" x="646" y="455.7311">OK</text><polygon fill="#181818" points="425,489.2461,415,493.2461,425,497.2461,421,493.2461" style="stroke:#181818;stroke-width:1.0;"/><line style="stroke:#181818;stroke-width:1.0;stroke-dasharray:2.0,2.0;" x1="419" x2="618" y1="493.2461" y2="493.2461"/><text fill="#000000" font-family="sans-serif" font-size="13" lengthAdjust="spacing" textLength="84" x="431" y="487.4371">200 OK (salvo)</text><polygon fill="#181818" points="88,520.9521,78,524.9521,88,528.9521,84,524.9521" style="stroke:#181818;stroke-width:1.0;"/><line style="stroke:#181818;stroke-width:1.0;stroke-dasharray:2.0,2.0;" x1="82" x2="403" y1="524.9521" y2="524.9521"/><text fill="#000000" font-family="sans-serif" font-size="13" lengthAdjust="spacing" textLength="189" x="94" y="519.1431">Confirma&#231;&#227;o de conte&#250;do salvo</text><line style="stroke:#000000;stroke-width:1.0;stroke-dasharray:2.0,2.0;" x1="10" x2="810" y1="533.9521" y2="533.9521"/><text fill="#000000" font-family="sans-serif" font-size="11" font-weight="bold" lengthAdjust="spacing" textLength="92" x="15" y="545.7111">[n&#227;o autorizado]</text><polygon fill="#181818" points="88,569.6401,78,573.6401,88,577.6401,84,573.6401" style="stroke:#181818;stroke-width:1.0;"/><line style="stroke:#181818;stroke-width:1.0;stroke-dasharray:2.0,2.0;" x1="82" x2="403" y1="573.6401" y2="573.6401"/><text fill="#000000" font-family="sans-serif" font-size="13" lengthAdjust="spacing" textLength="303" x="94" y="567.831">Redireciona para /login (ou mostra modal de login)</text><!--SRC=[dLFDZjCm4BxxAJxrb8fTTSKn4aZ9fY2qIArebpqW3jFO2nPf7DbE3rJxC1M7VGUkUJ76JjEqMi61dApv-Nvc9bHwOp6vTsrtiDeWoUHMrzC9o24-HKFMwr8tL7jC7jG6MTCWUMTDxLKj-qeENzPbhV-ERFa1IKxbZrDT20j9dZRaL61L5aKUKqL-YR1IpcbJOyNwLAmuHeI8kd3zDj2co3PMeUaEttHDa0fAwkwPJ7YMGMFtMnf1fTSxyYeg3IQu-uYNuhEo-b6N1AUwv-uN3y4RrZmTkmRgGTJrGEuu43fstQ7Ial0ArbJgpHSA4g-mDL9PaiPUmJJzwwkGwWMkeCg3MXue3u2h1FWxoWmpI_5-liQC6ZsBdbffPdijdx2FIfzY_GarJZb4uXOOeiXJhEOVvxTh3EqnN-JHISyWcTT1chEfZHY3tzStDrZSON-gwQdFB4NollDYJRmMJoCsU3jXv6eBHzMEx4lBoyMAFV-lt_jbaQtd__2xkFkxloHeCjDHK-WATbBSclfHsotrbt9-PD684QhYqwv3aXTghFvviSyHw1DFnAgIrq_WooVCAiCtZCIqV3VESuJFXwh04JDJmV-HE3yVHlm3]--></g></svg>